<svg width="20" height="20" viewBox="0 0 20 20" fill="none" xmlns="http://www.w3.org/2000/svg">
<path d="M3.17238 4.303L4.60675 9.08313M10.9146 15.3933L15.697 16.8276M9.64337 10.3566L16.1222 3.87775M1 2.6875C1 2.90911 1.04365 3.12854 1.12845 3.33328C1.21326 3.53802 1.33756 3.72404 1.49426 3.88074C1.65096 4.03744 1.83698 4.16174 2.04172 4.24655C2.24646 4.33135 2.46589 4.375 2.6875 4.375C2.90911 4.375 3.12854 4.33135 3.33328 4.24655C3.53802 4.16174 3.72404 4.03744 3.88074 3.88074C4.03744 3.72404 4.16174 3.53802 4.24655 3.33328C4.33135 3.12854 4.375 2.90911 4.375 2.6875C4.375 2.46589 4.33135 2.24646 4.24655 2.04172C4.16174 1.83698 4.03744 1.65096 3.88074 1.49426C3.72404 1.33756 3.53802 1.21326 3.33328 1.12845C3.12854 1.04365 2.90911 1 2.6875 1C2.46589 1 2.24646 1.04365 2.04172 1.12845C1.83698 1.21326 1.65096 1.33756 1.49426 1.49426C1.33756 1.65096 1.21326 1.83698 1.12845 2.04172C1.04365 2.24646 1 2.46589 1 2.6875ZM15.625 2.6875C15.625 3.13505 15.8028 3.56428 16.1193 3.88074C16.4357 4.19721 16.8649 4.375 17.3125 4.375C17.7601 4.375 18.1893 4.19721 18.5057 3.88074C18.8222 3.56428 19 3.13505 19 2.6875C19 2.23995 18.8222 1.81072 18.5057 1.49426C18.1893 1.17779 17.7601 1 17.3125 1C16.8649 1 16.4357 1.17779 16.1193 1.49426C15.8028 1.81072 15.625 2.23995 15.625 2.6875ZM15.625 17.3125C15.625 17.7601 15.8028 18.1893 16.1193 18.5057C16.4357 18.8222 16.8649 19 17.3125 19C17.7601 19 18.1893 18.8222 18.5057 18.5057C18.8222 18.1893 19 17.7601 19 17.3125C19 16.8649 18.8222 16.4357 18.5057 16.1193C18.1893 15.8028 17.7601 15.625 17.3125 15.625C16.8649 15.625 16.4357 15.8028 16.1193 16.1193C15.8028 16.4357 15.625 16.8649 15.625 17.3125ZM1 13.9375C1 15.2802 1.53337 16.5678 2.48277 17.5172C3.43217 18.4666 4.71984 19 6.0625 19C7.40516 19 8.69282 18.4666 9.64223 17.5172C10.5916 16.5678 11.125 15.2802 11.125 13.9375C11.125 12.5948 10.5916 11.3072 9.64223 10.3578C8.69282 9.40837 7.40516 8.875 6.0625 8.875C4.71984 8.875 3.43217 9.40837 2.48277 10.3578C1.53337 11.3072 1 12.5948 1 13.9375Z" stroke="#1A1A1A" stroke-width="1.8" stroke-linecap="round" stroke-linejoin="round"/>
</svg>
