<svg width="22" height="22" viewBox="0 0 22 22" fill="none" xmlns="http://www.w3.org/2000/svg">
<path d="M19.9375 3.09375H2.0625C1.69795 3.09416 1.34845 3.23916 1.09068 3.49693C0.832907 3.7547 0.687909 4.1042 0.6875 4.46875V17.5312C0.687909 17.8958 0.832907 18.2453 1.09068 18.5031C1.34845 18.7608 1.69795 18.9058 2.0625 18.9062H19.9375C20.302 18.9058 20.6515 18.7608 20.9093 18.5031C21.1671 18.2453 21.3121 17.8958 21.3125 17.5312V4.46875C21.3121 4.1042 21.1671 3.7547 20.9093 3.49693C20.6515 3.23916 20.302 3.09416 19.9375 3.09375ZM19.9375 17.5312H2.0625V4.46875H19.9375L19.9384 17.5312H19.9375Z" fill="white"/>
<path d="M9.96876 7.90625H17.875V9.28125H9.96876V7.90625ZM7.56251 11H17.875V12.375H7.56251V11ZM7.56251 14.0938H17.875V15.4688H7.56251V14.0938ZM3.82092 6.1875V11.7272L8.08222 8.74427L3.82092 6.1875Z" fill="white"/>
</svg>
