<svg width="25" height="25" viewBox="0 0 25 25" fill="none" xmlns="http://www.w3.org/2000/svg">
<path d="M22.3958 12.5002C22.3958 13.9384 21.2299 15.1043 19.7917 15.1043C18.3534 15.1043 17.1875 13.9384 17.1875 12.5002C17.1875 11.0619 18.3534 9.896 19.7917 9.896C21.2299 9.896 22.3958 11.0619 22.3958 12.5002Z" stroke="#1A1A1A" stroke-width="1.5"/>
<path d="M14.0625 4.1665C14.0625 5.02945 13.3629 5.729 12.5 5.729C11.6371 5.729 10.9375 5.02945 10.9375 4.1665C10.9375 3.30356 11.6371 2.604 12.5 2.604C13.3629 2.604 14.0625 3.30356 14.0625 4.1665Z" stroke="#1A1A1A" stroke-width="1.5"/>
<path d="M13.0208 11.979C13.0208 12.8419 12.3212 13.5415 11.4583 13.5415C10.5954 13.5415 9.89583 12.8419 9.89583 11.979C9.89583 11.1161 10.5954 10.4165 11.4583 10.4165C12.3212 10.4165 13.0208 11.1161 13.0208 11.979Z" stroke="#1A1A1A" stroke-width="1.5"/>
<path d="M6.77083 7.81234C6.77083 8.96293 5.83809 9.89567 4.6875 9.89567C3.53691 9.89567 2.60417 8.96293 2.60417 7.81234C2.60417 6.66174 3.53691 5.729 4.6875 5.729C5.83809 5.729 6.77083 6.66174 6.77083 7.81234Z" stroke="#1A1A1A" stroke-width="1.5"/>
<path d="M10.9375 20.3123C10.9375 21.463 10.0048 22.3957 8.85417 22.3957C7.70357 22.3957 6.77083 21.463 6.77083 20.3123C6.77083 19.1617 7.70357 18.229 8.85417 18.229C10.0048 18.229 10.9375 19.1617 10.9375 20.3123Z" stroke="#1A1A1A" stroke-width="1.5"/>
<path d="M14.0625 5.20833L18.2292 10.4167M15.1042 16.1458L10.9375 19.2708M8.33333 18.2292L5.20833 9.89583M6.57602 6.93157L10.9375 4.6875M13.0208 11.9792L17.1927 12.3378" stroke="#1A1A1A" stroke-width="1.5" stroke-linecap="round" stroke-linejoin="round"/>
<path d="M12.5 5.729L11.4583 10.4165" stroke="#1A1A1A" stroke-width="1.5" stroke-linecap="round" stroke-linejoin="round"/>
</svg>
