<svg width="26" height="26" viewBox="0 0 26 26" fill="none" xmlns="http://www.w3.org/2000/svg">
<path d="M23.2917 12.9998C23.2917 14.4956 22.0791 15.7082 20.5833 15.7082C19.0876 15.7082 17.875 14.4956 17.875 12.9998C17.875 11.5041 19.0876 10.2915 20.5833 10.2915C22.0791 10.2915 23.2917 11.5041 23.2917 12.9998Z" stroke="white" stroke-width="1.5"/>
<path d="M14.625 4.3335C14.625 5.23096 13.8974 5.9585 13 5.9585C12.1026 5.9585 11.375 5.23096 11.375 4.3335C11.375 3.43603 12.1026 2.7085 13 2.7085C13.8974 2.7085 14.625 3.43603 14.625 4.3335Z" stroke="white" stroke-width="1.5"/>
<path d="M13.5417 12.4585C13.5417 13.3559 12.8141 14.0835 11.9167 14.0835C11.0192 14.0835 10.2917 13.3559 10.2917 12.4585C10.2917 11.5611 11.0192 10.8335 11.9167 10.8335C12.8141 10.8335 13.5417 11.5611 13.5417 12.4585Z" stroke="white" stroke-width="1.5"/>
<path d="M7.04168 8.12516C7.04168 9.32178 6.07163 10.2918 4.87501 10.2918C3.67839 10.2918 2.70834 9.32178 2.70834 8.12516C2.70834 6.92855 3.67839 5.9585 4.87501 5.9585C6.07163 5.9585 7.04168 6.92855 7.04168 8.12516Z" stroke="white" stroke-width="1.5"/>
<path d="M11.375 21.1252C11.375 22.3218 10.4049 23.2918 9.20832 23.2918C8.01171 23.2918 7.04166 22.3218 7.04166 21.1252C7.04166 19.9285 8.01171 18.9585 9.20832 18.9585C10.4049 18.9585 11.375 19.9285 11.375 21.1252Z" stroke="white" stroke-width="1.5"/>
<path d="M14.625 5.41667L18.9583 10.8333M15.7083 16.7917L11.375 20.0417M8.66666 18.9583L5.41666 10.2917M6.83905 7.20884L11.375 4.875M13.5417 12.4583L17.8804 12.8313" stroke="white" stroke-width="1.5" stroke-linecap="round" stroke-linejoin="round"/>
<path d="M13 5.9585L11.9167 10.8335" stroke="white" stroke-width="1.5" stroke-linecap="round" stroke-linejoin="round"/>
</svg>
