<svg width="22" height="22" viewBox="0 0 22 22" fill="none" xmlns="http://www.w3.org/2000/svg">
<path d="M10.549 13.2562C11.795 13.2562 12.805 12.2461 12.805 11.0002C12.805 9.7542 11.795 8.74414 10.549 8.74414C9.30303 8.74414 8.29296 9.7542 8.29296 11.0002C8.29296 12.2461 9.30303 13.2562 10.549 13.2562Z" stroke="#1A1A1A" stroke-width="1.5"/>
<path d="M3.10294 4.09653L3.52595 3.36332C3.35987 3.26752 3.16617 3.23096 2.9766 3.25966C2.78703 3.28835 2.61282 3.38058 2.48253 3.52125L3.10294 4.09653ZM0.848038 8.00399L0.0392497 7.75357C-0.017329 7.93681 -0.00996802 8.13384 0.0601259 8.31236C0.13022 8.49087 0.258887 8.64028 0.425032 8.73607L0.848038 8.00399ZM0.845782 13.9949L0.422775 13.2617C0.256596 13.3577 0.128001 13.5074 0.058103 13.6861C-0.0117948 13.8648 -0.0188409 14.062 0.0381215 14.2453L0.845782 13.9949ZM3.10182 17.9023L2.48141 18.4776C2.6117 18.6183 2.7859 18.7105 2.97547 18.7392C3.16505 18.7679 3.35874 18.7314 3.52482 18.6355L3.10182 17.9023ZM8.2907 20.8972H7.44468C7.44468 21.292 7.71879 21.6338 8.10344 21.7218L8.2907 20.8972ZM12.8039 20.8995L12.9923 21.7252C13.1793 21.6825 13.3462 21.5775 13.4657 21.4275C13.5852 21.2774 13.6501 21.0913 13.6499 20.8995H12.8039ZM17.9939 17.9035L17.5709 18.6367C17.737 18.7325 17.9307 18.769 18.1202 18.7403C18.3098 18.7117 18.484 18.6194 18.6143 18.4788L17.9939 17.9035ZM20.2477 13.9938L21.0565 14.2442C21.113 14.0609 21.1057 13.8639 21.0356 13.6854C20.9655 13.5069 20.8368 13.3575 20.6707 13.2617L20.2477 13.9938ZM20.2499 8.00286L20.6729 8.73607C20.8391 8.64005 20.9677 8.49039 21.0376 8.31165C21.1075 8.13291 21.1146 7.93571 21.0576 7.75244L20.2499 8.00286ZM17.9939 4.09428L18.6143 3.52012C18.484 3.37945 18.3098 3.28722 18.1202 3.25853C17.9307 3.22984 17.737 3.26639 17.5709 3.3622L17.9939 4.09428ZM12.805 1.10165H13.651C13.651 0.910045 13.5859 0.724132 13.4664 0.574335C13.347 0.424538 13.1802 0.319731 12.9934 0.277068L12.805 1.10165ZM8.29295 1.09939L8.10457 0.273684C7.91759 0.31639 7.75067 0.421364 7.63118 0.571392C7.51169 0.721419 7.44673 0.907596 7.44694 1.09939H8.29295ZM1.65683 8.25441C2.06738 6.91987 2.77333 5.69497 3.72223 4.67069L2.48141 3.52012C1.36009 4.73045 0.525775 6.17779 0.0403776 7.75469L1.65683 8.25441ZM2.4893 15.6531C2.14108 15.0506 1.86111 14.4112 1.65457 13.7467L0.0392497 14.2464C0.282725 15.0316 0.61302 15.7872 1.02401 16.4991L2.4893 15.6531ZM3.72335 17.3293C3.25098 16.8182 2.83707 16.2559 2.4893 15.6531L1.02401 16.4991C1.4347 17.2111 1.92352 17.874 2.48141 18.4776L3.72335 17.3293ZM12.6166 20.076C11.2555 20.3858 9.84211 20.385 8.48133 20.0738L8.10457 21.7229C9.71325 22.0912 11.3842 22.0924 12.9934 21.7263L12.6166 20.076ZM19.4411 13.7456C19.0306 15.0801 18.3246 16.305 17.3757 17.3293L18.6166 18.4799C19.7379 17.2695 20.5722 15.8222 21.0576 14.2453L19.4411 13.7456ZM18.6087 6.34693C18.9629 6.96583 19.2411 7.60128 19.4434 8.25328L21.0587 7.75357C20.8152 6.9684 20.485 6.21285 20.074 5.50092L18.6087 6.34693ZM17.3735 4.67069C17.836 5.17041 18.2511 5.73103 18.6075 6.34693L20.074 5.50092C19.6629 4.78884 19.1726 4.12371 18.6143 3.52012L17.3735 4.67069ZM8.4802 1.92397C9.84132 1.61419 11.2547 1.61496 12.6155 1.92623L12.9934 0.277068C11.3847 -0.0912101 9.71263 -0.0923668 8.10344 0.273684L8.4802 1.92397ZM9.13784 3.1851V1.09826H7.44581V3.1851H9.13784ZM5.33191 4.40561L3.52595 3.36332L2.67994 4.82862L4.48477 5.8709L5.33191 4.40561ZM2.22986 12.2216L0.423903 13.2639L1.26992 14.7292L3.07587 13.6869L2.22986 12.2216ZM3.07587 8.31306L1.27104 7.2719L0.425032 8.73832L2.22986 9.77949L3.07587 8.31306ZM9.13896 20.8983V18.8149H7.44694V20.8983H9.13896ZM4.48589 16.1291L2.67994 17.1714L3.52595 18.6378L5.33078 17.5944L4.48589 16.1291ZM18.418 17.1714L16.6121 16.1291L15.7661 17.5944L17.5709 18.6367L18.418 17.1714ZM13.651 20.9006V18.8149H11.959V20.9017L13.651 20.9006ZM19.8281 7.27077L18.0221 8.31306L18.8681 9.77949L20.6729 8.73607L19.8281 7.27077ZM20.6718 13.2628L18.8681 12.2205L18.0221 13.6869L19.8269 14.7281L20.6718 13.2628ZM13.651 3.1851V1.10165H11.959V3.1851H13.651ZM17.572 3.36332L15.7661 4.40561L16.6121 5.87203L18.418 4.82862L17.572 3.36332ZM11.959 3.1851C11.959 5.57311 14.5444 7.0666 16.6121 5.87203L15.7661 4.40561C15.5518 4.52934 15.3087 4.59449 15.0612 4.59452C14.8137 4.59454 14.5706 4.52944 14.3563 4.40576C14.142 4.28208 13.964 4.10416 13.8402 3.8899C13.7164 3.67563 13.6511 3.43256 13.651 3.1851H11.959ZM18.0221 8.31306C15.9544 9.50763 15.9544 12.4924 18.0221 13.6869L18.8681 12.2205C18.6538 12.0968 18.4758 11.9188 18.3521 11.7044C18.2283 11.4901 18.1632 11.2469 18.1632 10.9994C18.1632 10.7519 18.2283 10.5088 18.3521 10.2945C18.4758 10.0801 18.6538 9.90212 18.8681 9.77836L18.0221 8.31306ZM16.6121 16.1291C14.5444 14.9345 11.959 16.4269 11.959 18.8149H13.651C13.6511 18.5674 13.7164 18.3244 13.8402 18.1101C13.964 17.8958 14.142 17.7179 14.3563 17.5942C14.5706 17.4706 14.8137 17.4055 15.0612 17.4055C15.3087 17.4055 15.5518 17.4707 15.7661 17.5944L16.6121 16.1291ZM9.13896 18.8149C9.13896 16.4269 6.55355 14.9345 4.48589 16.1291L5.33078 17.5944C5.54508 17.4707 5.78931 17.4055 6.03677 17.4055C6.28423 17.4055 6.52734 17.4706 6.74167 17.5942C6.956 17.7179 7.13401 17.8958 7.25781 18.1101C7.38161 18.3244 7.44683 18.5674 7.44694 18.8149H9.13896ZM3.07587 13.6869C5.14353 12.4924 5.14353 9.50763 3.07587 8.31306L2.22986 9.77949C2.44419 9.90324 2.62217 10.0812 2.74592 10.2956C2.86966 10.5099 2.93481 10.7531 2.93481 11.0006C2.93481 11.2481 2.86966 11.4912 2.74592 11.7055C2.62217 11.9199 2.44419 12.0979 2.22986 12.2216L3.07587 13.6869ZM7.44694 3.1851C7.44683 3.43256 7.38161 3.67563 7.25781 3.8899C7.13401 4.10416 6.956 4.28208 6.74167 4.40576C6.52734 4.52944 6.28423 4.59454 6.03677 4.59452C5.78931 4.59449 5.54621 4.52934 5.33191 4.40561L4.48589 5.87203C6.55355 7.06547 9.13896 5.57311 9.13896 3.1851H7.44694Z" fill="#1A1A1A"/>
</svg>
