<svg width="18" height="20" viewBox="0 0 18 20" fill="none" xmlns="http://www.w3.org/2000/svg">
<path fill-rule="evenodd" clip-rule="evenodd" d="M4.06452 5.00625C4.06452 4.34882 4.19218 3.69783 4.44021 3.09044C4.68824 2.48306 5.05178 1.93117 5.51009 1.4663C5.96839 1.00142 6.51247 0.632666 7.11127 0.381078C7.71007 0.12949 8.35186 0 9 0C9.64814 0 10.2899 0.12949 10.8887 0.381078C11.4875 0.632666 12.0316 1.00142 12.4899 1.4663C12.9482 1.93117 13.3118 2.48306 13.5598 3.09044C13.8078 3.69783 13.9355 4.34882 13.9355 5.00625C13.9355 6.33399 13.4155 7.60735 12.4899 8.54621C11.5643 9.48506 10.309 10.0125 9 10.0125C7.69103 10.0125 6.43567 9.48506 5.51009 8.54621C4.5845 7.60735 4.06452 6.33399 4.06452 5.00625ZM9 1.76691C8.15302 1.76691 7.34073 2.1082 6.74182 2.71569C6.14291 3.32319 5.80645 4.14713 5.80645 5.00625C5.80645 5.86538 6.14291 6.68932 6.74182 7.29681C7.34073 7.90431 8.15302 8.24559 9 8.24559C9.84698 8.24559 10.6593 7.90431 11.2582 7.29681C11.8571 6.68932 12.1935 5.86538 12.1935 5.00625C12.1935 4.14713 11.8571 3.32319 11.2582 2.71569C10.6593 2.1082 9.84698 1.76691 9 1.76691ZM4.35484 13.5463C3.66185 13.5463 2.99725 13.8256 2.50724 14.3226C2.01722 14.8196 1.74194 15.4938 1.74194 16.1967V17.5961C1.74194 17.6173 1.75703 17.6361 1.77794 17.6397C6.56129 18.4313 11.4399 18.4313 16.2221 17.6397C16.2319 17.6374 16.2408 17.6319 16.2473 17.624C16.2538 17.6161 16.2576 17.6063 16.2581 17.5961V16.1967C16.2581 15.4938 15.9828 14.8196 15.4928 14.3226C15.0027 13.8256 14.3381 13.5463 13.6452 13.5463H13.2503C13.2193 13.5469 13.1884 13.5516 13.1586 13.5605L12.1541 13.8938C10.1046 14.5726 7.8954 14.5726 5.84594 13.8938L4.84026 13.5605C4.81118 13.5518 4.78112 13.5471 4.75084 13.5463H4.35484ZM0 16.1967C0 15.0252 0.458812 13.9016 1.2755 13.0732C2.09219 12.2448 3.19986 11.7794 4.35484 11.7794H4.74968C4.96645 11.7802 5.17703 11.814 5.38142 11.8807L6.3871 12.2141C8.08494 12.7763 9.91506 12.7763 11.6129 12.2141L12.6186 11.8807C12.8218 11.8136 13.0355 11.7794 13.2492 11.7794H13.6452C14.8001 11.7794 15.9078 12.2448 16.7245 13.0732C17.5412 13.9016 18 15.0252 18 16.1967V17.5961C18 18.4843 17.3659 19.2405 16.5019 19.383C11.5335 20.2057 6.46648 20.2057 1.49806 19.383C1.08021 19.3133 0.700313 19.0954 0.425986 18.7682C0.151659 18.441 0.000707429 18.0256 0 17.5961V16.1967Z" fill="#1A1A1A"/>
</svg>
