<svg width="451" height="451" viewBox="0 0 451 451" fill="none" xmlns="http://www.w3.org/2000/svg">
<path d="M421.529 270.549C409.643 306.573 384.039 346.054 346.358 358.906C289.424 378.331 284.337 425.026 181.004 424.707C164.894 424.659 149.939 422.972 136.141 419.89C128.724 418.233 121.638 416.163 114.897 413.723C53.6834 391.642 20.1678 339.13 15.3854 283.015C9.08314 209.211 59.3083 171.977 92.0383 150.045C124.768 128.115 162.088 46.5968 263.673 46.1115C279.161 46.0439 294.675 47.562 309.786 51.0383C344.28 58.9578 379.772 78.0514 401.091 107.146C402.693 109.332 404.225 111.573 405.698 113.86C434.454 158.6 437.736 221.438 421.529 270.549Z" fill="#0067D2"/>
<path opacity="0.7" d="M421.529 270.549C409.643 306.573 384.039 346.054 346.358 358.906C289.424 378.331 284.337 425.026 181.004 424.707C164.894 424.659 149.939 422.972 136.141 419.89C128.724 418.233 121.638 416.163 114.897 413.723C53.6834 391.642 20.1678 339.13 15.3854 283.015C9.08314 209.211 59.3083 171.977 92.0383 150.045C124.768 128.115 162.088 46.5968 263.673 46.1115C279.161 46.0439 294.675 47.562 309.786 51.0383C344.28 58.9578 379.772 78.0514 401.091 107.146C402.693 109.332 404.225 111.573 405.698 113.86C434.454 158.6 437.736 221.438 421.529 270.549Z" fill="white"/>
<path d="M435.385 408.722H18.8924" stroke="#263238" stroke-miterlimit="10" stroke-linecap="round" stroke-linejoin="round"/>
<path d="M34.4221 351.655C36.365 352.503 41.115 352.397 41.1186 352.397C41.1682 352.396 40.0975 349.287 40.0073 349.099C38.9655 346.919 35.6687 343.318 32.987 343.681C31.055 343.942 29.9807 345.875 30.4163 347.695C30.8628 349.552 32.7688 350.932 34.4221 351.655Z" fill="#263238"/>
<path d="M36.062 365.414C38.077 365.708 42.3164 364.479 42.6529 364.38C43.3222 366.753 44.2016 369.134 45.2245 371.495C45.8072 372.845 46.4368 374.186 47.0853 375.524C46.6984 374.957 46.3484 374.454 46.2925 374.388C44.7104 372.56 40.581 369.959 38.0906 371.017C36.2956 371.779 35.7706 373.927 36.6708 375.566C37.5909 377.24 39.7945 378.068 41.5804 378.328C43.3934 378.592 47.0285 377.616 47.9873 377.346C48.2408 377.856 48.4888 378.369 48.745 378.878C49.9726 381.323 51.2084 383.756 52.3467 386.181C52.7481 387.035 53.1125 387.891 53.4805 388.746C53.1368 388.243 52.8428 387.823 52.7914 387.763C51.2102 385.936 47.0808 383.333 44.5895 384.392C42.7945 385.155 42.2686 387.303 43.1697 388.942C44.0907 390.616 46.2934 391.444 48.0793 391.705C49.8094 391.957 53.1729 391.087 54.313 390.77C54.663 391.658 55.0157 392.546 55.3143 393.42C55.5055 394.023 55.731 394.589 55.8879 395.205C56.0575 395.811 56.2244 396.411 56.3904 397.006C56.6682 398.162 56.9613 399.354 57.2031 400.489C57.378 401.277 57.5296 402.031 57.6847 402.79C57.2951 401.935 56.4959 400.277 56.4129 400.147C55.1276 398.101 51.4393 394.903 48.8163 395.572C46.9266 396.053 46.0823 398.097 46.7245 399.854C47.3803 401.648 49.4323 402.801 51.1588 403.329C53.0593 403.91 57.2671 403.379 57.7921 403.309C58.0446 404.566 58.2773 405.791 58.4794 406.951C58.5876 407.565 58.6814 408.142 58.777 408.721H60.4503C60.3267 408.053 60.1977 407.37 60.0552 406.656C59.8044 405.379 59.5113 404.019 59.1965 402.624C59.5131 402.499 61.3072 401.773 62.8974 400.884C64.2829 402.385 67.8322 404.14 68.2913 404.364C67.8088 405.551 67.3271 406.701 66.8554 407.78C66.7137 408.107 66.5766 408.411 66.4377 408.721H68.2002C68.2444 408.615 68.2877 408.514 68.3319 408.404C68.8271 407.199 69.3332 405.902 69.8401 404.566C70.3488 404.673 74.5142 405.519 76.4553 405.081C78.216 404.683 80.3484 403.686 81.1367 401.946C81.9079 400.242 81.2179 398.141 79.3688 397.52C76.8035 396.658 72.8879 399.572 71.4529 401.517C71.3681 401.631 70.5887 402.979 70.1116 403.837C70.3154 403.29 70.5193 402.761 70.7231 402.195C71.1326 401.079 71.5088 399.954 71.9174 398.744C72.0942 398.153 72.2728 397.555 72.4532 396.953C72.6444 396.358 72.7716 395.706 72.9348 395.078C73.2839 393.613 73.5662 392.112 73.817 390.594C74.7948 390.949 78.2864 392.164 80.0958 392.037C81.8962 391.911 84.1548 391.249 85.1975 389.648C86.2186 388.081 85.8542 385.899 84.1214 385.005C81.7158 383.765 77.4033 386.051 75.6913 387.756C75.5849 387.861 74.4926 389.223 73.9081 389.983C74.0515 389.069 74.1994 388.157 74.3149 387.227C74.6477 384.544 74.9012 381.817 75.1664 379.098C75.2467 378.266 75.3378 377.437 75.4253 376.606C75.7716 376.737 79.8911 378.27 81.917 378.128C83.7173 378.002 85.976 377.34 87.0187 375.739C88.0397 374.172 87.6753 371.989 85.9426 371.096C83.5369 369.856 79.2254 372.142 77.5125 373.847C77.3835 373.975 75.8158 375.937 75.4415 376.455C75.6345 374.626 75.8438 372.806 76.1234 371.02C76.505 368.556 77.0164 366.158 77.683 363.873C77.8444 363.934 82.1361 365.553 84.2107 365.408C86.0111 365.282 88.2706 364.62 89.3124 363.019C90.3335 361.451 89.9691 359.269 88.2364 358.376C85.8307 357.136 81.5192 359.422 79.8063 361.127C79.6719 361.261 77.986 363.372 77.7073 363.776C77.7479 363.64 77.7741 363.496 77.8156 363.36C78.5588 360.929 79.5835 358.667 80.6469 356.597C81.2621 355.393 81.9188 354.276 82.5808 353.204C83.3493 353.587 86.8807 355.302 88.7622 355.378C90.5662 355.45 92.8835 355.04 94.0958 353.564C95.2828 352.118 95.1601 349.909 93.5365 348.831C91.2815 347.334 86.7445 349.133 84.8548 350.639C84.7519 350.722 83.7994 351.67 83.1157 352.37C83.4215 351.891 83.7291 351.391 84.0312 350.937C85.1633 349.232 86.3052 347.74 87.3272 346.428C87.9144 345.687 88.4592 345.027 88.9769 344.416C89.9267 344.399 93.7566 344.283 95.4307 343.497C97.0642 342.73 98.9332 341.299 99.3283 339.429C99.7152 337.599 98.5886 335.695 96.6502 335.487C93.9596 335.196 90.762 338.885 89.7788 341.092C89.694 341.283 88.7081 344.419 88.7577 344.418C88.7577 344.418 88.8037 344.418 88.8154 344.417C88.3058 344.996 87.7673 345.622 87.1909 346.317C86.1383 347.611 84.9603 349.081 83.7877 350.768C82.6106 352.451 81.3785 354.312 80.2582 356.39C79.1325 358.471 78.0546 360.718 77.2437 363.176C77.2347 363.204 77.2284 363.234 77.2193 363.262C77.2338 362.469 77.1986 360.251 77.176 360.082C76.8648 357.685 74.857 353.236 72.1952 352.745C70.2785 352.39 68.6539 353.892 68.5015 355.757C68.3455 357.662 69.7264 359.567 71.0722 360.77C72.5903 362.126 76.8044 363.439 77.14 363.543C76.3886 365.89 75.8086 368.362 75.3594 370.894C75.1014 372.342 74.8859 373.808 74.6892 375.281C74.6793 374.596 74.6658 373.982 74.654 373.897C74.3438 371.5 72.335 367.052 69.6732 366.56C67.7556 366.205 66.132 367.707 65.9795 369.572C65.8235 371.476 67.2044 373.382 68.5502 374.584C69.9158 375.804 73.4869 376.996 74.4349 377.299C74.3654 377.865 74.2896 378.429 74.222 378.996C73.8973 381.712 73.5852 384.423 73.1973 387.074C73.0611 388.008 72.8924 388.923 72.7274 389.839C72.7175 389.23 72.7048 388.717 72.6949 388.639C72.3837 386.241 70.3759 381.794 67.715 381.302C65.7973 380.948 64.1728 382.449 64.0204 384.315C63.8643 386.218 65.2453 388.125 66.592 389.327C67.8954 390.492 71.1814 391.622 72.307 391.986C72.1095 392.919 71.9138 393.854 71.6802 394.749C71.507 395.356 71.3825 395.953 71.175 396.554C70.9811 397.152 70.7899 397.746 70.6005 398.333C70.1937 399.45 69.7814 400.606 69.3575 401.685C69.068 402.44 68.7784 403.152 68.4898 403.87C68.6359 402.942 68.884 401.119 68.8876 400.964C68.9245 399.359 68.3545 396.749 67.2198 394.914C67.227 394.677 67.2135 394.441 67.1756 394.206C66.8788 392.359 65.1434 390.987 63.2591 391.489C60.6442 392.186 58.9854 396.776 58.8618 399.19C58.8546 399.332 58.9475 400.885 59.0224 401.865C58.8907 401.296 58.7698 400.742 58.6264 400.158C58.3522 399.002 58.0437 397.856 57.7181 396.621C57.5395 396.03 57.3591 395.434 57.1769 394.831C57.0091 394.23 56.7548 393.616 56.5446 393.002C56.0268 391.588 55.4342 390.18 54.8055 388.774C55.8185 388.532 59.4003 387.619 60.839 386.515C62.2714 385.416 63.7895 383.618 63.7759 381.708C63.7624 379.837 62.2561 378.218 60.3168 378.428C57.6261 378.721 55.2908 383.007 54.8028 385.374C54.7722 385.522 54.6134 387.259 54.544 388.215C54.1597 387.373 53.78 386.531 53.3632 385.692C52.1609 383.27 50.8692 380.856 49.5893 378.443C49.1969 377.703 48.8154 376.963 48.4302 376.222C48.7919 376.139 53.0728 375.146 54.6847 373.909C56.1161 372.811 57.6351 371.013 57.6216 369.103C57.6081 367.232 56.1008 365.613 54.1624 365.824C51.4718 366.116 49.1365 370.402 48.6485 372.769C48.6115 372.948 48.386 375.448 48.3598 376.087C47.5129 374.456 46.683 372.822 45.9308 371.178C44.8899 368.911 43.9942 366.631 43.2888 364.356C43.4575 364.318 47.9305 363.301 49.5812 362.035C51.0135 360.937 52.5325 359.139 52.5181 357.229C52.5045 355.358 50.9973 353.739 49.0589 353.95C46.3682 354.242 44.0339 358.528 43.545 360.895C43.5062 361.081 43.2654 363.772 43.2563 364.262C43.2148 364.127 43.1562 363.992 43.1165 363.856C42.3958 361.418 42.0026 358.967 41.7473 356.653C41.5958 355.309 41.5272 354.017 41.4884 352.756C42.3408 352.652 46.232 352.134 47.843 351.159C49.3872 350.224 51.0947 348.604 51.2904 346.704C51.4826 344.843 50.162 343.068 48.2128 343.064C45.5059 343.059 42.7151 347.063 41.9692 349.362C41.9286 349.488 41.6571 350.804 41.4731 351.765C41.4641 351.196 41.4442 350.61 41.4469 350.065C41.4505 348.018 41.5795 346.144 41.7085 344.486C41.7888 343.543 41.8808 342.693 41.9746 341.897C42.7575 341.359 45.8875 339.149 46.8499 337.57C47.7898 336.028 48.5583 333.805 47.8565 332.028C47.1692 330.288 45.1794 329.321 43.4485 330.215C41.0437 331.458 40.4114 336.299 40.8092 338.682C40.8444 338.887 41.7518 342.047 41.7933 342.02C41.7933 342.02 41.8312 341.994 41.8402 341.988C41.7338 342.751 41.63 343.571 41.5335 344.468C41.3684 346.127 41.198 348.003 41.1502 350.058C41.0969 352.111 41.096 354.343 41.308 356.694C41.5173 359.05 41.8573 361.518 42.5374 364.017C42.5447 364.045 42.5573 364.074 42.5645 364.102C42.1388 363.433 40.8859 361.602 40.7731 361.473C39.1919 359.645 35.0626 357.043 32.5712 358.101C30.7772 358.863 30.2504 361.012 31.1524 362.651C32.0733 364.326 34.276 365.154 36.062 365.414Z" fill="#263238"/>
<path d="M82.4716 352.7C82.514 352.726 83.3357 349.543 83.3646 349.336C83.6974 346.942 82.9344 342.121 80.4981 340.944C78.7428 340.096 76.78 341.116 76.1405 342.874C75.4874 344.669 76.3155 346.872 77.2969 348.387C78.4469 350.166 82.468 352.697 82.4716 352.7Z" fill="#263238"/>
<path d="M162.536 382.379C163.432 382.771 165.625 382.721 165.627 382.721C165.65 382.72 165.155 381.286 165.114 381.198C164.633 380.192 163.111 378.53 161.873 378.697C160.981 378.818 160.486 379.71 160.687 380.55C160.892 381.409 161.772 382.046 162.536 382.379Z" fill="#263238"/>
<path d="M163.293 388.731C164.223 388.866 166.18 388.299 166.335 388.253C166.644 389.348 167.05 390.447 167.522 391.537C167.791 392.16 168.081 392.78 168.381 393.397C168.202 393.135 168.041 392.903 168.015 392.873C167.285 392.029 165.378 390.828 164.229 391.317C163.4 391.669 163.158 392.66 163.574 393.417C163.999 394.19 165.016 394.571 165.84 394.692C166.676 394.814 168.355 394.364 168.798 394.238C168.915 394.474 169.029 394.711 169.148 394.946C169.714 396.074 170.284 397.197 170.81 398.316C170.996 398.71 171.164 399.106 171.333 399.501C171.174 399.269 171.038 399.074 171.015 399.047C170.285 398.204 168.379 397.002 167.229 397.491C166.4 397.843 166.157 398.834 166.574 399.591C166.999 400.364 168.016 400.746 168.84 400.866C169.638 400.983 171.191 400.581 171.717 400.435C171.879 400.845 172.041 401.254 172.179 401.658C172.268 401.936 172.371 402.198 172.444 402.482C172.523 402.761 172.599 403.038 172.676 403.313C172.804 403.846 172.94 404.397 173.051 404.921C173.132 405.284 173.202 405.632 173.273 405.983C173.093 405.588 172.725 404.823 172.686 404.763C172.093 403.819 170.39 402.343 169.18 402.651C168.308 402.874 167.918 403.818 168.215 404.629C168.518 405.457 169.465 405.989 170.261 406.232C171.139 406.5 173.081 406.256 173.324 406.223C173.44 406.803 173.547 407.369 173.641 407.905C173.691 408.188 173.734 408.454 173.778 408.722H174.551C174.494 408.413 174.434 408.099 174.368 407.768C174.253 407.178 174.117 406.551 173.971 405.908C174.118 405.85 174.946 405.514 175.68 405.104C176.319 405.797 177.957 406.607 178.169 406.709C177.947 407.258 177.725 407.789 177.506 408.287C177.441 408.438 177.377 408.578 177.313 408.722H178.127C178.148 408.673 178.168 408.626 178.188 408.576C178.417 408.02 178.65 407.421 178.885 406.804C179.119 406.854 181.042 407.243 181.938 407.041C182.751 406.857 183.735 406.397 184.099 405.595C184.455 404.808 184.136 403.838 183.283 403.552C182.098 403.154 180.291 404.499 179.629 405.396C179.59 405.449 179.23 406.071 179.01 406.467C179.104 406.214 179.199 405.97 179.292 405.709C179.482 405.194 179.655 404.675 179.843 404.116C179.925 403.843 180.008 403.568 180.091 403.289C180.179 403.015 180.238 402.714 180.313 402.424C180.475 401.748 180.605 401.055 180.72 400.354C181.171 400.518 182.783 401.079 183.618 401.02C184.449 400.961 185.492 400.656 185.973 399.916C186.445 399.193 186.277 398.186 185.476 397.773C184.366 397.201 182.375 398.257 181.585 399.043C181.536 399.092 181.032 399.721 180.762 400.072C180.828 399.649 180.896 399.229 180.949 398.8C181.103 397.561 181.22 396.303 181.343 395.047C181.38 394.663 181.422 394.281 181.462 393.897C181.621 393.958 183.523 394.666 184.458 394.6C185.289 394.541 186.332 394.237 186.813 393.497C187.285 392.774 187.116 391.766 186.316 391.354C185.206 390.781 183.216 391.836 182.425 392.624C182.365 392.683 181.642 393.588 181.469 393.828C181.558 392.984 181.655 392.144 181.784 391.32C181.96 390.182 182.196 389.075 182.503 388.02C182.577 388.048 184.559 388.796 185.517 388.729C186.348 388.67 187.39 388.365 187.872 387.626C188.343 386.902 188.175 385.895 187.375 385.483C186.265 384.91 184.275 385.966 183.484 386.753C183.422 386.815 182.644 387.789 182.515 387.976C182.534 387.914 182.546 387.846 182.565 387.784C182.908 386.662 183.381 385.618 183.872 384.662C184.156 384.106 184.459 383.59 184.765 383.095C185.119 383.272 186.749 384.064 187.618 384.098C188.45 384.131 189.52 383.942 190.079 383.261C190.627 382.594 190.571 381.574 189.821 381.076C188.78 380.385 186.686 381.216 185.814 381.911C185.766 381.949 185.327 382.386 185.011 382.71C185.153 382.489 185.294 382.258 185.434 382.049C185.956 381.262 186.484 380.573 186.956 379.967C187.226 379.624 187.478 379.32 187.717 379.038C188.155 379.031 189.923 378.977 190.696 378.614C191.45 378.259 192.313 377.599 192.495 376.736C192.673 375.891 192.154 375.012 191.259 374.916C190.017 374.782 188.541 376.484 188.088 377.503C188.049 377.591 187.593 379.039 187.617 379.039C187.617 379.039 187.639 379.039 187.643 379.039C187.408 379.306 187.159 379.594 186.893 379.916C186.407 380.513 185.864 381.191 185.322 381.969C184.779 382.746 184.21 383.606 183.693 384.564C183.174 385.525 182.676 386.562 182.301 387.697C182.297 387.71 182.294 387.724 182.29 387.737C182.296 387.371 182.28 386.347 182.27 386.268C182.126 385.162 181.199 383.109 179.971 382.881C179.086 382.718 178.336 383.411 178.266 384.272C178.194 385.152 178.831 386.031 179.453 386.586C180.154 387.212 182.099 387.818 182.254 387.866C181.906 388.95 181.639 390.09 181.432 391.259C181.313 391.927 181.214 392.604 181.122 393.284C181.118 392.967 181.112 392.684 181.106 392.645C180.963 391.538 180.036 389.485 178.807 389.258C177.922 389.093 177.173 389.787 177.102 390.648C177.03 391.526 177.668 392.406 178.288 392.961C178.919 393.524 180.567 394.074 181.005 394.214C180.973 394.475 180.938 394.735 180.907 394.997C180.757 396.251 180.613 397.502 180.434 398.726C180.371 399.157 180.294 399.579 180.218 400.002C180.213 399.722 180.207 399.484 180.202 399.448C180.059 398.342 179.132 396.289 177.903 396.061C177.018 395.898 176.268 396.591 176.198 397.452C176.125 398.331 176.763 399.211 177.385 399.766C177.986 400.303 179.502 400.825 180.023 400.993C179.932 401.425 179.842 401.856 179.733 402.269C179.653 402.549 179.596 402.825 179.5 403.102C179.41 403.378 179.322 403.653 179.235 403.923C179.047 404.439 178.857 404.972 178.661 405.471C178.527 405.819 178.394 406.148 178.26 406.479C178.328 406.051 178.443 405.209 178.444 405.138C178.462 404.398 178.198 403.193 177.674 402.346C177.678 402.236 177.671 402.127 177.653 402.019C177.516 401.167 176.715 400.533 175.846 400.765C174.639 401.086 173.873 403.206 173.816 404.319C173.813 404.385 173.856 405.102 173.89 405.554C173.829 405.292 173.774 405.035 173.708 404.767C173.582 404.233 173.439 403.704 173.289 403.134C173.207 402.862 173.123 402.586 173.039 402.308C172.961 402.031 172.844 401.747 172.747 401.463C172.508 400.81 172.235 400.161 171.945 399.512C172.412 399.401 174.065 398.979 174.729 398.47C175.39 397.963 176.091 397.133 176.085 396.251C176.079 395.387 175.383 394.64 174.488 394.737C173.246 394.872 172.168 396.851 171.943 397.943C171.929 398.011 171.855 398.813 171.823 399.254C171.645 398.866 171.47 398.477 171.278 398.09C170.723 396.971 170.126 395.857 169.536 394.744C169.355 394.403 169.179 394.061 169.001 393.719C169.168 393.681 171.145 393.222 171.889 392.652C172.55 392.145 173.251 391.315 173.244 390.433C173.238 389.57 172.543 388.822 171.648 388.919C170.406 389.054 169.328 391.033 169.102 392.125C169.085 392.207 168.982 393.362 168.969 393.657C168.577 392.903 168.195 392.149 167.848 391.391C167.367 390.344 166.954 389.292 166.628 388.242C166.706 388.224 168.77 387.755 169.533 387.17C170.194 386.663 170.895 385.834 170.888 384.951C170.882 384.088 170.187 383.34 169.292 383.438C168.05 383.573 166.972 385.551 166.746 386.644C166.728 386.729 166.617 387.971 166.613 388.198C166.594 388.135 166.567 388.073 166.548 388.01C166.215 386.884 166.034 385.753 165.916 384.685C165.846 384.065 165.814 383.469 165.796 382.887C166.189 382.839 167.986 382.6 168.729 382.149C169.442 381.718 170.23 380.97 170.32 380.092C170.409 379.234 169.8 378.414 168.899 378.413C167.65 378.41 166.361 380.258 166.018 381.32C165.999 381.378 165.873 381.986 165.788 382.429C165.784 382.167 165.775 381.896 165.777 381.645C165.779 380.7 165.838 379.835 165.898 379.069C165.935 378.634 165.977 378.241 166.02 377.874C166.382 377.625 167.826 376.606 168.271 375.877C168.705 375.166 169.059 374.139 168.735 373.319C168.418 372.516 167.5 372.07 166.7 372.483C165.591 373.057 165.299 375.291 165.482 376.391C165.498 376.486 165.917 377.945 165.936 377.932C165.936 377.932 165.954 377.92 165.958 377.917C165.909 378.268 165.861 378.647 165.816 379.061C165.741 379.827 165.661 380.693 165.64 381.642C165.615 382.59 165.614 383.62 165.713 384.705C165.809 385.793 165.966 386.932 166.28 388.085C166.284 388.098 166.289 388.111 166.293 388.124C166.096 387.815 165.518 386.97 165.466 386.911C164.736 386.067 162.83 384.866 161.68 385.355C160.852 385.706 160.608 386.699 161.025 387.455C161.452 388.228 162.468 388.611 163.293 388.731Z" fill="#263238"/>
<path d="M184.715 382.862C184.734 382.873 185.114 381.404 185.127 381.309C185.281 380.204 184.929 377.979 183.804 377.436C182.994 377.045 182.088 377.515 181.793 378.327C181.491 379.156 181.873 380.173 182.327 380.872C182.857 381.693 184.713 382.861 184.715 382.862Z" fill="#263238"/>
<path d="M202.334 52.5635C196.873 55.7557 194.813 61.938 193.824 64.9019C192.459 68.9997 187.677 62.1698 178.116 65.5847C168.555 68.9997 167.188 76.5125 165.14 78.5609C163.092 80.6094 149.432 86.0737 149.432 86.0737H286.494" stroke="#263238" stroke-miterlimit="10" stroke-linecap="round" stroke-linejoin="round"/>
<path d="M293.324 86.075H309.93C309.93 86.075 312.662 71.0495 306.515 63.5367C300.368 56.024 286.709 66.9517 282.611 56.024C282.611 56.024 270.318 38.2672 255.292 36.9007C240.267 35.5351 234.12 47.1456 229.339 53.2918C224.558 59.439 221.826 50.5597 210.216 50.5597" stroke="#263238" stroke-miterlimit="10" stroke-linecap="round" stroke-linejoin="round"/>
<path d="M227.728 73.877C224.943 76.4702 224.558 79.9276 224.558 79.9276" stroke="#263238" stroke-miterlimit="10" stroke-linecap="round" stroke-linejoin="round"/>
<path d="M279.879 62.1711C279.879 62.1711 270.318 52.6099 259.39 53.2927C248.462 53.9755 252.56 66.9517 247.779 71.0495C242.999 75.1473 237.535 69.6839 231.388 71.7323" stroke="#263238" stroke-miterlimit="10" stroke-linecap="round" stroke-linejoin="round"/>
<path d="M65.3382 95.2197C61.7708 97.3052 60.425 101.344 59.7791 103.281C58.8871 105.958 55.7634 101.496 49.5162 103.727C43.2689 105.958 42.3769 110.867 41.0383 112.205C39.6997 113.544 30.7753 117.114 30.7753 117.114H120.322" stroke="#263238" stroke-miterlimit="10" stroke-linecap="round" stroke-linejoin="round"/>
<path d="M124.784 117.113H135.634C135.634 117.113 137.419 107.296 133.403 102.388C129.387 97.479 120.463 104.618 117.786 97.4799C117.786 97.4799 109.754 85.8784 99.938 84.9863C90.1215 84.0943 86.1058 91.6792 82.9822 95.6949C79.8586 99.7106 78.0744 93.9098 70.4886 93.9098" stroke="#263238" stroke-miterlimit="10" stroke-linecap="round" stroke-linejoin="round"/>
<path d="M81.9287 109.145C80.1093 110.838 79.8577 113.098 79.8577 113.098" stroke="#263238" stroke-miterlimit="10" stroke-linecap="round" stroke-linejoin="round"/>
<path d="M116.001 101.496C116.001 101.496 109.754 95.2492 102.615 95.6957C95.4758 96.1422 98.1529 104.62 95.0293 107.297C91.9057 109.974 88.3364 106.405 84.3207 107.744" stroke="#263238" stroke-miterlimit="10" stroke-linecap="round" stroke-linejoin="round"/>
<path d="M247.671 131.168C245.183 132.622 244.244 135.439 243.794 136.789C243.172 138.656 240.994 135.544 236.638 137.1C232.282 138.656 231.66 142.079 230.726 143.012C229.793 143.946 223.57 146.435 223.57 146.435H286.015" stroke="#263238" stroke-miterlimit="10" stroke-linecap="round" stroke-linejoin="round"/>
<path d="M289.125 146.435H296.69C296.69 146.435 297.935 139.59 295.134 136.166C292.334 132.743 286.111 137.722 284.244 132.743C284.244 132.743 278.643 124.653 271.798 124.031C264.953 123.409 262.152 128.698 259.974 131.499C257.795 134.299 256.55 130.254 251.261 130.254" stroke="#263238" stroke-miterlimit="10" stroke-linecap="round" stroke-linejoin="round"/>
<path d="M259.24 140.878C257.971 142.06 257.796 143.634 257.796 143.634" stroke="#263238" stroke-miterlimit="10" stroke-linecap="round" stroke-linejoin="round"/>
<path d="M283 135.544C283 135.544 278.644 131.188 273.665 131.498C268.686 131.809 270.553 137.721 268.376 139.588C266.197 141.455 263.709 138.966 260.908 139.899" stroke="#263238" stroke-miterlimit="10" stroke-linecap="round" stroke-linejoin="round"/>
<path d="M93.4418 327.339V289.721H47.6942V267.414L87.5815 174.218H118.017V268.927H133.707V289.721H118.017V327.339H93.4418ZM69.6227 268.927H93.4418V202.385L69.6227 268.927Z" fill="#263238" stroke="#263238" stroke-miterlimit="10" stroke-linecap="round" stroke-linejoin="round"/>
<path d="M187.393 329.608C178.444 329.608 171.042 327.717 165.181 323.937C159.321 320.156 154.909 314.928 151.949 308.247C148.986 301.568 147.507 293.88 147.507 285.185V217.319C147.507 208.372 148.925 200.526 151.76 193.784C154.596 187.043 158.943 181.78 164.804 177.999C170.664 174.218 178.193 172.328 187.393 172.328C196.591 172.328 204.124 174.218 209.983 177.999C215.843 181.78 220.192 187.043 223.027 193.784C225.863 200.526 227.281 208.372 227.281 217.319V285.184C227.281 293.879 225.798 301.568 222.838 308.246C219.875 314.928 215.466 320.155 209.605 323.936C203.746 327.717 196.341 329.608 187.393 329.608ZM187.393 307.113C191.298 307.113 194.199 305.916 196.089 303.521C197.979 301.128 199.237 298.227 199.87 294.825C200.499 291.423 200.815 288.084 200.815 284.806V217.697C200.815 214.17 200.532 210.673 199.964 207.206C199.397 203.741 198.168 200.811 196.278 198.415C194.387 196.023 191.425 194.823 187.393 194.823C183.359 194.823 180.399 196.023 178.509 198.415C176.619 200.811 175.389 203.741 174.822 207.206C174.255 210.673 173.971 214.17 173.971 217.697V284.806C173.971 288.084 174.317 291.423 175.011 294.825C175.703 298.227 176.997 301.128 178.886 303.521C180.777 305.915 183.613 307.113 187.393 307.113Z" fill="#263238" stroke="#263238" stroke-miterlimit="10" stroke-linecap="round" stroke-linejoin="round"/>
<path d="M289.664 327.339V289.721H243.916V267.414L283.803 174.218H314.238V268.927H329.928V289.721H314.238V327.339H289.664ZM265.844 268.927H289.664V202.385L265.844 268.927Z" fill="#263238" stroke="#263238" stroke-miterlimit="10" stroke-linecap="round" stroke-linejoin="round"/>
<path d="M104.84 327.339V289.721H59.0927V267.414L98.9801 174.218H129.415V268.927H145.106V289.721H129.415V327.339H104.84ZM81.0212 268.927H104.84V202.385L81.0212 268.927Z" fill="white" stroke="#263238" stroke-miterlimit="10" stroke-linecap="round" stroke-linejoin="round"/>
<path d="M198.792 329.608C189.842 329.608 182.44 327.717 176.58 323.937C170.72 320.156 166.307 314.928 163.348 308.247C160.385 301.568 158.905 293.88 158.905 285.185V217.319C158.905 208.372 160.323 200.526 163.159 193.784C165.995 187.043 170.343 181.78 176.203 177.999C182.063 174.218 189.592 172.328 198.793 172.328C207.991 172.328 215.523 174.218 221.383 177.999C227.244 181.78 231.592 187.043 234.427 193.784C237.263 200.526 238.681 208.372 238.681 217.319V285.184C238.681 293.879 237.198 301.568 234.239 308.246C231.276 314.928 226.867 320.155 221.005 323.936C215.144 327.717 207.739 329.608 198.792 329.608ZM198.792 307.113C202.697 307.113 205.597 305.916 207.488 303.521C209.379 301.128 210.636 298.227 211.268 294.825C211.898 291.423 212.214 288.084 212.214 284.806V217.697C212.214 214.17 211.93 210.673 211.363 207.206C210.796 203.741 209.567 200.811 207.676 198.415C205.786 196.023 202.824 194.823 198.792 194.823C194.757 194.823 191.798 196.023 189.907 198.415C188.016 200.811 186.788 203.741 186.221 207.206C185.653 210.673 185.37 214.17 185.37 217.697V284.806C185.37 288.084 185.715 291.423 186.41 294.825C187.101 298.227 188.395 301.128 190.285 303.521C192.176 305.915 195.011 307.113 198.792 307.113Z" fill="white" stroke="#263238" stroke-miterlimit="10" stroke-linecap="round" stroke-linejoin="round"/>
<path d="M301.061 327.339V289.721H255.314V267.414L295.201 174.218H325.636V268.927H341.326V289.721H325.636V327.339H301.061ZM277.241 268.927H301.061V202.385L277.241 268.927Z" fill="white" stroke="#263238" stroke-miterlimit="10" stroke-linecap="round" stroke-linejoin="round"/>
<path d="M97.885 166.818C95.7608 166.818 94.0696 166.423 92.8095 165.633C91.5503 164.842 90.6483 163.706 90.1053 162.225C89.5623 160.743 89.2908 158.989 89.2908 156.964V145.74C89.2908 143.715 89.5623 141.979 90.1053 140.535C90.6483 139.09 91.5503 137.985 92.8095 137.22C94.0696 136.455 95.7599 136.071 97.885 136.071C100.058 136.071 101.768 136.455 103.016 137.22C104.262 137.985 105.164 139.09 105.72 140.535C106.275 141.98 106.553 143.716 106.553 145.74V157.002C106.553 159.003 106.275 160.738 105.72 162.207C105.164 163.677 104.262 164.813 103.016 165.615C101.768 166.416 100.058 166.818 97.885 166.818ZM97.885 162.78C98.7988 162.78 99.4717 162.582 99.9046 162.187C100.337 161.792 100.627 161.249 100.775 160.557C100.923 159.866 100.997 159.112 100.997 158.297V144.479C100.997 143.64 100.923 142.886 100.775 142.219C100.627 141.553 100.337 141.029 99.9046 140.645C99.4726 140.263 98.7988 140.071 97.885 140.071C97.02 140.071 96.3661 140.262 95.9214 140.645C95.4767 141.029 95.1808 141.553 95.032 142.219C94.8832 142.886 94.8101 143.64 94.8101 144.479V158.297C94.8101 159.113 94.8778 159.866 95.014 160.557C95.1493 161.249 95.4397 161.792 95.8844 162.187C96.3291 162.582 96.9957 162.78 97.885 162.78Z" fill="#E23D21"/>
<path d="M118.741 166.818C116.617 166.818 114.926 166.423 113.665 165.633C112.406 164.842 111.504 163.706 110.961 162.225C110.418 160.743 110.147 158.989 110.147 156.964V145.74C110.147 143.715 110.418 141.979 110.961 140.535C111.504 139.09 112.406 137.985 113.665 137.22C114.925 136.455 116.616 136.071 118.741 136.071C120.914 136.071 122.624 136.455 123.873 137.22C125.119 137.985 126.021 139.09 126.577 140.535C127.132 141.98 127.41 143.716 127.41 145.74V157.002C127.41 159.003 127.132 160.738 126.577 162.207C126.021 163.677 125.119 164.813 123.873 165.615C122.624 166.416 120.914 166.818 118.741 166.818ZM118.741 162.78C119.655 162.78 120.328 162.582 120.761 162.187C121.193 161.792 121.483 161.249 121.631 160.557C121.779 159.866 121.853 159.112 121.853 158.297V144.479C121.853 143.64 121.779 142.886 121.631 142.219C121.483 141.553 121.193 141.029 120.761 140.645C120.328 140.263 119.655 140.071 118.741 140.071C117.876 140.071 117.222 140.262 116.777 140.645C116.333 141.029 116.037 141.553 115.888 142.219C115.74 142.886 115.665 143.64 115.665 144.479V158.297C115.665 159.113 115.733 159.866 115.869 160.557C116.004 161.249 116.295 161.792 116.74 162.187C117.185 162.582 117.852 162.78 118.741 162.78Z" fill="#E23D21"/>
<path d="M131.448 166.41V136.403H140.265C142.068 136.403 143.531 136.737 144.655 137.404C145.779 138.07 146.606 139.04 147.137 140.312C147.668 141.584 147.933 143.121 147.933 144.924C147.933 146.875 147.6 148.45 146.933 149.646C146.267 150.845 145.334 151.715 144.136 152.258C142.938 152.802 141.525 153.073 139.895 153.073H136.931V166.409H131.448V166.41ZM136.93 149.222H139.005C139.992 149.222 140.764 149.08 141.32 148.796C141.876 148.513 142.258 148.055 142.468 147.425C142.677 146.795 142.783 145.949 142.783 144.888C142.783 143.802 142.703 142.918 142.542 142.239C142.382 141.56 142.036 141.06 141.505 140.739C140.974 140.418 140.14 140.258 139.005 140.258H136.93V149.222Z" fill="#E23D21"/>
<path d="M158.379 166.818C156.576 166.818 155.069 166.466 153.86 165.762C152.649 165.058 151.735 164.027 151.118 162.669C150.5 161.31 150.155 159.643 150.081 157.668L154.786 156.742C154.835 157.902 154.977 158.927 155.212 159.816C155.446 160.706 155.804 161.391 156.286 161.872C156.768 162.354 157.403 162.595 158.194 162.595C159.083 162.595 159.713 162.329 160.083 161.798C160.454 161.267 160.639 160.594 160.639 159.779C160.639 158.471 160.343 157.396 159.75 156.557C159.157 155.717 158.367 154.877 157.379 154.037L153.601 150.704C152.538 149.791 151.693 148.771 151.062 147.648C150.433 146.524 150.118 145.135 150.118 143.48C150.118 141.109 150.809 139.282 152.193 137.998C153.575 136.714 155.465 136.071 157.861 136.071C159.269 136.071 160.441 136.288 161.38 136.72C162.318 137.153 163.066 137.752 163.622 138.517C164.178 139.282 164.591 140.153 164.863 141.128C165.135 142.104 165.308 143.135 165.382 144.221L160.714 145.036C160.664 144.098 160.56 143.258 160.399 142.517C160.238 141.776 159.954 141.196 159.547 140.775C159.139 140.356 158.54 140.146 157.75 140.146C156.935 140.146 156.311 140.412 155.879 140.942C155.447 141.473 155.231 142.135 155.231 142.924C155.231 143.937 155.44 144.77 155.86 145.424C156.28 146.079 156.885 146.752 157.675 147.444L161.416 150.741C162.651 151.778 163.708 152.995 164.584 154.39C165.461 155.785 165.899 157.471 165.899 159.447C165.899 160.879 165.585 162.151 164.955 163.262C164.325 164.373 163.449 165.244 162.325 165.874C161.201 166.503 159.886 166.818 158.379 166.818Z" fill="#E23D21"/>
<path d="M168.345 166.41V161.521H173.234V166.41H168.345ZM169.901 159.372L168.382 136.44H173.419L171.642 159.372H169.901Z" fill="#E23D21"/>
<path d="M303.243 345.917V352.366H306.603V348.583C306.603 346.924 307.948 345.579 309.607 345.579H320.633C322.292 345.579 323.637 346.924 323.637 348.583V352.366H326.997V345.917C326.997 344.258 325.652 342.913 323.993 342.913H306.247C304.588 342.913 303.243 344.258 303.243 345.917Z" fill="#263238" stroke="#263238" stroke-miterlimit="10" stroke-linecap="round" stroke-linejoin="round"/>
<path d="M338.662 350.609H275.036C272.694 350.609 270.795 352.508 270.795 354.851V405.99C270.795 407.499 272.017 408.721 273.525 408.721H340.174C341.682 408.721 342.904 407.499 342.904 405.99V354.851C342.903 352.509 341.005 350.609 338.662 350.609Z" fill="#263238" stroke="#263238" stroke-miterlimit="10" stroke-linecap="round" stroke-linejoin="round"/>
<path d="M347.48 350.609H283.854C281.511 350.609 279.613 352.508 279.613 354.851V405.99C279.613 407.499 280.835 408.721 282.343 408.721H348.992C350.5 408.721 351.722 407.499 351.722 405.99V354.851C351.721 352.509 349.823 350.609 347.48 350.609Z" fill="#4C636F" stroke="#263238" stroke-miterlimit="10" stroke-linecap="round" stroke-linejoin="round"/>
<path d="M369.821 236.468C369.821 236.468 351.686 290.946 350.118 300.808C348.552 310.67 349.559 322.914 350.502 329.109C351.444 335.303 361.1 388.803 361.1 388.803C361.1 388.803 358.71 387.997 358.535 389.726C358.36 391.455 358.963 398.771 358.963 398.771C358.963 398.771 356.458 402.28 349.863 406.099C343.269 409.919 340.062 411.072 342.031 412.32C344.001 413.567 352.42 414.016 355.858 413.505C359.295 412.993 368.542 411.914 370.045 411.663C371.548 411.412 376.099 412.384 377.547 409.762C378.994 407.141 377.946 399.188 378.311 396.377C378.677 393.565 376.631 389.086 376.617 388.439C376.601 387.792 374.795 327.324 374.795 327.324L375.937 312.307C375.937 312.307 375.601 326.609 377.246 328.204C378.891 329.798 396.046 389.493 396.046 389.493L394.382 392.119L396.458 397.892L394.82 401.596C394.82 401.596 387.013 408.894 383.822 410.693C380.63 412.493 377.408 413 379.167 414.467C380.925 415.936 398.155 415.1 398.155 415.1L416.18 411.444C416.18 411.444 418.91 408.362 418.419 405.785C417.927 403.209 415.555 393.995 415.555 393.995C415.555 393.995 416.134 381.907 415.477 381.491C414.821 381.075 411.482 376.626 411.226 374.906C410.97 373.187 409.096 339.423 407.115 333.745C405.133 328.069 402.673 319.188 402.673 319.188C402.673 319.188 404.07 317.776 404.161 316.254C404.252 314.732 403.807 311.958 403.807 311.958C403.807 311.958 422.628 262.979 423.491 260.177C424.353 257.374 428.233 242.286 428.233 236.251C428.233 230.216 427.801 225.689 427.801 225.689C427.801 225.689 413.144 232.371 398.272 233.018C383.399 233.665 370.25 232.803 370.25 232.803L369.821 236.468Z" fill="#263238" stroke="#263238" stroke-miterlimit="10" stroke-linecap="round" stroke-linejoin="round"/>
<path d="M414.87 238.408C414.87 238.408 414.87 253.066 422.199 255.867" stroke="white" stroke-miterlimit="10" stroke-linecap="round" stroke-linejoin="round"/>
<path d="M425.433 234.098C425.433 234.098 425.864 244.012 423.924 252.85" stroke="white" stroke-miterlimit="10" stroke-linecap="round" stroke-linejoin="round"/>
<path d="M411.376 279.023C409.368 283.298 407.83 286.616 407.757 286.906" stroke="white" stroke-miterlimit="10" stroke-linecap="round" stroke-linejoin="round"/>
<path d="M421.121 258.454C421.121 258.454 416.419 268.32 412.593 276.437" stroke="white" stroke-miterlimit="10" stroke-linecap="round" stroke-linejoin="round"/>
<path d="M377.815 298.826L385.772 264.705L377.365 257.376" stroke="white" stroke-miterlimit="10" stroke-linecap="round" stroke-linejoin="round"/>
<path d="M376.087 306.239L376.913 302.696" stroke="white" stroke-miterlimit="10" stroke-linecap="round" stroke-linejoin="round"/>
<path d="M334.707 158.389L313.121 167.788C313.121 167.788 326.003 140.981 326.525 139.414C327.047 137.847 319.387 124.618 319.561 124.096C319.736 123.573 326.351 115.566 326.525 113.825C326.699 112.084 330.355 105.991 327.569 105.644C324.784 105.296 309.988 119.048 309.639 122.53C309.291 126.011 316.255 137.848 316.951 138.893C317.647 139.937 281.091 179.104 280.395 185.371C279.698 191.638 282.658 195.641 287.881 196.338C293.103 197.034 334.185 182.934 340.452 181.193C346.719 179.452 348.807 182.238 348.807 182.238C348.807 182.238 368.478 206.085 369.871 209.045C371.263 212.004 370.567 222.971 369 226.279C367.433 229.586 365.692 235.33 366.563 236.201C367.433 237.071 368.073 238.143 370.683 238.84C373.295 239.536 391.455 241.771 401.726 240.205C411.997 238.638 424.183 233.241 426.967 231.153C429.752 229.064 430.101 226.627 430.101 223.493C430.101 220.36 428.012 217.574 426.619 214.441C425.226 211.307 416.001 182.585 412.171 173.358C408.341 164.133 409.559 157.169 395.111 148.988C380.663 140.807 363.716 142.522 363.716 142.522L334.707 158.389Z" fill="#0067D2" stroke="#263238" stroke-miterlimit="10" stroke-linecap="round" stroke-linejoin="round"/>
<path d="M312.256 180.917L312.077 183.629" stroke="#263238" stroke-miterlimit="10" stroke-linecap="round" stroke-linejoin="round"/>
<path d="M307.551 185.197L313.121 167.789L312.391 178.87" stroke="#263238" stroke-miterlimit="10" stroke-linecap="round" stroke-linejoin="round"/>
<path d="M307.029 152.296C307.029 152.296 307.9 158.911 316.429 159.259" stroke="#263238" stroke-miterlimit="10" stroke-linecap="round" stroke-linejoin="round"/>
<path d="M346.892 180.67C346.892 180.67 340.625 176.492 334.185 174.403L346.892 180.67Z" fill="white"/>
<path d="M346.892 180.67C346.892 180.67 340.625 176.492 334.185 174.403" stroke="#263238" stroke-miterlimit="10" stroke-linecap="round" stroke-linejoin="round"/>
<path d="M332.285 176.648C331.59 176.53 330.886 176.419 330.181 176.319" stroke="#263238" stroke-miterlimit="10" stroke-linecap="round" stroke-linejoin="round"/>
<path d="M344.629 179.451C344.629 179.451 340.192 178.152 334.73 177.091" stroke="#263238" stroke-miterlimit="10" stroke-linecap="round" stroke-linejoin="round"/>
<path d="M376.542 215.009C377.154 215.513 377.59 215.834 377.704 215.834" stroke="#263238" stroke-miterlimit="10" stroke-linecap="round" stroke-linejoin="round"/>
<path d="M369.871 209.045C369.871 209.045 372.941 211.896 375.244 213.902" stroke="#263238" stroke-miterlimit="10" stroke-linecap="round" stroke-linejoin="round"/>
<path d="M407.47 239.16L422.963 229.411" stroke="#263238" stroke-miterlimit="10" stroke-linecap="round" stroke-linejoin="round"/>
<path d="M416.296 201.156C414.548 208.232 411.16 220.287 407.123 226.105" stroke="#263238" stroke-miterlimit="10" stroke-linecap="round" stroke-linejoin="round"/>
<path d="M417.567 195.641C417.567 195.641 417.347 196.709 416.941 198.464" stroke="#263238" stroke-miterlimit="10" stroke-linecap="round" stroke-linejoin="round"/>
<path d="M417.567 204.867C417.567 204.867 414.26 219.315 411.648 223.319" stroke="#263238" stroke-miterlimit="10" stroke-linecap="round" stroke-linejoin="round"/>
<path d="M322.191 148.792C324.469 143.98 326.334 139.99 326.525 139.413C327.047 137.846 319.387 124.617 319.561 124.095C319.736 123.572 326.351 115.565 326.525 113.824C326.699 112.083 330.355 105.99 327.569 105.643C324.784 105.295 309.988 119.047 309.639 122.529C309.291 126.01 316.255 137.847 316.951 138.892C317.098 139.113 315.578 141.04 313.089 143.994C314.057 146.357 316.425 149.352 322.191 148.792Z" fill="white" stroke="#263238" stroke-miterlimit="10" stroke-linecap="round" stroke-linejoin="round"/>
<path d="M319.159 114.768C319.159 114.768 314.796 123.221 314.957 123.863" stroke="#263238" stroke-miterlimit="10" stroke-linecap="round" stroke-linejoin="round"/>
<path d="M315.919 114.873C315.919 114.873 310.942 121.938 311.263 123.061" stroke="#263238" stroke-miterlimit="10" stroke-linecap="round" stroke-linejoin="round"/>
<path d="M353.333 178.059L360.296 192.16L363.603 192.334L366.389 176.492L364.126 172.837L362.559 182.759L358.381 182.585L353.507 175.274L353.333 178.059Z" fill="#8A8A8A" stroke="#263238" stroke-miterlimit="10" stroke-linecap="round" stroke-linejoin="round"/>
<path d="M360.296 192.159L354.526 234.182L361.199 248.218L368.348 233.633L363.603 192.333L360.296 192.159Z" fill="#8A8A8A" stroke="#263238" stroke-miterlimit="10" stroke-linecap="round" stroke-linejoin="round"/>
<path d="M359.261 190.063L364.6 186.664L366.254 177.258L363.112 179.258L362.559 182.759L358.381 182.585L358.234 182.364L356.122 183.708L359.261 190.063Z" fill="#263238"/>
<path d="M363.603 192.333L363.611 192.286L363.543 192.33L363.603 192.333Z" fill="#263238"/>
<path d="M365.028 204.731L357.951 209.236L356.694 218.389L365.922 212.515L365.028 204.731Z" fill="#263238"/>
<path d="M364.493 200.078L363.603 192.334L363.543 192.33L359.959 194.611L358.703 203.765L364.493 200.078Z" fill="#263238"/>
<path d="M366.456 217.168L355.943 223.862L354.686 233.014L367.35 224.952L366.456 217.168Z" fill="#263238"/>
<path d="M365.477 239.49L368.348 233.634L367.885 229.604L355.959 237.197L359.008 243.61L365.477 239.49Z" fill="#263238"/>
<path d="M348.459 161.869C348.459 161.869 347.066 170.398 347.24 174.228C347.414 178.058 349.329 184.847 349.329 184.847L357.859 175.099L372.134 183.976C372.134 183.976 371.611 165.872 371.611 165.35C371.611 164.828 368.304 145.331 367.259 143.416C366.215 141.501 363.429 140.456 361.863 140.805C360.296 141.155 348.459 161.869 348.459 161.869Z" fill="#0067D2" stroke="#263238" stroke-miterlimit="10" stroke-linecap="round" stroke-linejoin="round"/>
<path d="M324.41 114.317C324.41 114.317 323.96 127.069 324.26 132.171C324.56 137.272 323.81 141.322 325.16 145.523C326.511 149.724 328.011 157.825 329.361 160.525C330.711 163.226 333.561 165.776 337.762 165.776C341.963 165.776 346.613 162.325 348.864 160.075C351.114 157.825 355.015 154.674 357.115 150.624C359.216 146.573 357.416 136.371 357.715 133.521C358.016 130.671 358.615 125.72 358.615 125.72C358.615 125.72 361.615 118.368 359.215 114.918C356.815 111.467 346.163 107.567 338.061 108.317C329.961 109.067 324.41 114.317 324.41 114.317Z" fill="white" stroke="#263238" stroke-miterlimit="10" stroke-linecap="round" stroke-linejoin="round"/>
<path d="M331.461 128.72L332.661 133.221C332.661 133.221 329.06 143.723 329.961 144.323C330.861 144.922 338.212 144.173 338.212 144.173" stroke="#263238" stroke-miterlimit="10" stroke-linecap="round" stroke-linejoin="round"/>
<path d="M337.312 124.069C337.312 124.069 337.162 125.72 337.762 126.019C338.362 126.319 344.213 128.569 345.113 128.269C346.014 127.969 344.813 126.769 344.063 126.469C343.313 126.17 337.012 122.719 337.312 124.069Z" fill="#263238" stroke="#263238" stroke-miterlimit="10" stroke-linecap="round" stroke-linejoin="round"/>
<path d="M331.461 126.47C331.461 126.47 326.66 129.17 325.76 129.32C324.86 129.47 326.36 127.519 326.36 127.519C326.36 127.519 329.961 123.469 330.861 124.068C331.761 124.67 331.461 126.47 331.461 126.47Z" fill="#263238" stroke="#263238" stroke-miterlimit="10" stroke-linecap="round" stroke-linejoin="round"/>
<path d="M339.112 132.47C339.112 132.47 341.663 135.17 345.113 133.07" stroke="#263238" stroke-miterlimit="10" stroke-linecap="round" stroke-linejoin="round"/>
<path d="M326.66 133.671C326.66 133.671 329.06 135.171 331.461 132.771" stroke="#263238" stroke-miterlimit="10" stroke-linecap="round" stroke-linejoin="round"/>
<path d="M357.715 133.521C357.988 130.937 358.504 126.638 358.599 125.856L355.615 124.22C355.615 124.22 356.516 135.322 355.315 141.472C354.115 147.623 352.015 149.573 349.614 150.473C347.214 151.374 346.014 150.173 346.014 150.173C346.014 150.173 340.313 144.772 335.212 144.622C330.76 144.491 327.337 149.388 326.538 150.636C327.486 154.493 328.457 158.718 329.361 160.524C330.711 163.225 333.561 165.775 337.762 165.775C341.963 165.775 346.613 162.325 348.864 160.074C351.114 157.824 355.015 154.673 357.115 150.623C359.215 146.573 357.415 136.371 357.715 133.521Z" fill="#263238" stroke="#263238" stroke-miterlimit="10" stroke-linecap="round" stroke-linejoin="round"/>
<path d="M342.413 154.674C342.413 154.674 339.262 150.173 336.262 149.424C333.261 148.673 330.111 154.524 331.161 155.574C332.211 156.624 333.711 152.724 336.562 153.925C339.412 155.124 341.062 157.075 342.413 154.674Z" fill="white" stroke="#263238" stroke-miterlimit="10" stroke-linecap="round" stroke-linejoin="round"/>
<path d="M323.96 106.367C323.96 106.367 319.459 105.016 316.608 106.516C313.758 108.016 312.408 111.317 312.408 111.317L318.259 111.767L320.96 113.117C320.96 113.117 319.759 113.117 319.159 114.768C318.559 116.418 318.109 118.369 318.109 118.369C318.109 118.369 320.21 117.168 323.51 116.719C326.811 116.269 333.262 114.319 333.262 114.319L334.012 119.27C334.012 119.27 337.763 116.869 340.764 115.969C343.764 115.069 345.564 113.119 345.564 113.119C345.564 113.119 353.366 116.12 353.215 117.469C353.065 118.82 350.365 122.12 351.265 123.17C352.165 124.22 354.565 126.47 354.565 126.47L363.566 131.571C363.566 131.571 366.867 126.47 368.518 118.37C370.168 110.269 362.666 101.567 356.366 99.1668C350.065 96.7666 345.414 97.6668 341.513 97.8165C337.613 97.9663 332.212 96.7666 332.212 96.7666L335.813 100.517C335.813 100.517 332.363 101.867 330.862 102.168C329.362 102.468 326.811 103.218 326.211 102.918C325.611 102.618 323.51 101.268 323.51 101.268C323.51 101.268 322.46 105.767 323.96 106.367Z" fill="#263238" stroke="#263238" stroke-miterlimit="10" stroke-linecap="round" stroke-linejoin="round"/>
<path d="M360.115 139.822C360.115 139.822 362.366 138.621 363.566 136.822C364.766 135.021 368.216 128.12 364.165 126.17C361.097 124.692 359.064 127.345 358.257 128.719C358.074 130.281 357.86 132.145 357.714 133.521C357.414 136.372 359.214 146.573 357.114 150.624C355.015 154.675 351.113 157.826 348.863 160.075C348 160.939 346.78 161.978 345.37 162.933L349.163 163.975C349.163 163.975 350.364 167.726 353.664 171.927C356.965 176.127 359.815 178.828 359.815 178.828C359.815 178.828 360.715 173.427 363.115 161.425C365.516 149.423 363.715 142.521 363.715 142.521L360.115 139.822Z" fill="white" stroke="#263238" stroke-miterlimit="10" stroke-linecap="round" stroke-linejoin="round"/>
<path d="M349.163 163.976L354.414 165.476L351.864 169.226C351.864 169.226 349.764 165.776 349.163 163.976Z" fill="#263238" stroke="#263238" stroke-miterlimit="10" stroke-linecap="round" stroke-linejoin="round"/>
<path d="M380.837 159.955L385.189 268.752L394.937 269.449C394.937 269.449 403.292 234.285 405.73 222.274C408.167 210.263 409.037 202.603 408.863 193.03C408.689 183.456 406.426 163.611 406.426 163.611C406.426 163.611 401.377 155.082 397.026 152.122" fill="#0067D2"/>
<path d="M380.837 159.955L385.189 268.752L394.937 269.449C394.937 269.449 403.292 234.285 405.73 222.274C408.167 210.263 409.037 202.603 408.863 193.03C408.689 183.456 406.426 163.611 406.426 163.611C406.426 163.611 401.377 155.082 397.026 152.122" stroke="#263238" stroke-miterlimit="10" stroke-linecap="round" stroke-linejoin="round"/>
<path d="M400.635 180.3C401.536 177.456 402.074 175.622 402.074 175.622" stroke="#263238" stroke-miterlimit="10" stroke-linecap="round" stroke-linejoin="round"/>
<path d="M383.448 222.97C383.448 222.97 387.626 213.222 392.5 202.429C395.155 196.551 397.758 189.122 399.578 183.577" stroke="#263238" stroke-miterlimit="10" stroke-linecap="round" stroke-linejoin="round"/>
<path d="M395.026 208.232C394.752 208.981 394.488 209.612 394.241 210.089" stroke="#263238" stroke-miterlimit="10" stroke-linecap="round" stroke-linejoin="round"/>
<path d="M400.16 188.329C400.16 188.329 398.012 198.556 395.99 205.292" stroke="#263238" stroke-miterlimit="10" stroke-linecap="round" stroke-linejoin="round"/>
<path d="M385.189 259.178L396.852 259.7" stroke="#263238" stroke-miterlimit="10" stroke-linecap="round" stroke-linejoin="round"/>
<path d="M385.189 268.753C385.189 268.753 383.828 285.548 383.828 286.999C383.828 288.451 384.99 299.048 385.279 299.92C385.57 300.791 392.974 306.308 393.7 306.308C394.426 306.308 398.49 306.743 399.216 305.582C399.942 304.42 400.233 303.695 399.216 303.404C398.2 303.114 395.441 303.259 395.441 303.259L393.845 302.533C393.845 302.533 399.797 301.952 400.233 301.807C400.668 301.661 402.846 300.21 403.282 299.194C403.717 298.177 402.991 297.016 402.991 297.016C402.991 297.016 405.169 294.984 405.314 294.258C405.459 293.532 405.604 291.5 404.588 291.79C403.571 292.08 402.12 293.677 402.12 293.677H398.49C398.49 293.677 402.265 291.209 402.7 290.483C403.135 289.757 403.716 286.708 403.571 285.838C403.426 284.966 401.539 285.983 401.103 286.854C400.668 287.726 399.941 290.048 399.941 290.048L395.587 290.629L394.135 288.742C394.135 288.742 397.039 279.741 397.039 277.854C397.039 275.967 394.937 269.449 394.937 269.449L385.189 268.753Z" fill="white" stroke="#263238" stroke-miterlimit="10" stroke-linecap="round" stroke-linejoin="round"/>
<path d="M390.506 290.774C390.506 290.774 393.7 293.533 394.572 293.823C395.443 294.114 398.491 293.678 398.491 293.678" stroke="#263238" stroke-miterlimit="10" stroke-linecap="round" stroke-linejoin="round"/>
<path d="M388.619 293.969C388.619 293.969 393.554 298.324 394.861 298.324C396.167 298.324 402.991 297.017 402.991 297.017" stroke="#263238" stroke-miterlimit="10" stroke-linecap="round" stroke-linejoin="round"/>
<path d="M387.603 297.742C387.603 297.742 390.507 301.227 391.378 301.516C392.249 301.806 393.846 302.533 393.846 302.533" stroke="#263238" stroke-miterlimit="10" stroke-linecap="round" stroke-linejoin="round"/>
</svg>
