<svg width="632" height="632" viewBox="0 0 632 632" fill="none" xmlns="http://www.w3.org/2000/svg">
<path d="M632 483.354H0V483.67H632V483.354Z" fill="#EBEBEB"/>
<path d="M299.568 426.979H55.5022C53.5902 426.975 51.7576 426.214 50.4068 424.86C49.056 423.507 48.2974 421.673 48.2974 419.761V76.6738C48.314 74.7727 49.08 72.9551 50.429 71.6155C51.778 70.276 53.6011 69.5228 55.5022 69.5195H299.568C301.482 69.5195 303.318 70.2799 304.671 71.6335C306.025 72.987 306.785 74.8228 306.785 76.737V419.761C306.785 421.675 306.025 423.511 304.671 424.865C303.318 426.218 301.482 426.979 299.568 426.979ZM55.5022 69.7723C53.674 69.7757 51.9218 70.5043 50.6303 71.7982C49.3387 73.0921 48.6134 74.8456 48.6134 76.6738V419.761C48.6134 421.589 49.3387 423.343 50.6303 424.637C51.9218 425.931 53.674 426.659 55.5022 426.663H299.568C301.397 426.659 303.151 425.931 304.444 424.638C305.738 423.344 306.466 421.591 306.469 419.761V76.6738C306.466 74.8444 305.738 73.091 304.444 71.7974C303.151 70.5039 301.397 69.7757 299.568 69.7723H55.5022Z" fill="#EBEBEB"/>
<path d="M572.984 426.979H328.905C326.992 426.975 325.158 426.214 323.806 424.861C322.453 423.508 321.691 421.674 321.688 419.761V76.6738C321.708 74.7716 322.477 72.9539 323.828 71.6147C325.179 70.2755 327.003 69.5228 328.905 69.5195H572.984C574.883 69.5261 576.703 70.2808 578.049 71.62C579.395 72.9591 580.159 74.7749 580.176 76.6738V419.761C580.176 421.671 579.419 423.503 578.071 424.856C576.723 426.209 574.894 426.972 572.984 426.979ZM328.905 69.7723C327.076 69.7757 325.323 70.5039 324.029 71.7974C322.736 73.091 322.007 74.8444 322.004 76.6738V419.761C322.007 421.591 322.736 423.344 324.029 424.638C325.323 425.931 327.076 426.659 328.905 426.663H572.984C574.813 426.659 576.567 425.931 577.86 424.638C579.154 423.344 579.882 421.591 579.885 419.761V76.6738C579.882 74.8444 579.154 73.091 577.86 71.7974C576.567 70.5039 574.813 69.7757 572.984 69.7723H328.905Z" fill="#EBEBEB"/>
<path d="M253.356 495.387H220.492V495.703H253.356V495.387Z" fill="#EBEBEB"/>
<path d="M134.692 491.961H66.3096V492.277H134.692V491.961Z" fill="#EBEBEB"/>
<path d="M219.228 507.129H185.959V507.445H219.228V507.129Z" fill="#EBEBEB"/>
<path d="M375.484 505.006H326.403V505.322H375.484V505.006Z" fill="#EBEBEB"/>
<path d="M400.246 505.006H386.733V505.322H400.246V505.006Z" fill="#EBEBEB"/>
<path d="M568.686 499.671H499.722V499.987H568.686V499.671Z" fill="#EBEBEB"/>
<path d="M481.66 472.142H539.361V313.548H481.66V472.142Z" fill="#F0F0F0"/>
<path d="M229.707 483.341L528.276 483.341V472.129L229.707 472.129V483.341Z" fill="#F0F0F0"/>
<path d="M481.66 313.535H218.634V472.129H481.66V313.535Z" fill="#F5F5F5"/>
<path d="M482.671 324.278H218.634V382.334H482.671V324.278Z" fill="#F0F0F0"/>
<path d="M482.671 392.914H218.634V450.97H482.671V392.914Z" fill="#F0F0F0"/>
<path d="M481.66 382.321H491.646V324.266H481.66V382.321Z" fill="#E6E6E6"/>
<path d="M481.66 450.957H491.646V392.902H481.66V450.957Z" fill="#E6E6E6"/>
<path d="M210.949 313.535L481.66 313.535V303.777L210.949 303.777V313.535Z" fill="#F0F0F0"/>
<path d="M547.426 303.776H481.66V313.534H547.426V303.776Z" fill="#E6E6E6"/>
<path d="M414.782 273.946H550.573V103.256L414.782 103.256V273.946Z" fill="#F0F0F0"/>
<path d="M384.799 273.946H545.365V103.256L384.799 103.256V273.946Z" fill="#F5F5F5"/>
<path d="M398.249 116.704V260.497H531.917V116.704H398.249Z" fill="white"/>
<path d="M479.877 204.161L505.423 192.317V184.872L479.877 173.003V181.927L495.399 188.613L479.877 195.3V204.161Z" fill="#E6E6E6"/>
<path d="M463.218 169.565H458.554L466.82 207.624H471.472L463.218 169.565Z" fill="#E6E6E6"/>
<path d="M450.275 195.3L434.816 188.613L450.338 181.927V173.003L424.704 184.872V192.317L450.25 204.161L450.275 195.3Z" fill="#E6E6E6"/>
<path d="M148.166 483.354H157.064L157.064 193.67H148.166L148.166 483.354Z" fill="#F0F0F0"/>
<path d="M146.308 481.331L146.068 480.067C146.983 479.773 147.829 479.295 148.553 478.663C149.276 478.03 149.863 477.256 150.277 476.389C152.59 472.293 153.993 463.559 147.56 445.256C137.65 417.044 143.565 394.292 155.358 348.94C157.406 341.04 159.732 332.09 162.146 322.396C171.209 286.157 162.829 263.683 156.092 245.62C150.871 231.602 146.738 220.53 152.021 207.7L153.197 208.181C148.141 220.542 152.148 231.413 157.28 245.178C164.08 263.392 172.536 286.081 163.372 322.686C160.958 332.368 158.632 341.318 156.585 349.23C144.855 394.368 138.964 417.019 148.76 444.928C155.371 463.749 153.816 472.849 151.288 477.16C150.787 478.158 150.086 479.043 149.23 479.76C148.373 480.478 147.379 481.012 146.308 481.331Z" fill="#F0F0F0"/>
<path d="M136.5 483.353H168.719L159.757 478.069H145.461L136.5 483.353Z" fill="#F0F0F0"/>
<path d="M88.8721 230.565H216.346L202.316 123.454H102.902L88.8721 230.565Z" fill="#F5F5F5"/>
<path d="M277.928 248.224H345.982L337.02 303.776H286.89L277.928 248.224Z" fill="#F0F0F0"/>
<path d="M305.269 266.299C323.824 259.587 338.031 249.5 322.13 229.087C306.229 208.673 281.594 208.774 264.985 217.812C243.826 229.314 248.073 262.621 248.073 262.621C248.073 262.621 286.713 273.023 305.269 266.299Z" fill="#E0E0E0"/>
<path d="M323.306 247.743C309.111 238.074 299.05 226.887 315.52 215.081C331.99 203.276 352.302 209.33 364.512 220.289C380.072 234.269 371.085 258.803 371.085 258.803C371.085 258.803 337.488 257.362 323.306 247.743Z" fill="#E6E6E6"/>
<path d="M298.304 223.209C314.913 222.21 328.842 217.875 320.98 199.888C313.118 181.901 293.172 176.858 277.612 179.942C257.729 183.873 253.04 208.749 253.04 208.749C253.04 208.749 281.708 224.22 298.304 223.209Z" fill="#F0F0F0"/>
<path d="M319.16 212.604C305.344 208.155 294.512 201.494 305.041 187.981C315.57 174.469 333.481 174.545 345.995 180.511C361.946 188.095 360.531 210.165 360.531 210.165C360.531 210.165 332.975 217.041 319.16 212.604Z" fill="#EBEBEB"/>
<path d="M293.248 189.6C307.038 194.15 319.716 195.136 319.148 178.021C318.579 160.907 304.093 150.416 290.467 147.812C273.087 144.576 261.256 163.22 261.256 163.22C261.256 163.22 279.483 185.011 293.248 189.6Z" fill="#F5F5F5"/>
<path d="M328.248 182.205C318.376 182.888 309.844 181.396 313.08 170.185C316.316 158.973 327.692 154.511 337.096 155.13C349.104 155.927 353.768 170.298 353.768 170.298C353.768 170.298 338.107 181.535 328.248 182.205Z" fill="#FAFAFA"/>
<path d="M316 540.436C451.352 540.436 561.077 534.03 561.077 526.128C561.077 518.225 451.352 511.819 316 511.819C180.648 511.819 70.9229 518.225 70.9229 526.128C70.9229 534.03 180.648 540.436 316 540.436Z" fill="#F5F5F5"/>
<path d="M529.945 317.378H100.5V332.786H529.945V317.378Z" fill="#407BFF"/>
<path opacity="0.3" d="M215.436 317.378H100.5V332.786H215.436V317.378Z" fill="white"/>
<path d="M217.269 332.786H207.271L212.503 525.9H217.269H222.034L227.28 332.786H217.269Z" fill="#407BFF"/>
<path opacity="0.3" d="M212.504 525.9H217.269V336.932L207.435 338.727L212.504 525.9Z" fill="white"/>
<path d="M122.507 332.786H112.508L117.741 525.9H122.507H127.272L132.505 332.786H122.507Z" fill="#407BFF"/>
<path opacity="0.3" d="M117.741 525.9H122.507V336.932L112.66 338.727L117.741 525.9Z" fill="white"/>
<path d="M507.938 332.786H497.94L503.173 525.9H507.938H512.703L517.949 332.786H507.938Z" fill="#407BFF"/>
<path opacity="0.3" d="M503.173 525.9H507.938V336.932L498.104 338.727L503.173 525.9Z" fill="white"/>
<path d="M413.176 332.786H403.178L408.411 525.9H413.176H417.941L423.174 332.786H413.176Z" fill="#407BFF"/>
<path opacity="0.3" d="M408.411 525.9H413.176V336.932L403.342 338.727L408.411 525.9Z" fill="white"/>
<path d="M304.346 234.889H202.24C201.411 234.856 200.586 235.02 199.833 235.366C199.08 235.713 198.419 236.233 197.905 236.884C197.391 237.535 197.038 238.298 196.876 239.111C196.713 239.924 196.745 240.764 196.969 241.563L210.569 306.469C211.007 308.305 212.031 309.948 213.486 311.15C214.941 312.352 216.748 313.047 218.634 313.13H320.815C321.643 313.163 322.466 312.999 323.218 312.653C323.97 312.307 324.63 311.788 325.143 311.139C325.657 310.49 326.01 309.729 326.174 308.917C326.338 308.106 326.308 307.267 326.086 306.469L312.473 241.563C312.035 239.715 311.003 238.061 309.535 236.856C308.067 235.65 306.244 234.959 304.346 234.889Z" fill="#263238"/>
<path d="M219.519 309.427C218.245 309.341 217.031 308.855 216.05 308.038C215.07 307.22 214.372 306.114 214.058 304.877L200.457 239.971C200.341 239.541 200.323 239.091 200.404 238.653C200.485 238.216 200.663 237.802 200.925 237.443C201.197 237.135 201.535 236.892 201.913 236.732C202.292 236.573 202.701 236.5 203.112 236.52H305.294C306.567 236.606 307.781 237.092 308.762 237.909C309.742 238.727 310.44 239.833 310.754 241.07L324.355 305.977C324.471 306.406 324.489 306.856 324.408 307.294C324.328 307.731 324.149 308.145 323.887 308.505C323.617 308.815 323.279 309.059 322.9 309.219C322.521 309.378 322.111 309.45 321.7 309.427H219.519Z" fill="white"/>
<path opacity="0.4" d="M296.61 304.232L283.718 242.688C283.645 242.324 283.654 241.948 283.743 241.587C283.832 241.227 284 240.89 284.234 240.602C284.468 240.313 284.763 240.08 285.098 239.918C285.432 239.757 285.798 239.671 286.17 239.667H302.753C303.328 239.671 303.884 239.872 304.33 240.235C304.776 240.598 305.085 241.102 305.206 241.664L318.098 303.158C318.171 303.522 318.162 303.898 318.073 304.259C317.983 304.619 317.816 304.956 317.582 305.244C317.348 305.532 317.053 305.766 316.718 305.927C316.384 306.089 316.018 306.175 315.646 306.179H299.062C298.494 306.177 297.944 305.984 297.499 305.631C297.054 305.278 296.741 304.785 296.61 304.232Z" fill="#407BFF"/>
<path d="M208.964 245.052L208.408 242.385H228.885L229.441 245.052H208.964Z" fill="#407BFF"/>
<path d="M218.419 251.675L217.863 249.008H253.748L254.317 251.675H218.419Z" fill="#EBEBEB"/>
<path d="M220.315 258.285L219.746 255.618H259.979L260.535 258.285H220.315Z" fill="#EBEBEB"/>
<path d="M222.198 264.909L221.642 262.242H254.026L254.595 264.909H222.198Z" fill="#EBEBEB"/>
<path d="M215.196 275.641L214.627 272.974H227.583L228.139 275.641H215.196Z" fill="#407BFF"/>
<path d="M224.638 282.251L224.082 279.584H239.856L240.425 282.251H224.638Z" fill="#EBEBEB"/>
<path d="M244.205 282.251L243.636 279.584H259.423L259.979 282.251H244.205Z" fill="#EBEBEB"/>
<path d="M226.534 288.874L225.978 286.207H279.318L279.875 288.874H226.534Z" fill="#EBEBEB"/>
<path d="M228.417 295.485L227.861 292.818H268.537L269.093 295.485H228.417Z" fill="#EBEBEB"/>
<path d="M352.049 312.738H217.61C213.944 312.738 211.568 314.824 212.339 317.377H360.113C359.355 314.824 355.715 312.738 352.049 312.738Z" fill="#263238"/>
<path opacity="0.1" d="M173.433 218.482L160.528 156.976C160.458 156.613 160.468 156.238 160.558 155.879C160.649 155.52 160.817 155.185 161.05 154.898C161.284 154.611 161.578 154.379 161.912 154.219C162.245 154.058 162.61 153.972 162.98 153.968H267.387C267.96 153.972 268.515 154.17 268.96 154.531C269.406 154.891 269.716 155.392 269.839 155.952L282.744 217.408C282.817 217.772 282.808 218.148 282.719 218.509C282.629 218.869 282.462 219.206 282.227 219.494C281.993 219.783 281.699 220.016 281.364 220.178C281.03 220.339 280.663 220.425 280.292 220.429H175.886C175.318 220.427 174.767 220.234 174.322 219.881C173.877 219.528 173.564 219.035 173.433 218.482Z" fill="#407BFF"/>
<path d="M210.545 155.99H188.627L188.134 153.626H210.052L210.545 155.99Z" fill="#407BFF"/>
<path opacity="0.4" d="M206.98 159.757H198.182L197.689 157.394H206.487L206.98 159.757Z" fill="#407BFF"/>
<path opacity="0.4" d="M221.617 159.757H208.067L207.574 157.394H221.124L221.617 159.757Z" fill="#407BFF"/>
<path opacity="0.4" d="M227.52 163.511H198.966L198.473 161.147H227.04L227.52 163.511Z" fill="#407BFF"/>
<path opacity="0.4" d="M223.892 167.278H199.75L199.257 164.914H223.399L223.892 167.278Z" fill="#407BFF"/>
<path opacity="0.4" d="M239.907 207.232H224.537L225.03 209.583H240.4L239.907 207.232Z" fill="#407BFF"/>
<path d="M220.745 202.076H198.233L197.74 199.712H220.252L220.745 202.076Z" fill="#407BFF"/>
<path opacity="0.4" d="M229.795 210.986H208.863L209.356 213.35H230.288L229.795 210.986Z" fill="#407BFF"/>
<path opacity="0.4" d="M223.45 207.232H208.08L208.573 209.583H223.943L223.45 207.232Z" fill="#407BFF"/>
<path opacity="0.4" d="M238.036 203.466H207.296L207.789 205.829H238.529L238.036 203.466Z" fill="#407BFF"/>
<path d="M209.773 138.446H184.973L184.48 136.095H209.28L209.773 138.446Z" fill="#407BFF"/>
<path opacity="0.4" d="M222.021 147.369H194.668L195.161 149.733H222.502L222.021 147.369Z" fill="#407BFF"/>
<path opacity="0.4" d="M216.548 143.615H193.885L194.378 145.966H217.041L216.548 143.615Z" fill="#407BFF"/>
<path opacity="0.4" d="M218.052 139.849H193.101L193.594 142.212H218.545L218.052 139.849Z" fill="#407BFF"/>
<path d="M209.495 173.395H192.254L191.761 171.031H209.002L209.495 173.395Z" fill="#407BFF"/>
<path opacity="0.4" d="M236.57 182.307H202.884L203.377 184.67H237.05L236.57 182.307Z" fill="#407BFF"/>
<path opacity="0.4" d="M216.055 178.553H202.101L202.594 180.916H216.548L216.055 178.553Z" fill="#407BFF"/>
<path opacity="0.4" d="M231.198 178.553H217.244L217.737 180.916H231.691L231.198 178.553Z" fill="#407BFF"/>
<path opacity="0.4" d="M232.057 174.786H201.317L201.81 177.15H232.538L232.057 174.786Z" fill="#407BFF"/>
<path opacity="0.4" d="M231.994 193.594H205.235L205.728 195.945H232.487L231.994 193.594Z" fill="#407BFF"/>
<path opacity="0.4" d="M212.238 189.827H204.452L204.945 192.191H212.718L212.238 189.827Z" fill="#407BFF"/>
<path opacity="0.4" d="M224.41 189.827H213.3L213.793 192.191H224.903L224.41 189.827Z" fill="#407BFF"/>
<path opacity="0.4" d="M234.408 186.073H203.668L204.161 188.424H234.901L234.408 186.073Z" fill="#407BFF"/>
<path opacity="0.4" d="M258.614 185.441H247.605L247.112 183.077H258.134L258.614 185.441Z" fill="#407BFF"/>
<path opacity="0.4" d="M276.942 185.441H259.979L259.486 183.077H276.449L276.942 185.441Z" fill="#407BFF"/>
<path opacity="0.4" d="M284.147 189.208H248.388L247.896 186.845H283.654L284.147 189.208Z" fill="#407BFF"/>
<path opacity="0.4" d="M279.394 192.962H249.172L248.679 190.599H278.901L279.394 192.962Z" fill="#407BFF"/>
<path opacity="0.4" d="M292.932 170.488H258.69L259.183 172.839H293.425L292.932 170.488Z" fill="#407BFF"/>
<path opacity="0.4" d="M286.283 166.722H257.906L258.399 169.085H286.763L286.283 166.722Z" fill="#407BFF"/>
<path d="M281.151 162.968H249.905L250.398 165.319H281.644L281.151 162.968Z" fill="#407BFF"/>
<path opacity="0.4" d="M294.474 208.004H252.307L252.8 210.368H294.967L294.474 208.004Z" fill="#407BFF"/>
<path opacity="0.4" d="M268.992 204.25H251.523L252.016 206.601H269.485L268.992 204.25Z" fill="#407BFF"/>
<path opacity="0.4" d="M287.952 204.25H270.483L270.976 206.601H288.445L287.952 204.25Z" fill="#407BFF"/>
<path opacity="0.4" d="M289.216 200.482H250.74L251.233 202.846H289.709L289.216 200.482Z" fill="#407BFF"/>
<path opacity="0.4" d="M288.154 219.278H254.658L255.151 221.642H288.647L288.154 219.278Z" fill="#407BFF"/>
<path opacity="0.4" d="M263.619 215.524H253.874L254.367 217.888H264.112L263.619 215.524Z" fill="#407BFF"/>
<path opacity="0.4" d="M278.863 215.524H264.959L265.452 217.888H279.356L278.863 215.524Z" fill="#407BFF"/>
<path opacity="0.4" d="M291.579 211.758H253.09L253.583 214.121H292.059L291.579 211.758Z" fill="#407BFF"/>
<path opacity="0.4" d="M189.094 222.198H162.879L163.372 224.562H189.587L189.094 222.198Z" fill="#407BFF"/>
<path opacity="0.4" d="M181.346 218.444H162.095L162.588 220.795H181.826L181.346 218.444Z" fill="#407BFF"/>
<path opacity="0.4" d="M201.936 218.444H182.698L183.191 220.795H202.442L201.936 218.444Z" fill="#407BFF"/>
<path opacity="0.4" d="M199.8 214.678H161.312L161.804 217.041H200.281L199.8 214.678Z" fill="#407BFF"/>
<path d="M494.16 292.818H477.931L479.827 317.378H492.264L494.16 292.818Z" fill="#407BFF"/>
<path opacity="0.4" d="M494.16 292.818H477.931L479.827 317.378H492.264L494.16 292.818Z" fill="white"/>
<path d="M140.468 275.767H163.802L155.838 317.377H132.505L140.468 275.767Z" fill="#263238"/>
<path d="M170.185 264.618H137.232L146.46 317.378H179.412L170.185 264.618Z" fill="#407BFF"/>
<path d="M135.286 264.618H137.232L146.459 317.378H144.513L135.286 264.618Z" fill="#407BFF"/>
<path opacity="0.3" d="M135.286 264.618H137.232L146.459 317.378H144.513L135.286 264.618Z" fill="black"/>
<path d="M151.2 311.728L143.944 270.256H165.458L172.7 311.728H151.2Z" fill="white"/>
<path opacity="0.6" d="M171.676 311.728L164.434 270.256H165.457L172.7 311.728H171.676Z" fill="#407BFF"/>
<path d="M333.405 197.184C333.873 198.195 333.721 199.27 333.052 199.573C332.382 199.876 331.472 199.308 331.004 198.309C330.536 197.31 330.701 196.223 331.358 195.92C332.015 195.617 332.938 196.122 333.405 197.184Z" fill="#263238"/>
<path d="M333.81 199.182C333.81 199.182 334.214 206.083 332.976 210.077C335.504 210.924 338.234 208.813 338.234 208.813L333.81 199.182Z" fill="#FF5652"/>
<path d="M333.532 188.829C333.425 188.918 333.292 188.971 333.153 188.981C332.33 189.002 331.525 189.219 330.802 189.612C330.079 190.005 329.459 190.564 328.994 191.243C328.953 191.321 328.896 191.39 328.827 191.445C328.759 191.5 328.68 191.541 328.595 191.565C328.51 191.59 328.422 191.597 328.334 191.586C328.247 191.575 328.162 191.547 328.086 191.503C328.009 191.458 327.943 191.399 327.89 191.329C327.837 191.259 327.798 191.178 327.777 191.093C327.756 191.007 327.752 190.918 327.765 190.831C327.779 190.744 327.81 190.661 327.857 190.586C328.429 189.717 329.202 188.998 330.111 188.489C331.019 187.981 332.037 187.699 333.077 187.666C333.215 187.658 333.352 187.695 333.469 187.769C333.585 187.844 333.675 187.954 333.725 188.083C333.776 188.212 333.784 188.353 333.75 188.487C333.715 188.621 333.639 188.741 333.532 188.829Z" fill="#263238"/>
<path d="M370.63 195.617C374.536 209.142 378.897 219.633 384.218 225.625C384.218 225.625 384.32 236.255 366.206 241.311C346.286 246.872 353.92 234.081 353.92 234.081C364.032 228.456 363.072 219.962 355.462 216.726L370.63 195.617Z" fill="#FF8B7B"/>
<path d="M388.44 223.033C388.086 218.091 387.618 212.453 384.572 212.302C381.21 212.15 361.744 220.846 357.586 226.977C353.427 233.107 361.555 239.111 361.555 239.111L388.44 223.033Z" fill="#263238"/>
<path d="M348.599 299.568L331.788 299.012L332.091 313.093C332.091 313.093 346.753 311.576 347.398 307.721L348.599 299.568Z" fill="#FF8B7B"/>
<path d="M322.901 305.926L321.132 313.131L332.091 313.105L331.787 299.024L322.901 305.926Z" fill="#FF8B7B"/>
<path d="M416.071 241.058L415.717 244.673C415.603 245.836 415.452 246.973 415.3 248.123C415.009 250.411 414.643 252.699 414.251 254.974C413.492 259.537 412.507 264.075 411.369 268.638C410.213 273.289 408.812 277.875 407.172 282.378C406.3 284.691 405.39 287.004 404.303 289.355C403.207 291.821 401.94 294.208 400.511 296.497C400.17 297.091 399.74 297.761 399.323 298.317C398.906 298.873 398.501 299.581 398.059 300.162C397.617 300.744 397.149 301.426 396.567 302.02L395.746 302.956C395.452 303.301 395.14 303.63 394.811 303.942C392.277 306.423 389.307 308.415 386.051 309.819C381.055 311.962 375.753 313.306 370.339 313.801C367.875 314.092 365.435 314.205 363.046 314.269C360.657 314.332 358.268 314.269 355.917 314.142C353.566 314.016 351.24 313.813 348.927 313.535C346.614 313.257 344.364 312.891 341.912 312.398L342.317 299.189C350.387 297.778 358.365 295.878 366.206 293.501C367.95 292.934 369.663 292.276 371.338 291.529C372.764 290.927 374.127 290.186 375.408 289.317C376.153 288.868 376.784 288.254 377.254 287.522L377.62 286.941C377.79 286.693 377.946 286.435 378.088 286.17C378.268 285.88 378.433 285.58 378.581 285.272C378.745 284.944 378.922 284.64 379.086 284.274C380.571 281.032 381.793 277.676 382.739 274.238C383.776 270.522 384.749 266.654 385.533 262.647C386.316 258.64 387.075 254.595 387.77 250.512L388.731 244.369L389.603 238.391L416.071 241.058Z" fill="#407BFF"/>
<path opacity="0.2" d="M416.071 241.058L415.717 244.673C415.603 245.836 415.452 246.973 415.3 248.123C415.009 250.411 414.643 252.699 414.251 254.974C413.492 259.537 412.507 264.075 411.369 268.638C410.213 273.289 408.812 277.875 407.172 282.378C406.3 284.691 405.39 287.004 404.303 289.355C403.207 291.821 401.94 294.208 400.511 296.497C400.17 297.091 399.74 297.761 399.323 298.317C398.906 298.873 398.501 299.581 398.059 300.162C397.617 300.744 397.149 301.426 396.567 302.02L395.746 302.956C395.452 303.301 395.14 303.63 394.811 303.942C392.277 306.423 389.307 308.415 386.051 309.819C381.055 311.962 375.753 313.306 370.339 313.801C367.875 314.092 365.435 314.205 363.046 314.269C360.657 314.332 358.268 314.269 355.917 314.142C353.566 314.016 351.24 313.813 348.927 313.535C346.614 313.257 344.364 312.891 341.912 312.398L342.317 299.189C350.387 297.778 358.365 295.878 366.206 293.501C367.95 292.934 369.663 292.276 371.338 291.529C372.764 290.927 374.127 290.186 375.408 289.317C376.153 288.868 376.784 288.254 377.254 287.522L377.62 286.941C377.79 286.693 377.946 286.435 378.088 286.17C378.268 285.88 378.433 285.58 378.581 285.272C378.745 284.944 378.922 284.64 379.086 284.274C380.571 281.032 381.793 277.676 382.739 274.238C383.776 270.522 384.749 266.654 385.533 262.647C386.316 258.64 387.075 254.595 387.77 250.512L388.731 244.369L389.603 238.391L416.071 241.058Z" fill="black"/>
<path d="M341.432 257.856C347.699 284.878 351.227 312.463 351.961 340.193H425.968C426.373 331.054 424.831 279.521 417.386 242.296C416.725 238.925 415.397 235.719 413.48 232.868C411.562 230.017 409.095 227.577 406.221 225.693C403.348 223.809 400.127 222.518 396.748 221.896C393.369 221.275 389.9 221.334 386.544 222.072L386.19 222.161C376.95 224.259 363.691 227.647 355.854 230.617L355.538 230.743C350.297 232.781 345.976 236.655 343.381 241.644C340.785 246.633 340.093 252.395 341.432 257.856Z" fill="#407BFF"/>
<path opacity="0.2" d="M346.248 281.494C346.829 285.045 347.423 288.812 347.967 292.756C354.021 286.436 355.942 267.071 355.942 267.071L346.248 281.494Z" fill="black"/>
<path d="M284.767 300.491L267.968 298.924L267.412 312.992C270.188 313.759 273.121 313.75 275.893 312.968C278.665 312.186 281.17 310.66 283.136 308.556L284.767 300.491Z" fill="#FF8B7B"/>
<path d="M259.98 303.07L254.595 312.739L267.463 312.992L268.019 298.924L259.98 303.07Z" fill="#FF8B7B"/>
<path d="M369.202 251.372C368.039 253.584 367.002 255.544 365.84 257.566C364.677 259.588 363.564 261.56 362.364 263.519C359.987 267.463 357.522 271.331 354.919 275.161C349.691 283.004 343.899 290.456 337.589 297.458C334.21 301.227 330.537 304.723 326.605 307.911C326.112 308.328 325.531 308.733 324.987 309.175C324.444 309.618 323.963 309.971 323.154 310.439C322.345 310.907 321.663 311.375 320.93 311.779C320.197 312.183 319.438 312.55 318.692 312.879C315.904 314.089 312.986 314.976 309.996 315.52C304.766 316.402 299.435 316.521 294.171 315.874C291.705 315.592 289.257 315.17 286.84 314.61C285.635 314.332 284.446 314.016 283.275 313.662C282.011 313.308 280.987 312.917 279.635 312.398L281.72 299.354C289.658 298.279 298.241 296.902 304.156 294.222C305.47 293.682 306.706 292.973 307.835 292.111C308.289 291.799 308.712 291.443 309.099 291.049C309.187 290.936 309.579 290.594 309.87 290.316C310.16 290.038 310.502 289.773 310.818 289.444C313.523 286.763 316.056 283.913 318.402 280.912C323.49 274.347 328.245 267.53 332.647 260.486C334.922 256.909 337.134 253.268 339.346 249.615L342.607 244.13L345.755 238.732L369.202 251.372Z" fill="#407BFF"/>
<path d="M348.889 515.206H335.061L328.097 483.164H341.937L348.889 515.206Z" fill="#FF8B7B"/>
<path d="M334.29 512.249H349.837C350.108 512.259 350.368 512.355 350.579 512.523C350.791 512.692 350.943 512.923 351.013 513.184L353.743 525.496C353.808 525.795 353.805 526.105 353.733 526.402C353.661 526.7 353.522 526.977 353.327 527.213C353.132 527.449 352.887 527.638 352.608 527.765C352.33 527.892 352.027 527.955 351.721 527.948C346.298 527.86 343.656 527.544 336.818 527.544C332.609 527.544 327.212 527.973 321.41 527.973C315.608 527.973 314.837 522.235 317.213 521.716C327.882 519.378 328.589 516.168 332.04 513.096C332.659 512.544 333.461 512.242 334.29 512.249Z" fill="#263238"/>
<g opacity="0.2">
<path d="M341.95 483.177H328.097L331.965 500.923L345.54 499.697L341.95 483.177Z" fill="black"/>
</g>
<path d="M366.194 179.361C371.25 192.153 374.764 199.396 371.427 208.686C366.371 222.654 348.435 224.069 339.713 213.022C331.876 203.074 325.025 183.823 334.922 173.244C337.09 170.898 339.821 169.146 342.857 168.154C345.892 167.162 349.131 166.964 352.265 167.577C355.399 168.19 358.324 169.595 360.762 171.657C363.2 173.72 365.07 176.372 366.194 179.361Z" fill="#FF8B7B"/>
<path d="M341.899 198.524C339.826 201.305 338.234 203.416 338.234 203.416C338.234 203.416 333.974 192.836 335.605 187.982C333.532 183.874 329.348 189.929 327.768 181.928C326.188 173.927 333.026 165.331 335.605 163.549C335.87 164.482 335.99 165.45 335.959 166.419C342.926 160.764 351.782 157.967 360.733 158.594C359.985 159.707 359.509 160.98 359.343 162.311C359.343 162.311 374.346 164.839 377.759 173.333C376.552 172.757 375.278 172.332 373.967 172.069C376.718 176.012 377.807 180.879 377.001 185.619C375.912 192.531 375.346 199.515 375.307 206.513C375.446 210.102 365.599 216.966 359.595 209.635C353.591 202.303 341.899 198.524 341.899 198.524Z" fill="#263238"/>
<path d="M348.156 195.768C348.939 198.748 348.717 201.902 347.524 204.743C345.919 208.535 342.62 207.625 340.989 204.313C339.511 201.342 338.563 195.831 341.179 193.19C343.796 190.548 347.17 192.191 348.156 195.768Z" fill="#FF8B7B"/>
<path d="M374.144 340.143C374.144 340.143 309.883 363.451 307.999 394.28C304.511 451.071 327.73 496.032 327.73 496.032L349.016 493.756C349.016 493.756 345.224 475.479 342.405 424.034C338.853 359.381 448.581 425.551 425.981 340.143H374.144Z" fill="#407BFF"/>
<path opacity="0.5" d="M374.144 340.143C374.144 340.143 309.883 363.451 307.999 394.28C304.511 451.071 327.73 496.032 327.73 496.032L349.016 493.756C349.016 493.756 345.224 475.479 342.405 424.034C338.853 359.381 448.581 425.551 425.981 340.143H374.144Z" fill="white"/>
<path d="M321.84 488.195C321.739 488.195 325.228 497.65 325.228 497.65L351.772 495.046L350.444 486.451L321.84 488.195Z" fill="#407BFF"/>
<path d="M289.115 516.787H275.274L271.229 484.731H285.07L289.115 516.787Z" fill="#FF8B7B"/>
<path d="M275.173 512.236H290.341C290.615 512.233 290.881 512.324 291.095 512.495C291.31 512.665 291.458 512.904 291.517 513.172L294.272 525.47C294.353 525.772 294.362 526.087 294.299 526.393C294.237 526.698 294.104 526.985 293.911 527.23C293.719 527.475 293.472 527.672 293.19 527.806C292.908 527.939 292.599 528.005 292.288 527.998C286.84 527.91 278.952 527.607 272.064 527.619C264.05 527.619 262.52 528.062 253.104 528.074C247.416 528.074 245.836 522.348 248.212 521.754C259.032 519.378 262.495 519.113 271.836 513.336C272.822 512.661 273.979 512.28 275.173 512.236Z" fill="#263238"/>
<path opacity="0.2" d="M271.242 484.744L273.442 502.2L287.169 501.265L285.083 484.744H271.242Z" fill="black"/>
<path d="M351.961 340.143C351.961 340.143 246.67 349.484 247.807 402.369C248.983 457.379 269.536 494.477 269.536 494.477H290.088C290.088 494.477 286.195 465.936 286.89 411.786C287.093 395.569 319.881 390.21 351.885 388.314C379.542 386.67 405.428 370.908 416.172 345.338L418.384 340.143H351.961Z" fill="#407BFF"/>
<path opacity="0.5" d="M351.961 340.143C351.961 340.143 246.67 349.484 247.807 402.369C248.983 457.379 269.536 494.477 269.536 494.477H290.088C290.088 494.477 286.195 465.936 286.89 411.786C287.093 395.569 319.881 390.21 351.885 388.314C379.542 386.67 405.428 370.908 416.172 345.338L418.384 340.143H351.961Z" fill="white"/>
<path d="M264.72 488.953C264.631 488.953 268.246 498.458 268.246 498.458L293.071 496.676L291.618 488.081L264.72 488.953Z" fill="#407BFF"/>
<path d="M379.605 280.709L366.244 332.192C362.828 345.382 361.104 358.952 361.112 372.577V396.505C361.112 402.546 365.562 407.451 371.06 407.451H439.544C445.042 407.451 449.491 402.546 449.491 396.505V372.577C449.487 358.952 451.215 345.381 454.636 332.192L466.429 286.688C468.249 279.698 463.471 272.784 456.86 272.784H389.161C386.913 272.855 384.754 273.672 383.023 275.108C381.293 276.543 380.09 278.514 379.605 280.709Z" fill="#263238"/>
<path d="M294.424 382.524L296.661 395.291C297.849 402.003 303.752 407.45 309.857 407.45H385.988C392.093 407.45 396.1 402.003 394.912 395.291L392.675 382.524C391.322 374.877 384.61 368.684 377.658 368.684H304.624C297.622 368.684 293.084 374.877 294.424 382.524Z" fill="#263238"/>
<path d="M393.319 420.268H353.44L349.547 407.451H397.212L393.319 420.268Z" fill="#407BFF"/>
<path d="M380.502 420.268H366.257V515.586H380.502V420.268Z" fill="#407BFF"/>
<path opacity="0.7" d="M380.502 515.586H366.257V422.556L380.502 424.009V515.586Z" fill="white"/>
<path opacity="0.7" d="M377.026 515.585H373.626V423.301L377.026 423.655V515.585Z" fill="white"/>
<path d="M406.136 530.324H340.61C340.228 530.321 339.857 530.197 339.549 529.971C339.241 529.745 339.012 529.427 338.895 529.064C338.777 528.7 338.777 528.309 338.895 527.945C339.012 527.582 339.241 527.264 339.548 527.038L349.939 519.454C354.933 515.795 360.963 513.821 367.154 513.816H379.605C385.792 513.823 391.817 515.797 396.808 519.454L407.21 527.038C407.519 527.265 407.748 527.583 407.865 527.948C407.982 528.313 407.981 528.706 407.862 529.07C407.743 529.434 407.512 529.751 407.202 529.976C406.892 530.202 406.519 530.323 406.136 530.324Z" fill="#407BFF"/>
</svg>
