<svg width="546" height="364" viewBox="0 0 546 364" fill="none" xmlns="http://www.w3.org/2000/svg">
<path d="M485.54 109.397L478.573 143.14L474.089 138.764L466.459 144.21L460.628 136.966L447.553 146.474L436.378 127.786L423.915 135.088L418.972 128.274L403.145 137.192L398.384 126.992L409.479 73.2588L468.956 85.5402L485.54 109.397Z" fill="#EBEBEB"/>
<path d="M468.956 85.54L485.54 109.397L464.908 105.138L468.956 85.54Z" fill="#DBDBDB"/>
<path d="M477.088 149.881L466.874 199.385L386.757 182.845L396.898 133.741L401.659 143.933L417.493 135.015L422.429 141.829L434.9 134.535L446.067 153.222L459.15 143.715L464.974 150.951L472.61 145.513L477.088 149.881Z" fill="#EBEBEB"/>
<path d="M362.42 144.078L280.775 149.131L274.289 44.3278L334.916 40.5713L357.171 59.2445L362.42 144.078Z" fill="#EBEBEB"/>
<path d="M334.917 40.5713L357.171 59.2445L336.147 60.5476L334.917 40.5713Z" fill="#DBDBDB"/>
<path d="M312.312 111.093L311.992 108.727C311.169 103.828 312.509 98.3457 316.767 92.6163C320.611 87.5203 322.693 83.8803 322.46 79.7453C322.198 75.0861 319.104 72.1449 313.346 72.3779C310.055 72.5488 306.894 73.7168 304.282 75.7267L301.771 70.0993C304.683 67.7333 309.779 65.9861 314.62 65.7313C325.125 65.1489 330.235 71.366 330.636 78.3038C330.985 84.5137 327.767 89.1801 323.676 94.6329C319.92 99.6051 318.689 103.704 319.221 108.341L319.446 110.714L312.312 111.093ZM311.016 123.986C310.827 120.608 312.974 118.104 316.17 117.929C319.366 117.754 321.696 119.996 321.885 123.382C322.06 126.578 320.102 129.155 316.724 129.344C313.499 129.526 311.169 127.182 310.987 123.986H311.016Z" fill="#DBDBDB"/>
<path d="M108.094 93.264L99.8817 89.5439L98.7388 92.0555C98.57 92.4145 98.3067 92.7207 97.977 92.9413C97.6474 93.1619 97.264 93.2886 96.8678 93.3077C96.4165 93.3225 95.9667 93.3663 95.521 93.4387C95.1298 93.4968 94.7301 93.4476 94.3647 93.2963C93.9993 93.145 93.6818 92.8973 93.4462 92.5797L91.8373 90.3302L84.5064 95.5863L86.1152 97.8359C86.339 98.1606 86.4707 98.5398 86.4963 98.9333C86.522 99.3268 86.4406 99.7199 86.2608 100.071C86.0533 100.471 85.8662 100.882 85.7003 101.301C85.5561 101.671 85.3138 101.994 84.9996 102.237C84.6853 102.479 84.3109 102.631 83.9167 102.677L81.1721 102.946L82.053 111.923L84.8121 111.646C85.2078 111.614 85.6046 111.691 85.9599 111.868C86.3152 112.045 86.6156 112.316 86.8287 112.651C86.9452 112.84 87.0689 113.022 87.2 113.204C87.331 113.386 87.462 113.561 87.6004 113.735C87.8516 114.041 88.0131 114.41 88.0671 114.802C88.1211 115.194 88.0654 115.594 87.9061 115.956L86.7559 118.489L94.975 122.217L96.118 119.69C96.2883 119.332 96.5532 119.026 96.8841 118.807C97.2151 118.588 97.5995 118.463 97.9962 118.446C98.4424 118.427 98.8872 118.383 99.3284 118.315C99.7196 118.256 100.119 118.306 100.485 118.457C100.85 118.608 101.168 118.856 101.403 119.174L103.012 121.423L110.35 116.167L108.741 113.917C108.511 113.596 108.375 113.216 108.349 112.821C108.323 112.426 108.409 112.031 108.596 111.682C108.799 111.284 108.981 110.876 109.142 110.459C109.282 110.087 109.523 109.761 109.838 109.518C110.153 109.275 110.53 109.124 110.925 109.083L113.685 108.807L112.796 99.8306L110.037 100.1C109.644 100.134 109.249 100.06 108.896 99.8836C108.542 99.7076 108.245 99.4373 108.035 99.1026C107.912 98.9133 107.788 98.7313 107.657 98.5493C107.526 98.3673 107.395 98.1853 107.256 98.0179C107.007 97.7084 106.846 97.3368 106.793 96.9429C106.739 96.5491 106.793 96.148 106.951 95.7829L108.094 93.264ZM103.434 101.571C104.286 102.759 104.766 104.172 104.813 105.633C104.861 107.094 104.475 108.536 103.703 109.777C102.931 111.018 101.808 112.002 100.477 112.605C99.1456 113.209 97.6653 113.403 96.2233 113.165C94.7814 112.927 93.4424 112.266 92.3759 111.267C91.3093 110.267 90.5631 108.974 90.2315 107.551C89.9 106.127 89.998 104.638 90.5132 103.27C91.0284 101.902 91.9376 100.718 93.1259 99.867C94.7189 98.7262 96.6997 98.2648 98.6329 98.5843C100.566 98.9037 102.293 99.9779 103.434 101.571Z" fill="#EBEBEB"/>
<path d="M479.301 212.364L473.826 215.524L474.794 217.198C474.939 217.438 475.011 217.715 475.002 217.996C474.993 218.276 474.903 218.547 474.743 218.778C474.576 219.04 474.416 219.309 474.27 219.593C474.151 219.844 473.962 220.056 473.726 220.203C473.489 220.35 473.216 220.427 472.938 220.423H471.016V226.75H472.953C473.231 226.746 473.504 226.823 473.74 226.97C473.976 227.117 474.165 227.328 474.285 227.579C474.43 227.863 474.591 228.133 474.758 228.395C474.918 228.625 475.007 228.897 475.017 229.177C475.026 229.457 474.954 229.734 474.809 229.975L473.841 231.649L479.315 234.809L480.291 233.127C480.432 232.888 480.637 232.694 480.883 232.565C481.128 232.437 481.405 232.379 481.681 232.399H482.613C482.89 232.38 483.166 232.438 483.411 232.566C483.657 232.695 483.862 232.889 484.004 233.127L484.979 234.816L490.446 231.656L489.478 229.975C489.34 229.733 489.273 229.458 489.283 229.18C489.293 228.902 489.381 228.633 489.536 228.402C489.704 228.14 489.864 227.863 490.01 227.587C490.129 227.336 490.318 227.124 490.554 226.977C490.79 226.83 491.064 226.753 491.342 226.757H493.278V220.431H491.327C491.049 220.434 490.776 220.358 490.54 220.21C490.304 220.063 490.115 219.852 489.995 219.601C489.849 219.324 489.689 219.047 489.522 218.785C489.367 218.555 489.279 218.285 489.269 218.007C489.258 217.729 489.326 217.454 489.464 217.213L490.432 215.531L484.965 212.372L483.989 214.031C483.848 214.27 483.643 214.464 483.397 214.593C483.152 214.722 482.875 214.779 482.599 214.759H482.133H481.667C481.389 214.778 481.112 214.72 480.866 214.592C480.619 214.463 480.413 214.269 480.269 214.031L479.301 212.364ZM482.133 218.407C483.158 218.405 484.162 218.708 485.015 219.277C485.869 219.846 486.534 220.656 486.927 221.603C487.321 222.55 487.424 223.593 487.224 224.599C487.024 225.606 486.53 226.53 485.805 227.255C485.08 227.981 484.156 228.474 483.149 228.674C482.143 228.874 481.1 228.771 480.153 228.377C479.206 227.984 478.396 227.319 477.827 226.465C477.258 225.612 476.955 224.609 476.957 223.583C476.956 222.902 477.089 222.229 477.349 221.6C477.608 220.971 477.989 220.399 478.47 219.918C478.951 219.437 479.522 219.055 480.15 218.794C480.779 218.534 481.452 218.399 482.133 218.399V218.407Z" fill="#EBEBEB"/>
<path d="M124.706 66.3645L119.691 70.2083L120.848 71.7444C121.021 71.9633 121.127 72.2271 121.154 72.5046C121.181 72.782 121.128 73.0614 121.001 73.3096C120.862 73.5929 120.74 73.8847 120.637 74.1832C120.547 74.4461 120.386 74.6788 120.171 74.855C119.956 75.0312 119.697 75.1439 119.421 75.1805L117.499 75.4281L118.315 81.6961L120.237 81.4486C120.516 81.4096 120.801 81.4504 121.059 81.5663C121.317 81.6823 121.536 81.8686 121.693 82.1038C121.868 82.3571 122.057 82.6001 122.26 82.8318C122.448 83.0381 122.572 83.2938 122.619 83.5687C122.665 83.8436 122.632 84.126 122.522 84.3825L121.794 86.1733L127.618 88.5976L128.346 86.8067C128.455 86.5498 128.633 86.3284 128.861 86.1675C129.088 86.0067 129.357 85.9129 129.635 85.8967L130.101 85.8457L130.56 85.7729C130.829 85.7222 131.107 85.7462 131.364 85.8425C131.621 85.9387 131.846 86.1035 132.016 86.3189L133.202 87.8696L138.218 84.0257L137.046 82.4897C136.877 82.2677 136.773 82.003 136.746 81.7252C136.719 81.4474 136.77 81.1675 136.893 80.9172C137.031 80.6357 137.153 80.3464 137.257 80.0509C137.347 79.7879 137.508 79.5553 137.723 79.3791C137.938 79.2029 138.198 79.0901 138.473 79.0535L140.395 78.806L139.58 72.5379L137.658 72.7854C137.379 72.8252 137.094 72.7855 136.836 72.6709C136.579 72.5563 136.359 72.3714 136.202 72.1375C136.02 71.8754 135.83 71.6279 135.626 71.4095C135.457 71.1988 135.347 70.9464 135.309 70.6787C135.27 70.411 135.305 70.1378 135.408 69.888L136.136 68.0971L130.312 65.6729L129.584 67.4637C129.474 67.7197 129.296 67.9402 129.068 68.1008C128.841 68.2614 128.573 68.3559 128.296 68.3737L127.83 68.4174L127.4 68.432C127.131 68.4827 126.852 68.4587 126.596 68.3624C126.339 68.2662 126.114 68.1014 125.944 67.886L124.706 66.3645ZM128.296 71.9919C129.31 71.8615 130.34 72.0344 131.256 72.4888C132.171 72.9431 132.932 73.6585 133.442 74.5448C133.952 75.431 134.188 76.4484 134.12 77.4686C134.052 78.4888 133.684 79.4661 133.062 80.2772C132.439 81.0883 131.59 81.6968 130.622 82.0261C129.654 82.3553 128.611 82.3905 127.623 82.1273C126.635 81.864 125.747 81.314 125.071 80.5467C124.395 79.7794 123.962 78.8292 123.826 77.8159C123.735 77.1397 123.778 76.4522 123.954 75.7929C124.13 75.1336 124.434 74.5155 124.849 73.9743C125.265 73.433 125.783 72.9792 126.375 72.639C126.966 72.2988 127.619 72.0789 128.296 71.9919Z" fill="#EBEBEB"/>
<path d="M87.229 230.615C87.5025 223.578 87.4053 216.531 86.9378 209.503C85.8962 194.992 83.6831 180.589 80.3203 166.435C78.4712 158.471 76.1998 150.637 73.8265 142.811C73.7537 142.571 73.3752 142.637 73.4407 142.884C80.7716 170.475 86.7849 198.94 86.37 227.623C86.2535 235.631 85.3217 243.53 84.5645 251.509C84.5645 251.72 84.8921 251.807 84.9431 251.589C86.4501 244.739 86.9451 237.59 87.229 230.615Z" fill="#EBEBEB"/>
<path d="M73.4407 142.862C73.4407 142.862 62.3459 171.036 64.8284 177.632C67.3109 184.227 72.436 185.64 72.436 185.64C72.436 185.64 65.6438 195.337 70.3903 204.429C75.1369 213.522 85.6783 213.092 86.4063 223.401C86.3845 223.452 86.9669 180.347 73.4407 142.862Z" fill="#EBEBEB"/>
<path d="M85.176 205.652C85.194 205.605 85.194 205.554 85.176 205.507C83.7199 186.272 80.1107 167.262 74.4162 148.832C74.4162 148.781 74.307 148.795 74.3216 148.832C76.5201 157.082 78.4614 165.367 80.1456 173.686C78.654 172.273 76.8318 171.256 74.8457 170.73C74.8457 170.73 74.7875 170.774 74.8457 170.788C76.9321 171.553 78.8081 172.8 80.3203 174.428C80.6406 176.066 80.9609 177.697 81.2594 179.335C78.7769 176.561 75.3408 175.185 71.8973 173.875C71.8895 173.878 71.8829 173.884 71.8782 173.891C71.8736 173.898 71.8711 173.907 71.8711 173.915C71.8711 173.924 71.8736 173.932 71.8782 173.939C71.8829 173.946 71.8895 173.952 71.8973 173.955C75.4864 175.411 79.0536 177.289 81.4851 180.383C82.3296 185.057 83.0721 189.748 83.7128 194.456C81.9203 192.578 79.6216 191.26 77.0952 190.663C77.0152 190.663 76.9715 190.757 77.0516 190.779C79.6467 191.543 81.9636 193.046 83.72 195.103H83.7637C83.9821 196.754 84.1908 198.411 84.3898 200.076C83.0032 198.902 81.4376 197.959 79.7524 197.28C79.7088 197.28 79.6796 197.331 79.7524 197.346C81.4721 198.091 83.0469 199.133 84.4044 200.425C84.4044 200.425 84.4408 200.425 84.4626 200.425C84.6446 202.005 84.8266 203.585 84.9868 205.164C82.4869 202.142 79.2426 199.824 75.5737 198.438C75.5583 198.438 75.5435 198.444 75.5325 198.455C75.5216 198.466 75.5155 198.481 75.5155 198.496C75.5155 198.511 75.5216 198.526 75.5325 198.537C75.5435 198.548 75.5583 198.554 75.5737 198.554C79.1965 200.151 82.3788 202.601 84.8484 205.696C84.8756 205.73 84.9123 205.755 84.9538 205.768C84.9953 205.781 85.0397 205.781 85.0814 205.769C85.3216 208.193 85.54 210.617 85.7148 213.049C85.7148 213.085 85.773 213.085 85.773 213.049C85.5837 210.607 85.3847 208.142 85.176 205.652Z" fill="white"/>
<path d="M76.2581 167.957C74.2488 166.707 71.9534 165.99 69.5896 165.875C69.578 165.875 69.5669 165.88 69.5587 165.888C69.5505 165.896 69.5459 165.907 69.5459 165.919C69.5459 165.93 69.5505 165.941 69.5587 165.95C69.5669 165.958 69.578 165.962 69.5896 165.962C71.875 166.396 74.0929 167.13 76.1853 168.146C76.2726 168.168 76.3381 168.015 76.2581 167.957Z" fill="white"/>
<path d="M77.6049 197.783C76.0606 196.897 74.3601 196.316 72.5963 196.072C72.538 196.072 72.5307 196.152 72.5963 196.167C74.3187 196.512 75.9847 197.096 77.5467 197.9C77.6122 197.936 77.6704 197.819 77.6049 197.783Z" fill="white"/>
<path d="M116.407 178.12C111.714 181.364 107.403 185.13 103.558 189.346C99.5928 193.809 96.5341 199.001 94.5529 204.634C90.3362 216.368 88.0688 228.713 87.8407 241.179C87.6993 248.083 88.3614 254.98 89.8136 261.731C89.8254 261.78 89.8555 261.822 89.8979 261.85C89.9403 261.877 89.9916 261.887 90.0412 261.878C90.0907 261.869 90.1348 261.84 90.1643 261.8C90.1938 261.759 90.2063 261.708 90.1994 261.658C88.3923 249.745 88.4611 237.623 90.4033 225.731C92.3106 214.083 95.3027 201.401 102.714 191.93C106.747 186.768 111.777 182.714 116.75 178.52C117.012 178.287 116.677 177.931 116.407 178.12Z" fill="#EBEBEB"/>
<path d="M89.4714 232.778C92.1431 228.457 95.2827 224.443 98.8335 220.81C104.388 215.255 109.062 211.309 109.79 207.64C110.518 203.971 104.228 201.263 104.228 201.263C104.228 201.263 111.908 202.646 114.012 199.421C116.116 196.196 117.128 177.516 117.128 177.516C117.128 177.516 103.151 187.497 96.635 201.489C90.1194 215.481 89.4714 232.778 89.4714 232.778Z" fill="#EBEBEB"/>
<path d="M112.112 195.038C111.192 194.901 110.259 194.869 109.331 194.943C109.222 194.943 109.229 195.132 109.331 195.14C110.248 195.14 111.173 195.096 112.09 195.14C112.101 195.137 112.11 195.132 112.118 195.124C112.125 195.116 112.13 195.106 112.133 195.096C112.135 195.085 112.134 195.074 112.131 195.064C112.127 195.054 112.121 195.045 112.112 195.038Z" fill="white"/>
<path d="M102.073 213.158C100.597 213.188 99.1379 213.479 97.7632 214.017C97.7632 214.017 97.7632 214.09 97.7632 214.083C99.2192 213.741 100.624 213.602 102.066 213.355C102.084 213.347 102.101 213.333 102.112 213.316C102.124 213.299 102.13 213.279 102.131 213.259C102.132 213.238 102.127 213.218 102.116 213.2C102.106 213.182 102.091 213.168 102.073 213.158Z" fill="white"/>
<path d="M99.0591 206.898C98.4463 206.893 97.8344 206.947 97.2318 207.058C97.2207 207.062 97.2111 207.069 97.2043 207.079C97.1975 207.089 97.1938 207.101 97.1938 207.113C97.1938 207.124 97.1975 207.136 97.2043 207.146C97.2111 207.156 97.2207 207.163 97.2318 207.167C97.842 207.202 98.4543 207.176 99.0591 207.087C99.0842 207.087 99.1083 207.077 99.126 207.059C99.1438 207.042 99.1537 207.017 99.1537 206.992C99.1537 206.967 99.1438 206.943 99.126 206.925C99.1083 206.908 99.0842 206.898 99.0591 206.898Z" fill="white"/>
<path d="M48.4922 197.936C53.0417 199.478 57.4012 201.532 61.4871 204.059C65.7265 206.752 69.4029 210.243 72.3124 214.338C78.4341 222.859 83.1212 232.324 86.1881 242.359C87.8985 247.915 88.954 253.651 89.333 259.452C89.3251 259.49 89.3045 259.523 89.2747 259.547C89.2448 259.572 89.2076 259.585 89.1693 259.585C89.1309 259.585 89.0937 259.572 89.0638 259.547C89.034 259.523 89.0134 259.49 89.0055 259.452C87.7204 249.394 84.8659 239.6 80.5461 230.427C76.3019 221.436 70.9511 211.87 62.7683 205.915C58.313 202.675 53.3043 200.55 48.3102 198.307C48.0482 198.22 48.2302 197.849 48.4922 197.936Z" fill="#EBEBEB"/>
<path d="M82.9266 235.945C79.7638 233.067 76.2947 230.545 72.5817 228.425C66.8014 225.214 62.1058 223.103 60.6716 220.3C59.2375 217.497 63.7001 213.857 63.7001 213.857C63.7001 213.857 57.8033 216.769 55.3572 214.622C52.9112 212.474 47.7715 197.623 47.7715 197.623C47.7715 197.623 61.3924 202.464 69.8881 212.285C78.3839 222.106 82.9266 235.945 82.9266 235.945Z" fill="#EBEBEB"/>
<path d="M71.6207 222.272C70.2815 222.179 68.9369 222.345 67.6604 222.76C67.6604 222.76 67.6604 222.826 67.6604 222.818C68.9627 222.595 70.2784 222.459 71.5989 222.411C71.6935 222.411 71.7154 222.28 71.6207 222.272Z" fill="white"/>
<path d="M59.7397 206.694C59.1288 206.644 58.514 206.678 57.9124 206.796C57.8469 206.796 57.8688 206.912 57.9124 206.905C58.5167 206.84 59.1064 206.862 59.7033 206.847C59.7219 206.848 59.7401 206.842 59.7549 206.831C59.7697 206.82 59.7801 206.804 59.7844 206.785C59.7887 206.767 59.7866 206.748 59.7784 206.732C59.7703 206.715 59.7566 206.702 59.7397 206.694Z" fill="white"/>
<path d="M100.493 278.227H69.7498L74.1323 246.115L75.2534 237.881H94.9895L96.1106 246.115L100.493 278.227Z" fill="#DBDBDB"/>
<path d="M96.1106 246.115H74.1323L75.2534 237.881H94.9895L96.1106 246.115Z" fill="#C7C7C7"/>
<path d="M97.807 235.027H72.429V242.002H97.807V235.027Z" fill="#DBDBDB"/>
<path d="M50.2029 278.227L105.538 278.053L160.873 277.987L271.544 277.863L382.215 277.987L437.55 278.053L492.885 278.227L437.55 278.409L382.215 278.468L271.544 278.591L160.873 278.468L105.538 278.402L50.2029 278.227Z" fill="#263238"/>
<path d="M273 332.485C388.288 332.485 481.747 322.244 481.747 309.611C481.747 296.978 388.288 286.737 273 286.737C157.712 286.737 64.2532 296.978 64.2532 309.611C64.2532 322.244 157.712 332.485 273 332.485Z" fill="#EBEBEB"/>
<path d="M224.406 305.826C222.71 306.401 174.072 306.554 172.208 305.404C171.48 304.967 171.065 297.883 170.752 289.307C170.687 287.458 170.636 285.544 170.592 283.607L166.712 257.661L199.232 257.45L202.297 283.403L202.173 289.111C202.173 289.111 220.824 297.374 222.732 298.873C224.639 300.373 226.102 305.251 224.406 305.826Z" fill="#EB9481"/>
<path d="M224.406 305.826C222.71 306.401 174.072 306.554 172.208 305.403C171.349 304.865 170.883 294.52 170.621 283.607L202.26 283.403L202.136 289.111C202.136 289.111 220.788 297.374 222.695 298.873C224.603 300.373 226.102 305.251 224.406 305.826Z" fill="white"/>
<path d="M224.406 305.826C222.71 306.401 174.072 306.554 172.208 305.404C171.48 304.967 171.065 297.884 170.752 289.308L202.107 289.111C202.107 289.111 220.759 297.374 222.666 298.874C224.573 300.373 226.102 305.251 224.406 305.826Z" fill="#A6A6A6"/>
<path d="M223.7 303.883C215.546 303.708 182.641 303.788 174.567 304.239C174.502 304.239 174.502 304.283 174.567 304.29C182.648 304.632 215.554 304.29 223.7 304.014C223.875 304.006 223.875 303.883 223.7 303.883Z" fill="#263238"/>
<path d="M219.558 297.133C218.651 297.113 217.75 297.281 216.912 297.627C216.073 297.973 215.316 298.489 214.687 299.143C213.542 300.31 212.894 301.876 212.882 303.511C212.882 303.562 212.969 303.562 212.976 303.511C213.247 301.9 214.031 300.42 215.212 299.292C216.393 298.163 217.907 297.447 219.528 297.25C219.544 297.254 219.56 297.251 219.574 297.243C219.588 297.235 219.597 297.222 219.601 297.206C219.605 297.191 219.603 297.174 219.595 297.161C219.586 297.147 219.573 297.137 219.558 297.133Z" fill="#263238"/>
<path d="M205.296 289.912C202.035 289.876 198.256 291.04 196.232 293.719C196.16 293.821 196.305 293.931 196.4 293.88C199.249 292.375 202.251 291.18 205.354 290.312C205.402 290.299 205.444 290.269 205.471 290.227C205.498 290.186 205.509 290.136 205.502 290.086C205.495 290.037 205.47 289.992 205.432 289.96C205.394 289.928 205.346 289.911 205.296 289.912Z" fill="#263238"/>
<path d="M207.829 290.88C204.561 290.88 200.782 292.016 198.766 294.687C198.686 294.797 198.831 294.906 198.933 294.855C201.779 293.345 204.778 292.147 207.88 291.28C207.928 291.267 207.969 291.238 207.996 291.197C208.023 291.156 208.035 291.107 208.029 291.058C208.022 291.009 207.999 290.964 207.962 290.932C207.926 290.899 207.878 290.881 207.829 290.88Z" fill="#263238"/>
<path d="M210.348 291.856C207.087 291.856 203.309 292.984 201.285 295.663C201.212 295.765 201.358 295.874 201.452 295.823C204.302 294.319 207.304 293.123 210.407 292.256C210.455 292.243 210.496 292.213 210.523 292.171C210.551 292.129 210.562 292.079 210.555 292.03C210.547 291.981 210.523 291.936 210.485 291.904C210.447 291.872 210.398 291.854 210.348 291.856Z" fill="#263238"/>
<path d="M212.874 292.831C209.606 292.795 205.827 293.959 203.811 296.638C203.731 296.74 203.884 296.849 203.978 296.799C206.827 295.293 209.829 294.097 212.933 293.231C212.981 293.218 213.022 293.188 213.049 293.146C213.077 293.105 213.088 293.055 213.081 293.005C213.073 292.956 213.048 292.911 213.01 292.879C212.973 292.847 212.924 292.83 212.874 292.831Z" fill="#263238"/>
<path d="M176.62 296.485C172.98 296.485 172.98 302.2 176.62 302.178C180.26 302.157 180.289 296.464 176.62 296.485Z" fill="#263238"/>
<path d="M208.798 281.19C207.145 279.821 205.063 281.19 204.051 282.595C202.367 285.078 201.363 287.96 201.139 290.953C201.139 291.018 201.19 291.047 201.241 291.047C201.254 291.109 201.282 291.166 201.321 291.215C201.361 291.264 201.412 291.302 201.47 291.327C201.528 291.352 201.591 291.363 201.653 291.359C201.716 291.354 201.777 291.335 201.831 291.302C204.146 289.693 206.825 288.252 208.579 285.973C209.577 284.648 210.392 282.464 208.798 281.19ZM204.823 288.135C203.702 288.958 202.544 289.722 201.452 290.589C202.035 288.958 202.537 287.313 203.279 285.74C203.623 284.986 204.017 284.256 204.459 283.556C205.187 282.471 208.361 279.734 208.696 283.279C208.885 285.223 206.155 287.16 204.823 288.135Z" fill="#263238"/>
<path d="M193.015 292.191C195.854 292.613 198.788 291.798 201.576 291.354C201.636 291.338 201.692 291.308 201.739 291.267C201.786 291.225 201.823 291.174 201.846 291.116C201.87 291.058 201.879 290.995 201.874 290.933C201.869 290.87 201.849 290.81 201.816 290.757C201.827 290.748 201.835 290.738 201.841 290.726C201.847 290.714 201.85 290.701 201.85 290.687C201.85 290.674 201.847 290.661 201.841 290.649C201.835 290.637 201.827 290.626 201.816 290.618C199.576 288.62 196.849 287.247 193.91 286.636C192.192 286.309 189.76 286.782 189.542 288.915C189.28 290.924 191.355 291.929 193.015 292.191ZM191.034 290.342C188.85 287.546 193.022 287.306 194.274 287.597C195.086 287.8 195.884 288.058 196.662 288.369C198.254 289.029 199.812 289.77 201.328 290.589C199.945 290.728 198.584 290.975 197.208 291.164C195.563 291.383 192.258 291.878 191.034 290.342Z" fill="#263238"/>
<path d="M118.897 137.738C118.897 137.738 156.658 201.977 157.67 206.491C159.221 213.421 167.44 281.86 167.44 281.86L206.752 281.132C206.752 281.132 199.982 220.789 193.568 200.907C188.952 186.587 155.625 139.092 155.625 139.092L118.897 137.738Z" fill="#37474F"/>
<path d="M203.178 275.133C197.536 275.089 177.537 274.863 170.024 275.562C169.966 275.562 169.973 275.664 170.024 275.672C172.609 276.043 197.528 275.468 203.17 275.286C203.182 275.29 203.195 275.291 203.207 275.29C203.22 275.288 203.231 275.284 203.242 275.277C203.252 275.27 203.261 275.261 203.267 275.25C203.273 275.239 203.277 275.227 203.277 275.214C203.278 275.202 203.276 275.189 203.271 275.178C203.265 275.166 203.258 275.156 203.248 275.148C203.238 275.14 203.227 275.135 203.215 275.132C203.202 275.13 203.19 275.13 203.178 275.133Z" fill="#263238"/>
<path d="M125.34 143.635C127.815 147.515 130.436 151.315 132.955 155.166C135.473 159.018 138.007 162.869 140.504 166.713C145.483 174.478 150.337 182.294 155.064 190.161C157.371 193.808 159.345 197.655 160.961 201.657C162.436 205.659 163.545 209.786 164.273 213.989C165.045 218.204 165.554 222.463 166.028 226.722C166.513 231.25 167.02 235.78 167.549 240.313C168.583 249.588 169.619 258.863 170.658 268.138C170.781 269.273 170.905 270.409 171.022 271.552C171.022 271.719 170.738 271.748 170.716 271.552C169.558 262.343 168.597 253.097 167.549 243.888C167.025 239.292 166.503 234.698 165.984 230.107C165.496 225.833 165.03 221.553 164.368 217.309C163.76 213.119 162.835 208.982 161.601 204.933C160.242 200.74 158.421 196.711 156.17 192.921C151.62 185.065 146.801 177.349 141.982 169.625C137.162 161.9 132.212 154.111 127.131 146.481C126.504 145.542 125.871 144.603 125.216 143.679C125.165 143.628 125.296 143.562 125.34 143.635Z" fill="#263238"/>
<path d="M131.273 309.612C129.482 309.503 83.225 290.764 81.9437 288.988C81.8866 288.883 81.8613 288.764 81.8709 288.645C81.8709 287.051 85.0814 281.489 87.7604 274.18C87.9278 273.714 89.1218 271.545 90.7743 268.625C95.368 260.625 103.376 246.844 103.376 246.844L133.61 258.856L119.137 280.514L116.888 285.755C116.888 285.755 131.076 300.425 132.27 302.499C133.464 304.574 133.057 309.714 131.273 309.612Z" fill="#EB9481"/>
<path d="M131.273 309.611C129.482 309.502 83.225 290.763 81.9437 288.987C81.8866 288.883 81.8613 288.764 81.8709 288.645C81.8709 287.051 85.0814 281.489 87.7604 274.18C87.9278 273.714 89.1218 271.544 90.7743 268.625L119.166 280.513L116.917 285.755C116.917 285.755 131.106 300.424 132.299 302.499C133.493 304.574 133.057 309.713 131.273 309.611Z" fill="white"/>
<path d="M131.273 309.611C129.482 309.502 83.2249 290.764 81.9437 288.987C81.4486 288.31 83.5161 281.998 87.7677 274.18L116.888 285.762C116.888 285.762 131.076 300.417 132.278 302.506C133.479 304.596 133.057 309.713 131.273 309.611Z" fill="#A6A6A6"/>
<path d="M131.346 307.544C123.855 304.327 93.3222 292.053 85.6709 289.446C85.6054 289.446 85.5909 289.446 85.6709 289.49C93.031 292.839 123.658 304.865 131.317 307.69C131.462 307.726 131.506 307.61 131.346 307.544Z" fill="#263238"/>
<path d="M130.035 299.732C129.205 299.367 128.307 299.179 127.4 299.179C126.493 299.179 125.595 299.367 124.765 299.732C123.271 300.386 122.087 301.591 121.459 303.095C121.459 303.139 121.525 303.176 121.547 303.132C122.405 301.736 123.693 300.656 125.216 300.053C126.74 299.451 128.418 299.359 129.999 299.79C130.011 299.787 130.022 299.779 130.028 299.768C130.035 299.757 130.038 299.745 130.035 299.732Z" fill="#263238"/>
<path d="M119.53 287.692C116.524 286.432 112.578 286.097 109.702 287.823C109.593 287.888 109.702 288.041 109.797 288.034C113.003 287.709 116.234 287.726 119.436 288.085C119.485 288.09 119.534 288.078 119.575 288.049C119.616 288.02 119.644 287.978 119.656 287.93C119.668 287.882 119.661 287.831 119.638 287.787C119.615 287.743 119.577 287.709 119.53 287.692Z" fill="#263238"/>
<path d="M121.503 289.54C118.497 288.281 114.551 287.946 111.675 289.671C111.566 289.737 111.675 289.89 111.77 289.883C114.975 289.554 118.207 289.571 121.409 289.934C121.458 289.939 121.507 289.926 121.548 289.898C121.588 289.869 121.617 289.827 121.629 289.779C121.64 289.73 121.634 289.68 121.611 289.636C121.588 289.592 121.55 289.558 121.503 289.54Z" fill="#263238"/>
<path d="M123.483 291.39C120.47 290.131 116.524 289.796 113.655 291.521C113.539 291.587 113.655 291.739 113.743 291.732C116.948 291.403 120.18 291.42 123.382 291.783C123.432 291.792 123.483 291.781 123.526 291.753C123.569 291.725 123.6 291.683 123.613 291.633C123.625 291.584 123.619 291.532 123.595 291.487C123.571 291.442 123.531 291.407 123.483 291.39Z" fill="#263238"/>
<path d="M125.456 293.239C122.442 291.979 118.504 291.644 115.628 293.362C115.512 293.435 115.628 293.588 115.715 293.581C118.921 293.252 122.152 293.269 125.354 293.632C125.404 293.64 125.456 293.63 125.499 293.602C125.542 293.574 125.572 293.531 125.585 293.482C125.598 293.433 125.592 293.38 125.568 293.335C125.544 293.29 125.504 293.256 125.456 293.239Z" fill="#263238"/>
<path d="M90.4758 283.024C87.0761 281.67 84.9649 286.963 88.3792 288.317C91.7935 289.671 93.912 284.378 90.4758 283.024Z" fill="#263238"/>
<path d="M126.046 280.921C125.019 279.035 122.595 279.501 121.117 280.44C118.628 282.108 116.62 284.4 115.293 287.087C115.287 287.099 115.284 287.111 115.284 287.125C115.284 287.138 115.287 287.151 115.293 287.163C115.298 287.175 115.306 287.185 115.317 287.193C115.327 287.202 115.339 287.207 115.351 287.21C115.351 287.451 115.512 287.735 115.796 287.676C118.555 287.043 121.576 286.715 124.051 285.259C125.471 284.415 127.014 282.704 126.046 280.921ZM119.749 285.864C118.402 286.206 117.048 286.482 115.715 286.876C116.817 285.548 117.986 284.277 119.217 283.068C119.823 282.491 120.468 281.956 121.146 281.467C122.202 280.739 126.191 279.392 125.172 282.806C124.612 284.692 121.357 285.456 119.749 285.864Z" fill="#263238"/>
<path d="M107.285 285.195C109.761 286.651 112.782 286.993 115.534 287.634C115.817 287.699 116.007 287.415 115.985 287.168C115.999 287.166 116.012 287.161 116.023 287.153C116.034 287.145 116.043 287.135 116.049 287.122C116.055 287.11 116.057 287.096 116.056 287.082C116.055 287.069 116.051 287.055 116.043 287.044C114.719 284.352 112.711 282.054 110.219 280.383C108.763 279.436 106.324 278.963 105.291 280.841C104.257 282.72 105.837 284.343 107.285 285.195ZM106.15 282.734C105.138 279.32 109.12 280.674 110.175 281.409C110.853 281.899 111.496 282.437 112.097 283.018C113.326 284.23 114.492 285.503 115.592 286.833C114.26 286.44 112.906 286.156 111.559 285.814C109.928 285.377 106.703 284.649 106.15 282.734Z" fill="#263238"/>
<path d="M121.489 279.305L87.6438 265.64C87.6438 265.64 129.606 203.942 129.911 199.348C130.188 195.286 111.755 159.891 111.034 149.575C110.248 138.437 115.606 129.824 121.503 124.474L156.411 139.318C156.411 139.318 152.727 145.207 146.947 148.49C146.947 148.49 164.848 189.404 163.829 201.984C162.81 214.564 121.489 279.305 121.489 279.305Z" fill="#37474F"/>
<path d="M122.988 272.869C118.096 270.765 119.53 271.296 114.609 269.229C112.207 268.224 96.409 261.65 93.9774 261.104C93.9265 261.104 93.8901 261.177 93.941 261.206C96.045 262.495 111.974 268.792 114.398 269.753C119.356 271.704 117.95 271.093 122.93 272.985C122.937 272.995 122.947 273.003 122.959 273.008C122.97 273.013 122.982 273.015 122.995 273.014C123.007 273.013 123.019 273.009 123.029 273.002C123.04 272.995 123.048 272.985 123.053 272.974C123.059 272.963 123.062 272.951 123.061 272.938C123.06 272.926 123.057 272.914 123.05 272.904C123.044 272.893 123.035 272.884 123.024 272.878C123.013 272.872 123.001 272.869 122.988 272.869Z" fill="#263238"/>
<path d="M152.669 147.74C149.035 148.588 145.479 149.742 142.04 151.191C142.026 151.196 142.013 151.203 142.002 151.213C141.992 151.223 141.983 151.235 141.976 151.248C141.97 151.261 141.966 151.275 141.965 151.29C141.964 151.305 141.966 151.319 141.971 151.333C141.976 151.347 141.983 151.36 141.993 151.371C142.003 151.382 142.014 151.391 142.028 151.397C142.041 151.404 142.055 151.407 142.07 151.408C142.084 151.409 142.099 151.407 142.113 151.402C145.68 150.361 149.306 149.386 152.815 148.155C153.084 148.061 152.946 147.682 152.669 147.74Z" fill="#263238"/>
<path d="M148.512 146.329C148.173 146.932 147.874 147.557 147.617 148.2C147.365 148.687 147.21 149.219 147.158 149.765C147.158 149.874 147.304 149.896 147.369 149.83C147.734 149.393 148.029 148.902 148.243 148.374C148.541 147.799 148.847 147.231 149.131 146.642C149.327 146.212 148.738 145.936 148.512 146.329Z" fill="#263238"/>
<path d="M148.949 143.023C149.167 142.485 149.378 141.953 149.604 141.414C149.83 140.876 150.114 140.322 150.332 139.755C150.332 139.667 150.507 139.755 150.47 139.82C150.252 140.359 150.114 140.927 149.946 141.48C149.779 142.033 149.589 142.586 149.407 143.14C149.065 144.166 148.68 145.185 148.206 146.183C148.779 146.211 149.351 146.112 149.881 145.892C150.422 145.545 150.837 145.035 151.067 144.436C151.373 143.839 151.657 143.227 151.97 142.63C152.355 141.985 152.68 141.305 152.938 140.599C152.938 140.512 153.113 140.599 153.077 140.665C152.602 142.157 151.98 143.598 151.22 144.967C150.893 145.498 150.638 146.059 150.041 146.263C149.395 146.444 148.718 146.491 148.053 146.401C147.966 146.401 147.864 146.401 147.893 146.27C148.191 145.171 148.544 144.087 148.949 143.023Z" fill="#263238"/>
<path d="M147.464 149.822C148.709 152.451 149.801 155.071 150.958 157.692C152.116 160.313 153.142 162.846 154.183 165.453C156.265 170.709 158.129 176.067 159.767 181.469C160.575 184.148 161.325 186.849 161.995 189.571C162.732 192.285 163.272 195.049 163.611 197.841C163.903 200.629 163.656 203.447 162.883 206.141C162.08 208.804 161.05 211.393 159.803 213.879C159.039 215.452 158.784 215.241 159.148 214.447C160.189 212.19 162.919 205.354 162.723 199.61C162.563 196.861 162.139 194.132 161.456 191.464C160.82 188.712 160.104 185.982 159.308 183.274C157.758 177.931 155.916 172.696 154.023 167.469C152.96 164.557 151.839 161.645 150.747 158.733C149.655 155.821 148.563 153.142 147.34 149.924C147.303 149.793 147.427 149.742 147.464 149.822Z" fill="#263238"/>
<path d="M121.773 141.137C122.377 140.912 123.229 141.283 123.84 141.385C124.632 141.519 125.432 141.6 126.235 141.625C127.03 141.653 127.825 141.626 128.616 141.545C129.412 141.525 130.193 141.318 130.894 140.941C132.046 140.102 133.033 139.058 133.806 137.861C134.728 136.639 135.489 135.303 136.071 133.887C136.071 133.799 136.223 133.887 136.194 133.945C135.94 134.753 135.75 135.568 135.466 136.362C135.152 137.107 134.777 137.826 134.345 138.509C133.644 139.885 132.608 141.062 131.331 141.931C129.926 142.732 128.121 142.659 126.556 142.593C125.648 142.541 124.745 142.421 123.855 142.237C123.214 142.098 122.137 141.996 121.729 141.436C121.71 141.414 121.696 141.389 121.687 141.362C121.679 141.334 121.677 141.305 121.681 141.276C121.685 141.248 121.696 141.221 121.711 141.197C121.727 141.173 121.748 141.152 121.773 141.137Z" fill="#263238"/>
<path d="M97.3043 259.168C102.866 250.743 108.326 242.249 113.684 233.688C119.042 225.127 124.328 216.5 129.54 207.808C130.785 205.733 132.219 203.665 133.02 201.365C133.894 198.868 133.399 196.444 132.612 193.998C131.128 189.535 129.392 185.16 127.414 180.894C125.463 176.591 123.359 172.361 121.292 168.117C119.224 163.873 117.062 159.68 115.468 155.253C114.012 151.024 113.422 146.641 114.558 142.259C115.694 137.876 118.14 134.003 120.695 130.356C121.365 129.395 122.056 128.441 122.733 127.444C122.784 127.371 122.894 127.444 122.843 127.531C120.025 131.331 117.281 135.357 115.628 139.82C114.783 142.02 114.311 144.345 114.23 146.699C114.217 149.09 114.588 151.467 115.33 153.739C116.698 158.165 118.86 162.351 120.877 166.516C122.894 170.68 125.048 174.99 127.036 179.277C129.086 183.593 130.909 188.013 132.496 192.52C133.173 194.522 133.952 196.618 133.894 198.766C133.843 201.117 132.722 203.236 131.557 205.216C126.461 213.843 121.241 222.368 115.927 230.842C110.612 239.316 105.145 247.79 99.6121 256.176L97.5155 259.343C97.4063 259.474 97.217 259.321 97.3043 259.168Z" fill="#263238"/>
<path d="M158.347 100.078C161.5 106.994 177.421 116.524 184.876 117.55C190.234 118.278 206.526 118.54 212.11 117.689C218.662 116.684 213.653 99.03 209.788 99.4886C199.159 100.726 190.132 102.109 187.293 102.109C183.827 102.109 165.081 96.0961 162.825 95.2444C157.292 93.1841 156.564 96.1544 158.347 100.078Z" fill="#EB9481"/>
<path d="M158.449 101.92C162.439 107.825 175.695 117.478 175.695 117.478L177.537 113.401L183.631 99.9185C183.631 99.9185 171.451 96.0965 163.436 94.3493C162.493 94.1346 161.533 93.9983 160.568 93.9416C155.45 93.665 155.006 96.8245 158.449 101.92Z" fill="#0067D2"/>
<path d="M158.449 101.92C162.439 107.824 175.695 117.478 175.695 117.478L177.537 113.401C172.594 107.657 164.957 98.9574 160.568 93.956C155.45 93.6648 155.006 96.8244 158.449 101.92Z" fill="#263238"/>
<path d="M173.308 114.74C174.32 112.258 178.819 102.262 179.94 100.18C180.013 100.034 180.129 100.049 180.064 100.18C178.112 105.151 175.891 110.011 173.41 114.74C173.381 114.827 173.264 114.798 173.308 114.74Z" fill="#263238"/>
<path d="M207.837 99.6707C214.301 98.8262 222.302 97.3775 229.08 100.253C229.841 100.552 230.48 101.098 230.892 101.804C233.95 103.041 234.285 104.854 234.285 104.854C236.782 106.878 236.869 108.785 236.869 108.785C236.869 108.785 240.451 110.241 239.905 112.585C239.308 115.177 234.401 112.585 230.834 112.797C222.644 113.306 211.178 116.313 208.812 116.691L207.837 99.6707Z" fill="#EB9481"/>
<path d="M221.88 107.3C224.275 107.136 226.678 107.136 229.072 107.3C231.68 107.627 234.26 108.15 236.789 108.865C236.806 108.871 236.824 108.87 236.839 108.862C236.855 108.855 236.867 108.841 236.873 108.825C236.879 108.809 236.878 108.79 236.87 108.775C236.863 108.759 236.849 108.747 236.833 108.741C232.081 106.877 226.909 106.353 221.88 107.227C221.763 107.212 221.763 107.307 221.88 107.3Z" fill="#263238"/>
<path d="M220.358 99.7362C224.355 99.9401 226.852 100.581 230.871 101.789V101.746C226.445 99.8964 224.632 99.7217 220.337 99.5615C220.198 99.6198 220.206 99.7362 220.358 99.7362Z" fill="#263238"/>
<path d="M221.006 114.034C219.965 114.522 220.22 115.068 222.207 115.527C224.195 115.985 232.458 116.124 232.167 119.006C231.875 121.889 220.22 121.525 216.966 120.506C213.712 119.487 208.812 116.691 208.812 116.691C211.12 116.306 216.536 114.842 221.006 114.034Z" fill="#EB9481"/>
<path d="M167.003 111.101C166.952 112.345 166.836 113.612 166.661 114.872C166.661 114.821 166.661 114.777 166.712 114.733C166.952 114.078 167.193 113.408 167.484 112.775C167.484 112.775 167.557 112.775 167.549 112.775C167.409 113.469 167.2 114.147 166.923 114.799C166.792 115.112 166.668 115.418 166.53 115.723C166.443 116.284 166.341 116.837 166.232 117.39C166.013 118.431 165.03 122.858 164.776 123.608C164.732 123.76 164.543 123.724 164.557 123.549C164.608 122.734 165.431 118.126 165.598 117.077C165.923 115.053 166.358 113.048 166.901 111.071C166.938 111.035 167.011 111.064 167.003 111.101Z" fill="#263238"/>
<path d="M159.432 144.203C157.488 145.2 154.984 146.751 143.7 144.53C142.972 144.385 142.288 144.21 141.574 143.999C130.996 140.825 118.278 128.383 117.587 127.503C117.587 127.503 134.396 100.254 155.894 91.685C158.551 90.6294 162.948 92.6678 165.358 95.2085C166.224 96.1185 168.11 102.809 167.389 108.225C166.668 113.641 161.369 143.206 159.432 144.203Z" fill="#0067D2"/>
<path d="M157.918 107.978C157.999 109.129 157.838 110.285 157.444 111.37C157.352 110.218 157.514 109.06 157.918 107.978Z" fill="white"/>
<path d="M150.587 126.534C150.633 127.107 150.613 127.684 150.528 128.252C150.458 128.825 150.319 129.387 150.113 129.927C150.063 129.351 150.083 128.772 150.172 128.201C150.246 127.632 150.385 127.072 150.587 126.534Z" fill="white"/>
<path d="M138.131 112.506C138.213 113.66 138.051 114.818 137.657 115.906C137.566 114.751 137.727 113.591 138.131 112.506Z" fill="white"/>
<path d="M162.715 125.588C162.762 126.163 162.742 126.742 162.657 127.313C162.587 127.886 162.448 128.448 162.242 128.988C162.192 128.412 162.212 127.833 162.3 127.262C162.374 126.69 162.513 126.128 162.715 125.588Z" fill="white"/>
<path d="M146.721 110.103C147.294 110.055 147.87 110.072 148.439 110.154C149.012 110.227 149.575 110.369 150.114 110.576C148.962 110.659 147.806 110.498 146.721 110.103Z" fill="white"/>
<path d="M132.583 123.506C133.735 123.425 134.89 123.586 135.976 123.979C134.824 124.071 133.666 123.91 132.583 123.506Z" fill="white"/>
<path d="M149.24 138.014C150.392 137.932 151.548 138.093 152.632 138.487C151.481 138.578 150.323 138.417 149.24 138.014Z" fill="white"/>
<path d="M128.223 132.744C129.374 132.663 130.53 132.824 131.615 133.217C130.463 133.308 129.306 133.147 128.223 132.744Z" fill="white"/>
<path d="M157.809 94.9316C158.96 94.8504 160.116 95.0116 161.201 95.4048C160.05 95.486 158.894 95.3247 157.809 94.9316Z" fill="white"/>
<path d="M153.695 99.5762C153.327 100.019 152.907 100.415 152.443 100.756C151.992 101.104 151.504 101.402 150.987 101.644C151.353 101.204 151.768 100.808 152.225 100.464C152.68 100.114 153.174 99.8162 153.695 99.5762Z" fill="white"/>
<path d="M131.28 112.774C130.908 113.213 130.485 113.606 130.021 113.946C129.574 114.302 129.085 114.6 128.565 114.835C128.939 114.398 129.362 114.005 129.824 113.663C130.272 113.309 130.761 113.01 131.28 112.774Z" fill="white"/>
<path d="M159.272 118.729C158.899 119.17 158.477 119.566 158.012 119.909C157.565 120.263 157.076 120.561 156.556 120.797C156.929 120.356 157.351 119.96 157.816 119.618C158.266 119.267 158.754 118.969 159.272 118.729Z" fill="white"/>
<path d="M141.145 130.145C140.772 130.585 140.35 130.981 139.885 131.324C139.437 131.677 138.948 131.975 138.429 132.212C138.802 131.771 139.224 131.375 139.689 131.033C140.139 130.682 140.627 130.384 141.145 130.145Z" fill="white"/>
<path d="M166.217 103.136C165.844 103.577 165.422 103.972 164.957 104.315C164.506 104.664 164.018 104.962 163.501 105.203C163.874 104.762 164.297 104.367 164.761 104.024C165.209 103.671 165.698 103.373 166.217 103.136Z" fill="white"/>
<path d="M165.839 116.364C165.398 115.991 165.002 115.569 164.659 115.104C164.305 114.657 164.007 114.168 163.771 113.648C164.213 114.016 164.609 114.437 164.95 114.901C165.298 115.355 165.596 115.846 165.839 116.364Z" fill="white"/>
<path d="M125.434 125.478C124.994 125.106 124.598 124.683 124.255 124.219C123.905 123.769 123.607 123.28 123.367 122.763C123.808 123.135 124.204 123.558 124.546 124.022C124.899 124.47 125.197 124.959 125.434 125.478Z" fill="white"/>
<path d="M160.924 136.319C160.482 135.95 160.086 135.53 159.745 135.066C159.396 134.615 159.098 134.127 158.857 133.61C159.298 133.983 159.694 134.405 160.036 134.87C160.388 135.317 160.686 135.803 160.924 136.319Z" fill="white"/>
<path d="M143.139 105.414C142.699 105.044 142.303 104.624 141.96 104.162C141.613 103.71 141.315 103.222 141.072 102.706C141.514 103.074 141.91 103.495 142.251 103.958C142.598 104.41 142.896 104.898 143.139 105.414Z" fill="white"/>
<path d="M143.452 142.492C143.011 142.119 142.616 141.697 142.273 141.232C141.924 140.782 141.626 140.293 141.385 139.776C141.827 140.144 142.223 140.565 142.564 141.029C142.914 141.481 143.212 141.972 143.452 142.492Z" fill="white"/>
<path d="M146.474 120.623C146.037 120.248 145.644 119.826 145.301 119.363C144.946 118.917 144.648 118.428 144.413 117.907C144.852 118.28 145.245 118.702 145.585 119.167C145.939 119.614 146.238 120.103 146.474 120.623Z" fill="white"/>
<path d="M161.42 102.467C158.675 101.957 156.098 96.286 155.77 92.4713C155.77 92.2092 157.052 90.1344 158.515 87.5355C159.403 85.9557 160.342 84.1721 161.092 82.4832C161.245 82.141 162.14 83.2985 162.14 83.2985L164.091 84.7545L170.534 89.6977C169 91.5387 167.697 93.5606 166.654 95.7182C166.551 95.952 166.473 96.196 166.421 96.4462C166.418 96.4874 166.418 96.5288 166.421 96.57C166.021 98.0114 164.062 102.955 161.42 102.467Z" fill="#EB9481"/>
<path d="M166.421 96.4822C166.418 96.5234 166.418 96.5648 166.421 96.606C166.038 96.4938 165.666 96.3501 165.307 96.1764C158.253 92.8713 161.361 83.4219 161.361 83.4219L164.128 84.7905L170.57 89.7336C169.036 91.5747 167.733 93.5965 166.69 95.7542C166.575 95.9866 166.484 96.2306 166.421 96.4822Z" fill="#263238"/>
<path d="M177.938 69.583C177.938 69.583 181.163 71.6287 181.177 75.2687C181.192 78.9087 179.721 82.4686 179.416 82.5996C179.11 82.7307 177.938 69.583 177.938 69.583Z" fill="#263238"/>
<path d="M161.936 71.4757C160 75.2977 160.102 87.3461 162.519 90.4474C166.028 94.9464 172.784 96.497 176.868 92.049C180.821 87.7392 180.413 72.0435 177.596 69.117C173.497 64.7926 164.805 65.8191 161.936 71.4757Z" fill="#EB9481"/>
<path d="M172.216 81.1211C172.216 81.1211 172.15 81.1648 172.157 81.1939C172.201 82.0165 172.114 82.9629 171.378 83.2541C171.378 83.2541 171.378 83.3051 171.378 83.2978C172.288 83.1522 172.39 81.8928 172.216 81.1211Z" fill="#263238"/>
<path d="M171.466 80.2837C170.141 80.2109 170.097 82.8608 171.328 82.9263C172.558 82.9919 172.572 80.3419 171.466 80.2837Z" fill="#263238"/>
<path d="M176.708 81.0918C176.708 81.0918 176.773 81.0918 176.773 81.1646C176.729 81.9872 176.824 82.9336 177.567 83.2176C177.567 83.2176 177.567 83.2685 177.567 83.2612C176.649 83.1229 176.54 81.8635 176.708 81.0918Z" fill="#263238"/>
<path d="M177.457 80.2479C178.775 80.1678 178.841 82.8177 177.617 82.8905C176.394 82.9633 176.351 80.3134 177.457 80.2479Z" fill="#263238"/>
<path d="M170.636 78.2676C170.984 78.1686 171.326 78.052 171.662 77.9182C172.045 77.849 172.393 77.6543 172.652 77.3649C172.715 77.2589 172.742 77.1352 172.727 77.0128C172.713 76.8904 172.658 76.7762 172.572 76.6878C172.375 76.5381 172.142 76.4436 171.896 76.4142C171.651 76.3847 171.401 76.4214 171.175 76.5204C170.683 76.6519 170.258 76.9605 169.981 77.3867C169.925 77.4881 169.9 77.6033 169.908 77.7185C169.916 77.8338 169.957 77.9443 170.026 78.037C170.095 78.1298 170.189 78.2007 170.297 78.2416C170.405 78.2825 170.523 78.2915 170.636 78.2676Z" fill="#263238"/>
<path d="M178.36 79.4393C178.006 79.3602 177.656 79.263 177.312 79.1481C176.928 79.0974 176.572 78.9207 176.3 78.6458C176.23 78.5446 176.196 78.4226 176.204 78.2997C176.212 78.1768 176.261 78.0602 176.344 77.9688C176.531 77.8083 176.759 77.7012 177.002 77.659C177.246 77.6167 177.496 77.6407 177.727 77.7285C178.225 77.8317 178.666 78.1174 178.964 78.5293C179.027 78.6268 179.059 78.7404 179.058 78.8561C179.057 78.9719 179.023 79.0848 178.959 79.1813C178.895 79.2777 178.804 79.3534 178.698 79.3992C178.591 79.4451 178.474 79.459 178.36 79.4393Z" fill="#263238"/>
<path d="M170.352 88.9036C170.548 89.1002 170.738 89.3623 171.036 89.3914C171.342 89.3912 171.645 89.3267 171.924 89.2021C171.924 89.2021 171.975 89.2021 171.924 89.2458C171.805 89.4058 171.644 89.5303 171.46 89.606C171.275 89.6817 171.073 89.7056 170.876 89.6753C170.71 89.63 170.56 89.5368 170.447 89.4074C170.333 89.278 170.259 89.118 170.235 88.9473C170.23 88.9319 170.23 88.9148 170.237 88.8997C170.244 88.8847 170.256 88.873 170.272 88.8672C170.287 88.8614 170.304 88.862 170.319 88.8689C170.334 88.8757 170.346 88.8882 170.352 88.9036Z" fill="#263238"/>
<path d="M175.113 85.3944C175.113 85.3944 175.15 86.6175 175.113 87.1926C173.995 87.0739 172.865 87.1131 171.757 87.3091C171.495 87.3673 171.524 87.1562 171.823 87.0179C172.715 86.6101 173.709 86.4782 174.676 86.6393C174.735 86.4864 174.582 84.7465 174.676 84.7538C175.117 84.8402 175.543 84.9872 175.943 85.1906C175.943 82.628 175.535 80.0946 175.572 77.532C175.572 77.4447 175.71 77.4301 175.725 77.532C176.242 80.2429 176.486 82.9988 176.453 85.7584C176.46 86.0715 175.332 85.5109 175.113 85.3944Z" fill="#263238"/>
<path d="M173.475 86.7558C173.185 87.5192 172.646 88.1628 171.946 88.5831C170.847 89.0272 170.49 88.0298 171.597 87.1271C172.177 86.8338 172.827 86.7054 173.475 86.7558Z" fill="#263238"/>
<path d="M172.332 88.3573C172.216 88.4519 172.086 88.528 171.946 88.5829C170.934 88.9906 170.534 88.1825 171.349 87.3672C171.903 87.4109 172.536 87.6147 172.332 88.3573Z" fill="#FF99BA"/>
<path d="M161.383 81.7765C162.715 82.1842 164.244 78.1802 164.681 76.6805C165.059 75.3265 165.496 71.024 165.562 70.7255C165.627 70.427 171.386 74.5329 174.72 73.5574C178.054 72.5819 180.318 69.5607 180.369 68.1557C180.42 66.7506 176.249 63.1834 172.645 63.0014C169.042 62.8194 164.157 67.3694 164.157 67.3694C164.747 66.6998 165.282 65.9841 165.758 65.2291C165.7 65.0689 163.37 66.0008 162.941 67.6606C162.941 67.6606 163.407 65.5712 163.232 65.5348C163.057 65.4984 161.245 67.2821 161.652 68.6361C161.652 68.6361 159.556 70.4489 159.366 72.4363C159.177 74.4237 159.818 81.2961 161.383 81.7765Z" fill="#263238"/>
<path d="M177.108 72.8005C176.116 73.3381 175.048 73.7211 173.941 73.9362C172.698 74.047 171.447 73.8469 170.301 73.3538C169.146 72.9077 168.074 72.273 167.127 71.4755C166.29 70.7912 165.54 69.954 164.645 69.3425C164.419 69.1823 164.164 69.5099 164.302 69.7138C165.796 71.8239 167.93 73.3965 170.388 74.1982C171.53 74.5705 172.749 74.64 173.925 74.4001C175.102 74.1602 176.196 73.6191 177.101 72.8296C177.101 72.8296 177.122 72.8005 177.108 72.8005Z" fill="#263238"/>
<path d="M162.774 81.4203C162.774 81.4203 160.706 77.227 158.842 77.9041C156.979 78.5811 158.114 84.3833 160.029 85.4461C160.264 85.5979 160.526 85.7007 160.801 85.7484C161.077 85.7961 161.359 85.7878 161.631 85.7239C161.903 85.66 162.159 85.5418 162.384 85.3765C162.609 85.2112 162.799 85.0021 162.941 84.7618L162.774 81.4203Z" fill="#EB9481"/>
<path d="M159.214 79.5557C159.214 79.5557 159.17 79.5557 159.214 79.6139C160.538 80.4001 161.077 81.7979 161.398 83.2539C161.337 83.0998 161.244 82.9606 161.125 82.8459C161.005 82.7313 160.862 82.644 160.706 82.59C160.55 82.536 160.383 82.5166 160.219 82.5332C160.054 82.5498 159.895 82.6019 159.752 82.6861C159.709 82.6861 159.752 82.7661 159.752 82.7661C160.013 82.7256 160.279 82.7669 160.515 82.8843C160.751 83.0016 160.945 83.1892 161.07 83.4213C161.278 83.8101 161.444 84.2201 161.565 84.6444C161.609 84.7827 161.849 84.7463 161.827 84.5934C162.14 82.7807 161.121 80.0361 159.214 79.5557Z" fill="#263238"/>
<path d="M149.124 100.144C147.668 108.392 156.607 136.18 162.337 141.371C170.862 149.088 186.623 154.162 192.338 155.814C194.827 156.542 201.714 139.019 199.195 137.862C193.801 135.408 177.042 130.167 175.448 128.856C173.854 127.546 164.244 113.663 159.963 105.67C154.234 94.9098 149.844 95.9727 149.124 100.144Z" fill="#EB9481"/>
<path d="M194.951 136.318C194.951 136.318 202.391 138.218 207.189 139.682C209.868 140.504 214.338 142.317 216.034 143.817C218.568 146.066 227.726 157.074 225.105 159.352C222.732 161.42 216.063 150.958 216.063 150.958C216.063 150.958 223.722 160.917 220.431 162.876C217.141 164.834 211.12 152.014 211.12 152.014C211.12 152.014 218.757 162.424 215.022 163.902C212.197 165.016 206.141 153.71 206.141 153.71C206.141 153.71 212.649 162.701 209.781 163.975C206.621 165.387 200.382 155.297 200.382 155.297C192.578 157.314 188.006 155.079 184.999 153.113C184.293 152.633 194.951 136.318 194.951 136.318Z" fill="#EB9481"/>
<path d="M213.632 147.34C214.578 148.476 215.539 149.626 216.376 150.842C217.213 152.058 218.007 153.31 218.728 154.598C219.704 156.265 220.486 158.038 221.057 159.884C219.805 156.68 216.871 152.276 216.034 151.06C215.197 149.845 214.418 148.585 213.588 147.369C213.566 147.34 213.61 147.311 213.632 147.34Z" fill="#263238"/>
<path d="M209.184 150.288C210.8 151.57 214.185 156.331 215.488 159.527C215.546 159.658 215.488 159.65 215.393 159.527C214.374 157.947 210.239 151.832 209.147 150.31C209.125 150.288 209.162 150.267 209.184 150.288Z" fill="#263238"/>
<path d="M204.91 152.152C206.918 154.258 208.505 156.73 209.584 159.432C209.635 159.563 209.533 159.541 209.453 159.432C207.946 156.979 206.781 155.064 204.83 152.218C204.801 152.152 204.866 152.087 204.91 152.152Z" fill="#263238"/>
<path d="M157.248 100.749C150.601 91.3501 146.626 94.8299 147.959 105.036C149.211 114.581 152.552 125.952 152.552 125.952L169.296 117.827C169.296 117.827 161.478 106.769 157.248 100.749Z" fill="#0067D2"/>
<path d="M161.288 104.446C161.509 104.977 161.668 105.532 161.762 106.099C161.864 106.668 161.9 107.247 161.871 107.824C161.652 107.291 161.496 106.734 161.405 106.164C161.297 105.599 161.257 105.022 161.288 104.446Z" fill="white"/>
<path d="M151.366 110.161C152.434 109.727 153.584 109.528 154.736 109.579C154.205 109.797 153.651 109.954 153.084 110.045C152.518 110.153 151.941 110.192 151.366 110.161Z" fill="white"/>
<path d="M151.795 95.543C151.345 96.6069 150.672 97.5624 149.823 98.3458C150.273 97.2818 150.946 96.3263 151.795 95.543Z" fill="white"/>
<path d="M165.984 114.551C165.763 115.083 165.482 115.589 165.147 116.058C164.82 116.533 164.439 116.968 164.011 117.354C164.462 116.29 165.135 115.334 165.984 114.551Z" fill="white"/>
<path d="M154.336 120.251C153.802 120.033 153.296 119.752 152.829 119.414C152.354 119.088 151.919 118.707 151.533 118.278C152.597 118.729 153.553 119.402 154.336 120.251Z" fill="white"/>
<path d="M159.432 103.58C160.328 104.81 161.252 106.012 162.169 107.22C161.936 106.609 161.733 105.99 161.558 105.364H161.602C161.784 105.844 161.995 106.317 162.169 106.82L162.431 107.548C162.454 107.597 162.473 107.648 162.49 107.701C163.218 108.64 163.946 109.579 164.615 110.54C165.438 111.69 166.232 112.855 167.032 114.02C167.833 115.184 168.641 116.633 169.508 117.805C169.588 117.907 168.052 118.533 167.884 118.613C167.717 118.693 167.629 118.555 167.79 118.504C167.95 118.453 169.173 117.703 169.187 117.689C168.386 116.509 167.462 115.425 166.625 114.282C165.788 113.139 164.958 111.996 164.15 110.838C162.512 108.48 161.012 106.033 159.381 103.667L159.432 103.58Z" fill="#263238"/>
<path d="M148.352 111.792C148.607 112.287 148.883 112.775 149.08 113.284L149.356 113.918C148.971 112.105 148.628 110.278 148.228 108.465C149 111.377 149.779 114.354 150.492 117.31C151.169 120.135 151.992 122.988 152.385 125.871C152.893 125.649 153.419 125.471 153.957 125.34C153.417 125.69 152.835 125.971 152.225 126.177C151.347 123.246 150.618 120.271 150.041 117.266C149.859 116.451 149.691 115.636 149.517 114.82C149.327 114.325 149.102 113.852 148.876 113.364C148.65 112.877 148.446 112.331 148.243 111.814C148.286 111.785 148.337 111.755 148.352 111.792Z" fill="#263238"/>
<path d="M152.8 123.141C155.13 121.831 164.863 116.793 167.04 115.861C167.192 115.796 167.273 115.861 167.12 115.963C162.5 118.648 157.736 121.078 152.851 123.243C152.793 123.258 152.734 123.178 152.8 123.141Z" fill="#263238"/>
<path d="M419.561 314.532H197.754L229.822 132.642H451.629L419.561 314.532Z" fill="#0067D2"/>
<path d="M305.738 113.801H233.149L229.822 132.641H307.507L305.738 113.801Z" fill="#0067D2"/>
<g opacity="0.1">
<path d="M419.561 314.532H197.754L229.822 132.642H451.629L419.561 314.532Z" fill="black"/>
<path d="M305.738 113.801H233.149L229.822 132.641H307.507L305.738 113.801Z" fill="black"/>
</g>
<path d="M225.316 121.489C224.831 119.406 224.831 117.239 225.316 115.155C225.801 117.239 225.801 119.406 225.316 121.489Z" fill="#263238"/>
<path d="M218.866 123.352C218.124 122.584 217.486 121.723 216.966 120.79C216.42 119.877 215.992 118.898 215.692 117.878C216.435 118.642 217.074 119.501 217.592 120.433C218.136 121.35 218.564 122.33 218.866 123.352Z" fill="#263238"/>
<path d="M214.207 128.193C212.161 127.571 210.286 126.488 208.725 125.026C209.745 125.323 210.724 125.749 211.637 126.293C212.569 126.817 213.433 127.455 214.207 128.193Z" fill="#263238"/>
<path d="M212.576 134.717C210.493 135.202 208.326 135.202 206.242 134.717C208.326 134.231 210.493 134.231 212.576 134.717Z" fill="#263238"/>
<path d="M214.469 141.166C213.697 141.903 212.836 142.542 211.906 143.066C210.993 143.61 210.015 144.036 208.994 144.333C209.763 143.592 210.624 142.953 211.557 142.433C212.468 141.886 213.447 141.46 214.469 141.166Z" fill="#263238"/>
<path d="M219.303 145.818C218.683 147.867 217.599 149.745 216.136 151.307C216.432 150.286 216.86 149.307 217.41 148.395C217.929 147.46 218.565 146.594 219.303 145.818Z" fill="#263238"/>
<path d="M225.825 147.427C226.079 148.463 226.202 149.527 226.189 150.594C226.205 151.66 226.083 152.725 225.825 153.76C225.565 152.726 225.442 151.661 225.461 150.594C225.449 149.527 225.572 148.463 225.825 147.427Z" fill="#263238"/>
<path d="M232.276 145.6C233.017 146.368 233.656 147.23 234.176 148.162C234.723 149.074 235.149 150.052 235.442 151.074C233.979 149.512 232.895 147.634 232.276 145.585V145.6Z" fill="#263238"/>
<path d="M236.927 140.723C237.949 141.017 238.928 141.442 239.839 141.989C240.772 142.51 241.633 143.148 242.402 143.889C241.38 143.596 240.402 143.17 239.49 142.623C238.557 142.103 237.696 141.464 236.927 140.723Z" fill="#263238"/>
<path d="M238.536 134.199C240.622 133.714 242.791 133.714 244.877 134.199C242.791 134.684 240.622 134.684 238.536 134.199Z" fill="#263238"/>
<path d="M236.673 127.749C237.443 127.012 238.305 126.376 239.235 125.856C240.145 125.304 241.124 124.875 242.147 124.582C240.585 126.045 238.707 127.129 236.658 127.749H236.673Z" fill="#263238"/>
<path d="M231.832 123.098C232.131 122.078 232.557 121.1 233.098 120.186C233.618 119.253 234.257 118.392 234.998 117.623C234.704 118.645 234.279 119.624 233.732 120.535C233.211 121.468 232.573 122.329 231.832 123.098Z" fill="#263238"/>
<path d="M419.233 314.532H196.953L165.387 139.244H387.675L419.233 314.532Z" fill="#0067D2"/>
<path d="M242.417 246.399C247.519 246.399 251.655 242.262 251.655 237.16C251.655 232.058 247.519 227.922 242.417 227.922C237.314 227.922 233.178 232.058 233.178 237.16C233.178 242.262 237.314 246.399 242.417 246.399Z" fill="white"/>
<path d="M315.45 246.399C320.552 246.399 324.688 242.262 324.688 237.16C324.688 232.058 320.552 227.922 315.45 227.922C310.348 227.922 306.211 232.058 306.211 237.16C306.211 242.262 310.348 246.399 315.45 246.399Z" fill="white"/>
<path d="M292.205 247.876L291.695 246.908C291.651 246.821 286.876 237.997 277.273 237.997C268.537 237.997 266.353 246.304 266.295 246.661L266.033 247.716L263.915 247.207L264.169 246.144C264.169 246.042 266.776 235.813 277.273 235.813C288.193 235.813 293.413 245.481 293.632 245.896L294.141 246.857L292.205 247.876Z" fill="white"/>
<path d="M404.557 236.454L404.404 235.726C404.877 235.625 405.343 235.515 405.809 235.392L405.991 236.12C405.496 236.243 405.037 236.353 404.557 236.454Z" fill="#263238"/>
<path d="M408.808 235.283L408.575 234.599C409.485 234.285 410.395 233.943 411.276 233.572L411.56 234.242C410.665 234.62 409.74 234.97 408.808 235.283ZM414.232 232.961L413.904 232.32C414.756 231.876 415.608 231.395 416.416 230.864L416.794 231.483C415.965 232.058 415.098 232.546 414.232 232.961ZM419.241 229.881L418.811 229.291C419.597 228.716 420.354 228.112 421.068 227.493L421.548 228.039C420.784 228.702 420.056 229.321 419.233 229.91L419.241 229.881ZM423.681 226.008L423.15 225.506C423.82 224.778 424.453 224.05 425.035 223.322L425.611 223.766C425.006 224.567 424.358 225.317 423.696 226.037L423.681 226.008ZM427.285 221.349L426.666 220.963C427.169 220.15 427.617 219.303 428.006 218.43L428.675 218.728C428.264 219.639 427.797 220.524 427.278 221.378L427.285 221.349ZM429.695 215.947L428.967 215.743C429.233 214.83 429.43 213.898 429.556 212.955L430.284 213.05C430.164 214.04 429.964 215.018 429.687 215.976L429.695 215.947ZM430.503 210.123H429.775V209.912C429.775 209.031 429.724 208.136 429.636 207.255L430.364 207.182C430.46 208.089 430.509 209 430.51 209.912L430.503 210.123ZM429.192 204.423C428.996 203.484 428.753 202.556 428.464 201.642L429.192 201.424C429.491 202.37 429.746 203.331 429.92 204.27L429.192 204.423ZM427.467 198.941C427.118 198.082 426.739 197.201 426.273 196.313L426.928 195.985C427.372 196.888 427.78 197.791 428.137 198.664L427.467 198.941ZM424.919 193.75C424.468 192.957 423.973 192.12 423.463 191.261L424.082 190.875C424.613 191.741 425.116 192.586 425.538 193.394L424.919 193.75ZM421.876 188.807C421.344 188.007 420.806 187.198 420.252 186.39L420.857 185.983C421.41 186.791 421.949 187.599 422.48 188.414L421.876 188.807ZM418.6 183.988C418.054 183.187 417.501 182.379 416.962 181.578L417.566 181.171C418.105 181.971 418.651 182.779 419.197 183.573L418.6 183.988ZM415.346 179.14C414.814 178.324 414.297 177.494 413.788 176.664L414.407 176.286C414.916 177.116 415.433 177.931 415.957 178.746L415.346 179.14ZM412.31 174.138C411.815 173.257 411.356 172.384 410.941 171.546L411.597 171.219C412.004 172.049 412.463 172.908 412.943 173.781L412.31 174.138ZM409.726 168.897C409.34 167.987 408.998 167.062 408.677 166.159L409.405 165.926C409.711 166.807 410.053 167.717 410.432 168.613L409.726 168.897ZM407.833 163.342C407.593 162.395 407.381 161.427 407.221 160.43L407.949 160.313C408.109 161.245 408.306 162.192 408.546 163.124L407.833 163.342ZM406.857 157.518C406.784 156.622 406.748 155.72 406.748 154.817V154.577H407.476V154.81C407.476 155.691 407.476 156.579 407.585 157.452L406.857 157.518ZM407.585 151.694L406.857 151.621C406.857 151.425 406.894 151.221 406.916 151.01C407.003 150.231 407.112 149.452 407.243 148.709L407.971 148.833C407.847 149.561 407.738 150.325 407.651 151.09C407.68 151.315 407.68 151.512 407.622 151.716L407.585 151.694ZM408.597 146.03L407.869 145.834C408.139 144.873 408.452 143.933 408.801 143.038L409.478 143.3C409.147 144.201 408.865 145.12 408.634 146.052L408.597 146.03ZM444.873 141.786C444.466 141.786 444.044 141.728 443.629 141.669C443.061 141.589 442.493 141.495 441.932 141.385L442.078 140.657C442.617 140.759 443.177 140.854 443.73 140.934C444.124 140.985 444.524 141.021 444.91 141.043L444.873 141.786ZM447.866 141.56L447.713 140.832C448.626 140.643 449.502 140.304 450.304 139.827L450.683 140.446C449.826 140.977 448.886 141.361 447.902 141.582L447.866 141.56ZM410.694 140.694L410.046 140.352C410.509 139.483 411.022 138.642 411.582 137.833L412.179 138.248C411.647 139.041 411.163 139.865 410.73 140.716L410.694 140.694ZM439.086 140.65C438.146 140.352 437.223 140.005 436.319 139.609L436.618 138.939C437.493 139.328 438.39 139.666 439.304 139.951L439.086 140.65ZM452.918 138.379L452.314 137.971C452.832 137.219 453.139 136.342 453.202 135.43L453.93 135.481C453.868 136.526 453.526 137.534 452.94 138.401L452.918 138.379ZM433.699 138.27C432.847 137.774 432.023 137.232 431.231 136.646L431.66 136.064C432.431 136.632 433.233 137.157 434.063 137.636L433.699 138.27ZM413.97 135.998L413.431 135.51C414.09 134.777 414.793 134.084 415.535 133.436L416.016 133.982C415.301 134.621 414.626 135.301 413.992 136.02L413.97 135.998ZM428.959 134.768C428.234 134.1 427.547 133.393 426.899 132.649L427.445 132.169C428.075 132.891 428.743 133.579 429.447 134.229L428.959 134.768ZM452.656 132.795C452.239 131.963 451.662 131.221 450.96 130.611L451.44 130.065C452.213 130.734 452.849 131.548 453.311 132.46L452.656 132.795ZM418.28 132.22L417.865 131.623C418.679 131.067 419.522 130.554 420.391 130.087L420.733 130.728C419.897 131.19 419.085 131.695 418.301 132.242L418.28 132.22ZM425.079 130.327C424.802 129.934 424.533 129.534 424.278 129.119L423.332 129.49L423.055 128.82L423.892 128.485C423.761 128.267 423.63 128.048 423.507 127.83L424.14 127.473C424.286 127.728 424.431 127.983 424.584 128.201C424.992 128.056 425.407 127.917 425.829 127.786L426.04 128.514C425.683 128.624 425.312 128.74 424.977 128.864C425.203 129.221 425.436 129.592 425.705 129.905L425.079 130.327ZM448.615 129.075C447.911 128.724 447.181 128.427 446.431 128.187L445.951 128.034L446.162 127.306L446.657 127.466C447.437 127.715 448.196 128.024 448.928 128.391L448.615 129.075ZM428.828 127.772L428.675 127.044C429.615 126.833 430.59 126.658 431.587 126.52L431.697 127.248C430.736 127.401 429.782 127.583 428.85 127.794L428.828 127.772ZM443.17 127.379C442.26 127.219 441.299 127.095 440.316 127.007L440.374 126.279C441.386 126.367 442.369 126.491 443.286 126.658L443.17 127.379ZM434.543 126.956L434.492 126.228C435.358 126.177 436.225 126.148 437.084 126.148H437.441V126.876H437.091C436.268 126.898 435.409 126.92 434.565 126.978L434.543 126.956ZM422.24 125.217C421.847 124.328 421.512 123.404 421.184 122.465L421.912 122.239C422.218 123.156 422.56 124.059 422.939 124.925L422.24 125.217ZM420.398 119.626C420.18 118.686 419.998 117.711 419.859 116.714L420.587 116.612C420.726 117.573 420.9 118.526 421.112 119.451L420.398 119.626ZM419.583 113.802C419.546 113.146 419.524 112.477 419.524 111.807C419.524 111.494 419.524 111.173 419.524 110.86H420.252C420.252 111.173 420.252 111.479 420.252 111.792C420.252 112.447 420.252 113.11 420.303 113.743L419.583 113.802ZM420.449 107.978L419.721 107.905C419.823 106.944 419.961 105.961 420.129 104.993L420.857 105.116C420.66 106.085 420.522 107.017 420.427 107.992L420.449 107.978ZM421.446 102.292L420.718 102.117C420.951 101.178 421.221 100.232 421.519 99.2852L422.247 99.5109C421.92 100.465 421.65 101.389 421.425 102.306L421.446 102.292ZM423.194 96.7809L422.517 96.5188C422.873 95.6088 423.245 94.6988 423.689 93.8179L424.344 94.1382C423.907 95.0118 423.521 95.9 423.172 96.8245L423.194 96.7809ZM425.698 91.5902L425.065 91.2189C425.56 90.3817 426.091 89.5445 426.644 88.7437L427.241 89.1587C426.673 89.9595 426.157 90.7749 425.676 91.6048L425.698 91.5902ZM428.981 86.8509L428.413 86.3923C429.025 85.6643 429.68 84.8926 430.357 84.2083L430.881 84.7106C430.197 85.3949 429.556 86.1229 428.959 86.8655L428.981 86.8509ZM432.942 82.6577L432.454 82.1189C433.182 81.471 433.91 80.8304 434.689 80.2116L435.14 80.7867C434.361 81.4055 433.619 82.0389 432.92 82.6722L432.942 82.6577ZM437.462 79.0613L437.047 78.4571C437.841 77.9111 438.671 77.3724 439.515 76.8628L439.887 77.4816C439.042 77.9985 438.256 78.5299 437.441 79.0759L437.462 79.0613ZM442.406 76.0547L442.063 75.4141C442.922 74.9554 443.811 74.5186 444.699 74.1109L445.004 74.7734C444.08 75.1884 443.228 75.6252 442.384 76.0693L442.406 76.0547ZM447.669 73.6377L447.4 72.9534C448.317 72.5967 449.241 72.2254 450.159 71.9561L450.392 72.6841C449.467 72.9607 448.55 73.2956 447.647 73.6523L447.669 73.6377Z" fill="#263238"/>
<path d="M453.282 71.7953L453.1 71.0673C454.002 70.8343 454.556 70.7324 454.556 70.7324L454.687 71.4604C454.687 71.4604 454.162 71.5696 453.282 71.7953Z" fill="#263238"/>
<path d="M466.153 67.0926C464.296 61.3414 451.862 63.4089 454.286 70.9292C456.711 78.4494 468.009 72.8511 466.153 67.0926Z" fill="#263238"/>
<path d="M447.523 64.7922C447.618 62.266 451.127 60.3223 456.092 61.2177C461.057 62.1131 465.723 65.4619 465.723 65.4619C465.723 65.4619 460.824 68.4322 455.808 68.9782C450.792 69.5242 447.429 67.3111 447.523 64.7922Z" fill="#EBEBEB"/>
<path d="M465.723 65.4477C463.146 65.4477 460.576 65.3749 458.006 65.2948C455.436 65.2148 452.859 65.0837 450.29 64.8799C452.867 64.8799 455.444 64.9454 458.014 65.0255C460.583 65.1056 463.161 65.2366 465.723 65.4477Z" fill="#263238"/>
<path d="M452.51 62.543C453.973 63.2429 455.353 64.1049 456.623 65.1128C455.891 64.7692 455.181 64.3802 454.498 63.948C453.808 63.5188 453.145 63.0496 452.51 62.543Z" fill="#263238"/>
<path d="M459.259 65.207C457.942 66.2744 456.514 67.1969 455 67.9589C456.324 66.8902 457.759 65.9676 459.281 65.207H459.259Z" fill="#263238"/>
<path d="M460.008 63.7871C460.743 64.1398 461.386 64.6582 461.887 65.3013C461.519 65.128 461.175 64.9104 460.86 64.6534C460.544 64.3981 460.258 64.1074 460.008 63.7871Z" fill="#263238"/>
<path d="M452.255 79.7528C453.806 81.7476 457.788 81.2671 461.29 77.6416C464.791 74.0162 466.648 68.5635 466.648 68.5635C466.648 68.5635 460.911 69.0003 456.536 71.4755C452.161 73.9507 450.697 77.7508 452.255 79.7528Z" fill="#EBEBEB"/>
<path d="M466.648 68.5635C464.551 70.0195 462.513 71.6356 460.467 73.2008C458.421 74.766 456.419 76.3822 454.461 78.0493C456.558 76.5933 458.596 74.9844 460.634 73.4192C462.673 71.854 464.66 70.2379 466.648 68.5635Z" fill="#263238"/>
<path d="M457.606 78.6241C457.995 77.917 458.343 77.1877 458.647 76.4401C458.957 75.6904 459.219 74.9221 459.433 74.1396C459.043 74.8462 458.695 75.5755 458.392 76.3236C458.085 77.0745 457.823 77.8426 457.606 78.6241Z" fill="#263238"/>
<path d="M461.552 72.5382C459.849 72.4472 458.14 72.5375 456.456 72.8076C457.305 72.8585 458.155 72.8585 459.004 72.8076C459.858 72.766 460.708 72.676 461.552 72.5382Z" fill="#263238"/>
<path d="M462.957 73.2588C463.152 72.8992 463.303 72.518 463.408 72.1231C463.516 71.731 463.58 71.3281 463.598 70.9219C463.211 71.6426 462.992 72.4414 462.957 73.2588Z" fill="#263238"/>
<path d="M466.153 67.0923C465.742 67.2258 465.3 67.2343 464.884 67.1167C464.468 66.9991 464.097 66.7607 463.816 66.4317C463.536 66.1027 463.359 65.6979 463.309 65.2685C463.259 64.8392 463.337 64.4046 463.534 64.0198C463.731 63.635 464.038 63.3174 464.416 63.107C464.793 62.8967 465.225 62.8032 465.656 62.8383C466.087 62.8734 466.497 63.0356 466.836 63.3043C467.175 63.573 467.426 63.9361 467.558 64.3477C467.735 64.898 467.686 65.4959 467.423 66.0103C467.159 66.5247 466.703 66.9138 466.153 67.0923Z" fill="#455A64"/>
<path d="M467.492 71.2492C467.081 71.3822 466.64 71.3903 466.225 71.2726C465.809 71.155 465.438 70.9167 465.158 70.588C464.877 70.2593 464.701 69.8549 464.651 69.426C464.6 68.9971 464.678 68.5628 464.875 68.1782C465.071 67.7935 465.377 67.4757 465.754 67.265C466.131 67.0542 466.562 66.96 466.993 66.9942C467.423 67.0283 467.834 67.1894 468.173 67.4569C468.512 67.7245 468.764 68.0866 468.897 68.4974C468.986 68.7703 469.02 69.058 468.997 69.3441C468.974 69.6301 468.895 69.9089 468.765 70.1645C468.634 70.42 468.455 70.6473 468.236 70.8335C468.018 71.0196 467.765 71.1609 467.492 71.2492Z" fill="#455A64"/>
<path d="M228.818 69.3931C228.469 72.7369 227.198 75.918 225.146 78.5814C223.095 81.2448 220.343 83.2858 217.199 84.4765C214.055 85.6672 210.642 85.9609 207.341 85.3247C204.04 84.6885 200.98 83.1475 198.504 80.8736L189.426 82.2059L193.968 74.358C192.93 71.8045 192.486 69.0478 192.672 66.2973C192.859 63.5468 193.669 60.8749 195.042 58.4845C196.415 56.0941 198.315 54.0481 200.598 52.5019C202.88 50.9558 205.485 49.9501 208.214 49.5612C210.943 49.1724 213.725 49.4107 216.349 50.258C218.972 51.1052 221.368 52.5392 223.354 54.451C225.34 56.3627 226.864 58.702 227.811 61.2911C228.758 63.8802 229.102 66.651 228.818 69.3931Z" fill="white"/>
<path d="M228.818 69.3929C228.476 72.735 227.216 75.9173 225.178 78.5875C224.182 79.938 222.981 81.1244 221.618 82.1038C220.285 83.1198 218.814 83.941 217.25 84.5426C215.685 85.159 214.04 85.5511 212.365 85.7074C211.527 85.7825 210.686 85.7995 209.846 85.7583C209.003 85.7367 208.164 85.649 207.334 85.4962C203.989 84.8807 200.881 83.3455 198.358 81.0627L198.569 81.1282L189.506 82.5187L188.843 82.6206L189.178 82.0382L193.692 74.1758V74.4889C192.627 71.8882 192.174 69.0774 192.368 66.2738C192.563 63.4702 193.399 60.7488 194.813 58.32C196.225 55.8988 198.166 53.8282 200.491 52.263C202.813 50.7186 205.454 49.7199 208.216 49.3416C210.978 48.9634 213.791 49.2155 216.442 50.079C219.065 50.9714 221.455 52.4389 223.438 54.3742C225.416 56.3047 226.929 58.6604 227.861 61.2627C228.793 63.8649 229.12 66.6453 228.818 69.3929ZM228.818 69.3929C229.112 66.6589 228.774 63.8938 227.83 61.3112C226.885 58.7286 225.36 56.3975 223.372 54.4979C221.384 52.5983 218.986 51.1811 216.363 50.3556C213.74 49.5301 210.962 49.3184 208.244 49.7369C205.554 50.1351 202.991 51.1464 200.753 52.6926C198.535 54.2509 196.682 56.2729 195.322 58.6185C193.984 60.9693 193.195 63.5925 193.015 66.2916C192.837 69.0089 193.275 71.7313 194.296 74.2559L194.362 74.4161L194.274 74.569L189.702 82.4022L189.382 81.9218L198.467 80.6478H198.591L198.679 80.7278C201.107 82.9883 204.117 84.5284 207.371 85.1759C208.182 85.3411 209.005 85.4409 209.832 85.4744C210.658 85.5326 211.488 85.5326 212.314 85.4744C213.971 85.3408 215.603 84.9808 217.162 84.4042C218.726 83.8351 220.197 83.0405 221.53 82.0455C222.887 81.0741 224.09 79.9034 225.098 78.573C227.163 75.9157 228.45 72.738 228.818 69.3929Z" fill="#263238"/>
<path d="M201.904 75.9667C201.89 75.7257 201.925 75.4844 202.008 75.2577C202.092 75.0311 202.221 74.824 202.387 74.6492C202.554 74.4744 202.754 74.3358 202.977 74.2418C203.199 74.1479 203.439 74.1006 203.68 74.103C204.174 74.103 204.648 74.2994 204.998 74.6489C205.347 74.9984 205.544 75.4724 205.544 75.9667C205.544 76.461 205.347 76.935 204.998 77.2845C204.648 77.634 204.174 77.8304 203.68 77.8304C203.439 77.8328 203.199 77.7855 202.977 77.6916C202.754 77.5976 202.554 77.459 202.387 77.2842C202.221 77.1095 202.092 76.9023 202.008 76.6757C201.925 76.449 201.89 76.2077 201.904 75.9667ZM202.632 71.6642L202.209 57.2207H205.121L204.699 71.6642H202.632Z" fill="#0067D2"/>
<path d="M208.827 75.9667C208.813 75.7263 208.848 75.4856 208.931 75.2594C209.014 75.0333 209.142 74.8265 209.308 74.6519C209.474 74.4772 209.674 74.3384 209.895 74.244C210.117 74.1496 210.355 74.1016 210.596 74.103C211.09 74.103 211.564 74.2994 211.914 74.6489C212.263 74.9984 212.46 75.4724 212.46 75.9667C212.46 76.461 212.263 76.935 211.914 77.2845C211.564 77.634 211.09 77.8304 210.596 77.8304C210.355 77.8318 210.117 77.7838 209.895 77.6894C209.674 77.595 209.474 77.4562 209.308 77.2815C209.142 77.1069 209.014 76.9001 208.931 76.674C208.848 76.4478 208.813 76.2071 208.827 75.9667ZM209.555 71.6642L209.155 57.2207H212.067L211.644 71.6642H209.555Z" fill="#0067D2"/>
<path d="M215.743 75.9667C215.729 75.7257 215.765 75.4844 215.848 75.2577C215.931 75.0311 216.06 74.824 216.226 74.6492C216.393 74.4744 216.594 74.3358 216.816 74.2418C217.039 74.1479 217.278 74.1006 217.519 74.103C218.014 74.103 218.488 74.2994 218.837 74.6489C219.187 74.9984 219.383 75.4724 219.383 75.9667C219.383 76.461 219.187 76.935 218.837 77.2845C218.488 77.634 218.014 77.8304 217.519 77.8304C217.278 77.8328 217.039 77.7855 216.816 77.6916C216.594 77.5976 216.393 77.459 216.226 77.2842C216.06 77.1095 215.931 76.9023 215.848 76.6757C215.765 76.449 215.729 76.2077 215.743 75.9667ZM216.471 71.6642L216.049 57.2207H218.961L218.546 71.6642H216.471Z" fill="#0067D2"/>
</svg>
